<svg id="7a12c148-3824-4db5-959d-606992ed67d4" data-name="Layer 1" xmlns="http://www.w3.org/2000/svg" xmlns:xlink="http://www.w3.org/1999/xlink" viewBox="0 0 1200 3639.16"><defs><style>.\38 2eb496f-14f8-4efe-9ca1-07c2d0b769f8{fill:none;}.\37 964dc54-77ad-4539-bf93-e321cf7a09b9{fill:#ffb547;}.\31 5223e74-fa88-401e-b317-ae8fcdf996e9{fill:$sage;}.\30 d751876-4201-4e48-b7de-285b3b790b7d{fill:#fff;}.\39 9e28764-74d1-43a3-81c7-a79842e80d3f{fill:#ff5b35;}.\32 8b59dc7-541a-46fb-bac2-d6cc2e890f13{fill:#d6cec0;}.a9d6747d-a474-4b3e-ae79-1d3e1781258d{clip-path:url(#eb39563c-7c60-4858-9388-b125deb5d891);}.bce96554-d331-4b1d-a64f-83517e2ba53f{clip-path:url(#a557c311-cecc-4845-86d7-efa0c31aada0);}.\30 442865d-26be-40dc-903e-fa04ff067af2{fill:#2e2a25;}.\35 b6a2b88-571a-40b3-bd7c-d735e1b21774{clip-path:url(#f3caca79-f1d3-4735-a67e-b8260b26e125);}.da03964a-5814-4991-834a-bacf8c104a25{clip-path:url(#4a5462ea-1d41-422c-ae7f-ead154a6c0c4);}.\35 da959a5-76f3-4c20-8862-4ed7604af5cf{clip-path:url(#242c09b8-669c-4cf1-abf4-8a085438696a);}.f643a083-7d4e-4441-a335-8858914bb138{clip-path:url(#3ad26491-f104-4552-8f42-f0c9b14f6fb2);}.\34 50b9453-9940-4cd2-af39-e9953ac96bc0{clip-path:url(#706308b0-386e-456c-86ff-2a75bfd17264);}.a238434f-0aff-4232-9a99-d2aa62ed6fa8{clip-path:url(#9b6da7a7-a3d0-4081-85b5-90d99103f566);}.\34 5bc4fe8-2c32-4974-9c6a-f95c67d7ef8f{clip-path:url(#00dac958-4b7e-4e38-aa49-65f328e586fe);}.\35 3cca818-d732-4175-864d-f264b150cdf1{clip-path:url(#c3bafe98-cd58-4a94-a032-524f951bb37a);}.ae6deebc-1aa1-4a01-9b19-9063aab231c9{clip-path:url(#686127bf-519b-4724-adf4-7c93d803bcfb);}.b0c73037-dc27-44f4-a39f-91b533c47380{clip-path:url(#cd03cb4f-8566-429a-9abb-2f4e4be0730b);}.\39 bc93f2a-c75c-49e1-b761-d288165b2e8a{clip-path:url(#b93c1082-1602-4e4e-b189-1bb9372b8bf3);}.ca468ddf-356a-4687-a462-4ab8d9d6fac5{clip-path:url(#f5bb88fd-25d8-491d-82d3-04ca75692df3);}.\36 8eb3c09-9ef1-4233-ac95-ed7bc013467b{clip-path:url(#d8c756c0-10e1-4207-bf29-f08d2d83da89);}.\31 8b75ac3-a47d-4658-b1e0-f2abea520778{clip-path:url(#1f38fed7-027a-495f-a1e2-fe43facd4237);}.\35 c0dc98c-7940-4266-9d14-c3716c9408d8{clip-path:url(#c5bf20d5-0830-45b0-8c7f-2ab2f2d17c8e);}</style><clipPath id="eb39563c-7c60-4858-9388-b125deb5d891"><rect class="82eb496f-14f8-4efe-9ca1-07c2d0b769f8" x="397.22" y="1424.03" width="405.63" height="395.1"/></clipPath><clipPath id="a557c311-cecc-4845-86d7-efa0c31aada0"><rect class="82eb496f-14f8-4efe-9ca1-07c2d0b769f8" x="606.83" y="1295.41" width="261.17" height="261.19"/></clipPath><clipPath id="f3caca79-f1d3-4735-a67e-b8260b26e125"><rect class="82eb496f-14f8-4efe-9ca1-07c2d0b769f8" x="606.83" y="1556.6" width="261.17" height="261.19"/></clipPath><clipPath id="4a5462ea-1d41-422c-ae7f-ead154a6c0c4"><rect class="82eb496f-14f8-4efe-9ca1-07c2d0b769f8" x="606.83" y="1817.78" width="261.17" height="261.19"/></clipPath><clipPath id="242c09b8-669c-4cf1-abf4-8a085438696a"><rect class="82eb496f-14f8-4efe-9ca1-07c2d0b769f8" x="345.66" y="1295.41" width="261.17" height="261.19"/></clipPath><clipPath id="3ad26491-f104-4552-8f42-f0c9b14f6fb2"><rect class="82eb496f-14f8-4efe-9ca1-07c2d0b769f8" x="345.66" y="1556.6" width="261.17" height="261.19"/></clipPath><clipPath id="706308b0-386e-456c-86ff-2a75bfd17264"><rect class="82eb496f-14f8-4efe-9ca1-07c2d0b769f8" x="345.66" y="1817.78" width="261.17" height="261.19"/></clipPath><clipPath id="9b6da7a7-a3d0-4081-85b5-90d99103f566"><rect class="82eb496f-14f8-4efe-9ca1-07c2d0b769f8" x="1016.08" y="-11.37" width="188.67" height="402.74"/></clipPath><clipPath id="00dac958-4b7e-4e38-aa49-65f328e586fe"><rect class="82eb496f-14f8-4efe-9ca1-07c2d0b769f8" x="1174.92" y="-161.23" width="411.58" height="411.58"/></clipPath><clipPath id="c3bafe98-cd58-4a94-a032-524f951bb37a"><rect class="82eb496f-14f8-4efe-9ca1-07c2d0b769f8" x="1174.92" y="250.35" width="411.58" height="411.58"/></clipPath><clipPath id="686127bf-519b-4724-adf4-7c93d803bcfb"><rect class="82eb496f-14f8-4efe-9ca1-07c2d0b769f8" x="763.34" y="-161.23" width="411.58" height="411.58"/></clipPath><clipPath id="cd03cb4f-8566-429a-9abb-2f4e4be0730b"><rect class="82eb496f-14f8-4efe-9ca1-07c2d0b769f8" x="763.34" y="250.35" width="411.58" height="411.58"/></clipPath><clipPath id="b93c1082-1602-4e4e-b189-1bb9372b8bf3"><polygon id="191105c9-832f-4dba-8c82-d3398c559ee1" data-name="SVGID" class="82eb496f-14f8-4efe-9ca1-07c2d0b769f8" points="1214.66 2632.47 1214.66 3041.22 805.91 3041.22 1214.66 2632.47"/></clipPath><clipPath id="f5bb88fd-25d8-491d-82d3-04ca75692df3"><rect id="36f048c5-6b7a-4adb-b6b4-8630c45cd390" data-name="SVGID" class="82eb496f-14f8-4efe-9ca1-07c2d0b769f8" x="997.66" y="2601.32" width="259.11" height="259.13"/></clipPath><clipPath id="d8c756c0-10e1-4207-bf29-f08d2d83da89"><rect id="a6190df5-0676-4bc6-8928-9838bf3b64ca" data-name="SVGID" class="82eb496f-14f8-4efe-9ca1-07c2d0b769f8" x="997.66" y="2860.45" width="259.11" height="259.13"/></clipPath><clipPath id="1f38fed7-027a-495f-a1e2-fe43facd4237"><rect id="68dcebd2-da87-4b31-8c27-96a3cb0a0f64" data-name="SVGID" class="82eb496f-14f8-4efe-9ca1-07c2d0b769f8" x="738.55" y="2601.32" width="259.11" height="259.13"/></clipPath><clipPath id="c5bf20d5-0830-45b0-8c7f-2ab2f2d17c8e"><rect id="b8681e57-22f8-445d-950a-175e2194d4ed" data-name="SVGID" class="82eb496f-14f8-4efe-9ca1-07c2d0b769f8" x="738.55" y="2860.45" width="259.11" height="259.13"/></clipPath></defs><title>hq-background</title><rect class="7964dc54-77ad-4539-bf93-e321cf7a09b9" x="812.21" y="1013.76" width="402.74" height="813.42"/><rect class="15223e74-fa88-401e-b317-ae8fcdf996e9" x="0.41" y="1013.76" width="600.6" height="406.71"/><rect class="0d751876-4201-4e48-b7de-285b3b790b7d" x="-7.2" y="390.41" width="1020.42" height="619.25"/><rect class="99e28764-74d1-43a3-81c7-a79842e80d3f" x="1016.08" y="-11.37" width="188.67" height="401.78"/><rect class="28b59dc7-541a-46fb-bac2-d6cc2e890f13" x="1016.08" y="392.45" width="203.15" height="616.95"/><rect class="99e28764-74d1-43a3-81c7-a79842e80d3f" x="-5.59" y="1422.49" width="398.53" height="398.53"/><rect class="15223e74-fa88-401e-b317-ae8fcdf996e9" x="-7.2" y="-4.68" width="405.63" height="395.1"/><g class="a9d6747d-a474-4b3e-ae79-1d3e1781258d"><g class="bce96554-d331-4b1d-a64f-83517e2ba53f"><path class="0442865d-26be-40dc-903e-fa04ff067af2" d="M868,1582.71a26.12,26.12,0,1,0-26.11-26.12A26.13,26.13,0,0,0,868,1582.71Z"/><path class="0442865d-26be-40dc-903e-fa04ff067af2" d="M737.42,1582.71a26.12,26.12,0,1,0-26.11-26.12A26.13,26.13,0,0,0,737.42,1582.71Z"/><path class="0442865d-26be-40dc-903e-fa04ff067af2" d="M868,1452.13A26.12,26.12,0,1,0,841.89,1426,26.13,26.13,0,0,0,868,1452.13Z"/><path class="0442865d-26be-40dc-903e-fa04ff067af2" d="M737.42,1452.13A26.12,26.12,0,1,0,711.31,1426,26.13,26.13,0,0,0,737.42,1452.13Z"/><path class="0442865d-26be-40dc-903e-fa04ff067af2" d="M672.12,1517.42A26.12,26.12,0,1,0,646,1491.3,26.13,26.13,0,0,0,672.12,1517.42Z"/><path class="0442865d-26be-40dc-903e-fa04ff067af2" d="M802.71,1517.42a26.12,26.12,0,1,0-26.13-26.12A26.12,26.12,0,0,0,802.71,1517.42Z"/><path class="0442865d-26be-40dc-903e-fa04ff067af2" d="M672.12,1386.83A26.12,26.12,0,1,0,646,1360.71,26.13,26.13,0,0,0,672.12,1386.83Z"/><path class="0442865d-26be-40dc-903e-fa04ff067af2" d="M802.71,1386.83a26.12,26.12,0,1,0-26.13-26.12A26.11,26.11,0,0,0,802.71,1386.83Z"/><path class="0442865d-26be-40dc-903e-fa04ff067af2" d="M606.82,1582.71a26.12,26.12,0,1,0-26.11-26.12A26.13,26.13,0,0,0,606.82,1582.71Z"/><path class="0442865d-26be-40dc-903e-fa04ff067af2" d="M606.82,1452.13A26.12,26.12,0,1,0,580.72,1426,26.13,26.13,0,0,0,606.82,1452.13Z"/><path class="0442865d-26be-40dc-903e-fa04ff067af2" d="M868,1321.53a26.12,26.12,0,1,0-26.11-26.12A26.13,26.13,0,0,0,868,1321.53Z"/><path class="0442865d-26be-40dc-903e-fa04ff067af2" d="M737.42,1321.53a26.12,26.12,0,1,0-26.11-26.12A26.13,26.13,0,0,0,737.42,1321.53Z"/><path class="0442865d-26be-40dc-903e-fa04ff067af2" d="M606.82,1321.53a26.12,26.12,0,1,0-26.11-26.12A26.13,26.13,0,0,0,606.82,1321.53Z"/></g><g class="5b6a2b88-571a-40b3-bd7c-d735e1b21774"><path class="0442865d-26be-40dc-903e-fa04ff067af2" d="M868,1843.9a26.12,26.12,0,1,0-26.11-26.12A26.13,26.13,0,0,0,868,1843.9Z"/><path class="0442865d-26be-40dc-903e-fa04ff067af2" d="M737.42,1843.9a26.12,26.12,0,1,0-26.11-26.12A26.13,26.13,0,0,0,737.42,1843.9Z"/><path class="0442865d-26be-40dc-903e-fa04ff067af2" d="M868,1713.32a26.12,26.12,0,1,0-26.11-26.13A26.13,26.13,0,0,0,868,1713.32Z"/><path class="0442865d-26be-40dc-903e-fa04ff067af2" d="M737.42,1713.32a26.12,26.12,0,1,0-26.11-26.13A26.13,26.13,0,0,0,737.42,1713.32Z"/><path class="0442865d-26be-40dc-903e-fa04ff067af2" d="M672.12,1778.6A26.12,26.12,0,1,0,646,1752.49,26.13,26.13,0,0,0,672.12,1778.6Z"/><path class="0442865d-26be-40dc-903e-fa04ff067af2" d="M802.71,1778.6a26.12,26.12,0,1,0-26.13-26.12A26.12,26.12,0,0,0,802.71,1778.6Z"/><path class="0442865d-26be-40dc-903e-fa04ff067af2" d="M672.12,1648A26.12,26.12,0,1,0,646,1621.89,26.13,26.13,0,0,0,672.12,1648Z"/><path class="0442865d-26be-40dc-903e-fa04ff067af2" d="M802.71,1648a26.12,26.12,0,1,0-26.13-26.12A26.11,26.11,0,0,0,802.71,1648Z"/><path class="0442865d-26be-40dc-903e-fa04ff067af2" d="M606.82,1843.9a26.12,26.12,0,1,0-26.11-26.12A26.13,26.13,0,0,0,606.82,1843.9Z"/><path class="0442865d-26be-40dc-903e-fa04ff067af2" d="M606.82,1713.32a26.12,26.12,0,1,0-26.11-26.13A26.13,26.13,0,0,0,606.82,1713.32Z"/><path class="0442865d-26be-40dc-903e-fa04ff067af2" d="M868,1582.71a26.12,26.12,0,1,0-26.11-26.12A26.13,26.13,0,0,0,868,1582.71Z"/><path class="0442865d-26be-40dc-903e-fa04ff067af2" d="M737.42,1582.71a26.12,26.12,0,1,0-26.11-26.12A26.13,26.13,0,0,0,737.42,1582.71Z"/><path class="0442865d-26be-40dc-903e-fa04ff067af2" d="M606.82,1582.71a26.12,26.12,0,1,0-26.11-26.12A26.13,26.13,0,0,0,606.82,1582.71Z"/></g><g class="da03964a-5814-4991-834a-bacf8c104a25"><path class="0442865d-26be-40dc-903e-fa04ff067af2" d="M868,2105.09A26.12,26.12,0,1,0,841.89,2079,26.13,26.13,0,0,0,868,2105.09Z"/><path class="0442865d-26be-40dc-903e-fa04ff067af2" d="M737.42,2105.09A26.12,26.12,0,1,0,711.31,2079,26.13,26.13,0,0,0,737.42,2105.09Z"/><path class="0442865d-26be-40dc-903e-fa04ff067af2" d="M868,1974.5a26.12,26.12,0,1,0-26.11-26.13A26.13,26.13,0,0,0,868,1974.5Z"/><path class="0442865d-26be-40dc-903e-fa04ff067af2" d="M737.42,1974.5a26.12,26.12,0,1,0-26.11-26.13A26.13,26.13,0,0,0,737.42,1974.5Z"/><path class="0442865d-26be-40dc-903e-fa04ff067af2" d="M672.12,2039.79A26.12,26.12,0,1,0,646,2013.67,26.13,26.13,0,0,0,672.12,2039.79Z"/><path class="0442865d-26be-40dc-903e-fa04ff067af2" d="M802.71,2039.79a26.12,26.12,0,1,0-26.13-26.12A26.12,26.12,0,0,0,802.71,2039.79Z"/><path class="0442865d-26be-40dc-903e-fa04ff067af2" d="M672.12,1909.2A26.12,26.12,0,1,0,646,1883.08,26.13,26.13,0,0,0,672.12,1909.2Z"/><path class="0442865d-26be-40dc-903e-fa04ff067af2" d="M802.71,1909.2a26.12,26.12,0,1,0-26.13-26.12A26.11,26.11,0,0,0,802.71,1909.2Z"/><path class="0442865d-26be-40dc-903e-fa04ff067af2" d="M606.82,2105.09A26.12,26.12,0,1,0,580.72,2079,26.13,26.13,0,0,0,606.82,2105.09Z"/><path class="0442865d-26be-40dc-903e-fa04ff067af2" d="M606.82,1974.5a26.12,26.12,0,1,0-26.11-26.13A26.13,26.13,0,0,0,606.82,1974.5Z"/><path class="0442865d-26be-40dc-903e-fa04ff067af2" d="M868,1843.9a26.12,26.12,0,1,0-26.11-26.12A26.13,26.13,0,0,0,868,1843.9Z"/><path class="0442865d-26be-40dc-903e-fa04ff067af2" d="M737.42,1843.9a26.12,26.12,0,1,0-26.11-26.12A26.13,26.13,0,0,0,737.42,1843.9Z"/><path class="0442865d-26be-40dc-903e-fa04ff067af2" d="M606.82,1843.9a26.12,26.12,0,1,0-26.11-26.12A26.13,26.13,0,0,0,606.82,1843.9Z"/></g><g class="5da959a5-76f3-4c20-8862-4ed7604af5cf"><path class="0442865d-26be-40dc-903e-fa04ff067af2" d="M606.82,1582.71a26.12,26.12,0,1,0-26.11-26.12A26.13,26.13,0,0,0,606.82,1582.71Z"/><path class="0442865d-26be-40dc-903e-fa04ff067af2" d="M476.24,1582.71a26.12,26.12,0,1,0-26.11-26.12A26.13,26.13,0,0,0,476.24,1582.71Z"/><path class="0442865d-26be-40dc-903e-fa04ff067af2" d="M606.82,1452.13A26.12,26.12,0,1,0,580.72,1426,26.13,26.13,0,0,0,606.82,1452.13Z"/><path class="0442865d-26be-40dc-903e-fa04ff067af2" d="M476.24,1452.13A26.12,26.12,0,1,0,450.14,1426,26.13,26.13,0,0,0,476.24,1452.13Z"/><path class="0442865d-26be-40dc-903e-fa04ff067af2" d="M411,1517.42a26.12,26.12,0,1,0-26.12-26.12A26.13,26.13,0,0,0,411,1517.42Z"/><path class="0442865d-26be-40dc-903e-fa04ff067af2" d="M541.54,1517.42a26.12,26.12,0,1,0-26.13-26.12A26.12,26.12,0,0,0,541.54,1517.42Z"/><path class="0442865d-26be-40dc-903e-fa04ff067af2" d="M411,1386.83a26.12,26.12,0,1,0-26.12-26.12A26.13,26.13,0,0,0,411,1386.83Z"/><path class="0442865d-26be-40dc-903e-fa04ff067af2" d="M541.54,1386.83a26.12,26.12,0,1,0-26.13-26.12A26.11,26.11,0,0,0,541.54,1386.83Z"/><path class="0442865d-26be-40dc-903e-fa04ff067af2" d="M345.65,1582.71a26.12,26.12,0,1,0-26.11-26.12A26.13,26.13,0,0,0,345.65,1582.71Z"/><path class="0442865d-26be-40dc-903e-fa04ff067af2" d="M345.65,1452.13A26.12,26.12,0,1,0,319.54,1426,26.13,26.13,0,0,0,345.65,1452.13Z"/><path class="0442865d-26be-40dc-903e-fa04ff067af2" d="M606.82,1321.53a26.12,26.12,0,1,0-26.11-26.12A26.13,26.13,0,0,0,606.82,1321.53Z"/><path class="0442865d-26be-40dc-903e-fa04ff067af2" d="M476.24,1321.53a26.12,26.12,0,1,0-26.11-26.12A26.13,26.13,0,0,0,476.24,1321.53Z"/><path class="0442865d-26be-40dc-903e-fa04ff067af2" d="M345.65,1321.53a26.12,26.12,0,1,0-26.11-26.12A26.13,26.13,0,0,0,345.65,1321.53Z"/></g><g class="f643a083-7d4e-4441-a335-8858914bb138"><path class="0442865d-26be-40dc-903e-fa04ff067af2" d="M606.82,1843.9a26.12,26.12,0,1,0-26.11-26.12A26.13,26.13,0,0,0,606.82,1843.9Z"/><path class="0442865d-26be-40dc-903e-fa04ff067af2" d="M476.24,1843.9a26.12,26.12,0,1,0-26.11-26.12A26.13,26.13,0,0,0,476.24,1843.9Z"/><path class="0442865d-26be-40dc-903e-fa04ff067af2" d="M606.82,1713.32a26.12,26.12,0,1,0-26.11-26.13A26.13,26.13,0,0,0,606.82,1713.32Z"/><path class="0442865d-26be-40dc-903e-fa04ff067af2" d="M476.24,1713.32a26.12,26.12,0,1,0-26.11-26.13A26.13,26.13,0,0,0,476.24,1713.32Z"/><path class="0442865d-26be-40dc-903e-fa04ff067af2" d="M411,1778.6a26.12,26.12,0,1,0-26.12-26.12A26.13,26.13,0,0,0,411,1778.6Z"/><path class="0442865d-26be-40dc-903e-fa04ff067af2" d="M541.54,1778.6a26.12,26.12,0,1,0-26.13-26.12A26.12,26.12,0,0,0,541.54,1778.6Z"/><path class="0442865d-26be-40dc-903e-fa04ff067af2" d="M411,1648a26.12,26.12,0,1,0-26.12-26.12A26.13,26.13,0,0,0,411,1648Z"/><path class="0442865d-26be-40dc-903e-fa04ff067af2" d="M541.54,1648a26.12,26.12,0,1,0-26.13-26.12A26.11,26.11,0,0,0,541.54,1648Z"/><path class="0442865d-26be-40dc-903e-fa04ff067af2" d="M345.65,1843.9a26.12,26.12,0,1,0-26.11-26.12A26.13,26.13,0,0,0,345.65,1843.9Z"/><path class="0442865d-26be-40dc-903e-fa04ff067af2" d="M345.65,1713.32a26.12,26.12,0,1,0-26.11-26.13A26.13,26.13,0,0,0,345.65,1713.32Z"/><path class="0442865d-26be-40dc-903e-fa04ff067af2" d="M606.82,1582.71a26.12,26.12,0,1,0-26.11-26.12A26.13,26.13,0,0,0,606.82,1582.71Z"/><path class="0442865d-26be-40dc-903e-fa04ff067af2" d="M476.24,1582.71a26.12,26.12,0,1,0-26.11-26.12A26.13,26.13,0,0,0,476.24,1582.71Z"/><path class="0442865d-26be-40dc-903e-fa04ff067af2" d="M345.65,1582.71a26.12,26.12,0,1,0-26.11-26.12A26.13,26.13,0,0,0,345.65,1582.71Z"/></g><g class="450b9453-9940-4cd2-af39-e9953ac96bc0"><path class="0442865d-26be-40dc-903e-fa04ff067af2" d="M606.82,2105.09A26.12,26.12,0,1,0,580.72,2079,26.13,26.13,0,0,0,606.82,2105.09Z"/><path class="0442865d-26be-40dc-903e-fa04ff067af2" d="M476.24,2105.09A26.12,26.12,0,1,0,450.14,2079,26.13,26.13,0,0,0,476.24,2105.09Z"/><path class="0442865d-26be-40dc-903e-fa04ff067af2" d="M606.82,1974.5a26.12,26.12,0,1,0-26.11-26.13A26.13,26.13,0,0,0,606.82,1974.5Z"/><path class="0442865d-26be-40dc-903e-fa04ff067af2" d="M476.24,1974.5a26.12,26.12,0,1,0-26.11-26.13A26.13,26.13,0,0,0,476.24,1974.5Z"/><path class="0442865d-26be-40dc-903e-fa04ff067af2" d="M411,2039.79a26.12,26.12,0,1,0-26.12-26.12A26.13,26.13,0,0,0,411,2039.79Z"/><path class="0442865d-26be-40dc-903e-fa04ff067af2" d="M541.54,2039.79a26.12,26.12,0,1,0-26.13-26.12A26.12,26.12,0,0,0,541.54,2039.79Z"/><path class="0442865d-26be-40dc-903e-fa04ff067af2" d="M411,1909.2a26.12,26.12,0,1,0-26.12-26.12A26.13,26.13,0,0,0,411,1909.2Z"/><path class="0442865d-26be-40dc-903e-fa04ff067af2" d="M541.54,1909.2a26.12,26.12,0,1,0-26.13-26.12A26.11,26.11,0,0,0,541.54,1909.2Z"/><path class="0442865d-26be-40dc-903e-fa04ff067af2" d="M345.65,2105.09A26.12,26.12,0,1,0,319.54,2079,26.13,26.13,0,0,0,345.65,2105.09Z"/><path class="0442865d-26be-40dc-903e-fa04ff067af2" d="M345.65,1974.5a26.12,26.12,0,1,0-26.11-26.13A26.13,26.13,0,0,0,345.65,1974.5Z"/><path class="0442865d-26be-40dc-903e-fa04ff067af2" d="M606.82,1843.9a26.12,26.12,0,1,0-26.11-26.12A26.13,26.13,0,0,0,606.82,1843.9Z"/><path class="0442865d-26be-40dc-903e-fa04ff067af2" d="M476.24,1843.9a26.12,26.12,0,1,0-26.11-26.12A26.13,26.13,0,0,0,476.24,1843.9Z"/><path class="0442865d-26be-40dc-903e-fa04ff067af2" d="M345.65,1843.9a26.12,26.12,0,1,0-26.11-26.12A26.13,26.13,0,0,0,345.65,1843.9Z"/></g></g><rect class="7964dc54-77ad-4539-bf93-e321cf7a09b9" x="396.11" y="-23.71" width="619.97" height="416.17"/><polygon class="0442865d-26be-40dc-903e-fa04ff067af2" points="612.51 1433.22 -17 1433.22 -17 1411.76 591.05 1411.76 591.05 1010.47 612.51 1010.47 612.51 1433.22"/><polygon class="0442865d-26be-40dc-903e-fa04ff067af2" points="1219.23 1838.94 796.49 1838.94 796.39 1012.98 817.85 1012.98 817.94 1817.48 1219.23 1817.48 1219.23 1838.94"/><rect class="0442865d-26be-40dc-903e-fa04ff067af2" x="601.78" y="1411.76" width="205.43" height="21.46"/><rect class="0442865d-26be-40dc-903e-fa04ff067af2" x="382.22" y="1424.74" width="21.46" height="408.61"/><rect class="0442865d-26be-40dc-903e-fa04ff067af2" x="-17" y="380.64" width="1236.03" height="21.46"/><rect class="0442865d-26be-40dc-903e-fa04ff067af2" x="1013.22" y="586.68" width="206.01" height="21.46"/><rect class="0442865d-26be-40dc-903e-fa04ff067af2" x="1013.22" y="801.56" width="206.01" height="21.46"/><rect class="0442865d-26be-40dc-903e-fa04ff067af2" x="1013.22" y="998.67" width="206.01" height="21.46"/><circle class="15223e74-fa88-401e-b317-ae8fcdf996e9" cx="1108.49" cy="911.76" r="65.31"/><path class="0442865d-26be-40dc-903e-fa04ff067af2" d="M1108.49,987.8a76,76,0,1,1,76-76A76.13,76.13,0,0,1,1108.49,987.8Zm0-130.62a54.58,54.58,0,1,0,54.58,54.58A54.64,54.64,0,0,0,1108.49,857.18Z"/><circle class="15223e74-fa88-401e-b317-ae8fcdf996e9" cx="1108.49" cy="703.64" r="65.31"/><path class="0442865d-26be-40dc-903e-fa04ff067af2" d="M1108.49,779.68a76,76,0,1,1,76-76A76.13,76.13,0,0,1,1108.49,779.68Zm0-130.62a54.58,54.58,0,1,0,54.58,54.58A54.64,54.64,0,0,0,1108.49,649.06Z"/><circle class="15223e74-fa88-401e-b317-ae8fcdf996e9" cx="1108.49" cy="492.23" r="65.31"/><path class="0442865d-26be-40dc-903e-fa04ff067af2" d="M1108.49,568.27a76,76,0,1,1,76-76A76.13,76.13,0,0,1,1108.49,568.27Zm0-130.62a54.58,54.58,0,1,0,54.58,54.58A54.64,54.64,0,0,0,1108.49,437.65Z"/><polygon class="0442865d-26be-40dc-903e-fa04ff067af2" points="1023.95 1020.4 -17.01 1019.03 -16.98 997.57 1002.49 998.92 1002.49 -11.37 1023.95 -11.37 1023.95 1020.4"/><rect class="0442865d-26be-40dc-903e-fa04ff067af2" x="385.38" y="-23.71" width="21.46" height="416.17"/><circle class="7964dc54-77ad-4539-bf93-e321cf7a09b9" cx="193.2" cy="1621.58" r="127.67"/><path class="0442865d-26be-40dc-903e-fa04ff067af2" d="M193.2,1760c-76.31,0-138.4-62.08-138.4-138.4s62.08-138.4,138.4-138.4,138.4,62.08,138.4,138.4S269.52,1760,193.2,1760Zm0-255.33a116.94,116.94,0,1,0,116.94,116.94A117.07,117.07,0,0,0,193.2,1504.64Z"/><g class="a238434f-0aff-4232-9a99-d2aa62ed6fa8"><g class="45bc4fe8-2c32-4974-9c6a-f95c67d7ef8f"><rect class="0442865d-26be-40dc-903e-fa04ff067af2" x="1173.49" y="226.19" width="414.43" height="7.15"/><rect class="0442865d-26be-40dc-903e-fa04ff067af2" x="1173.49" y="143.88" width="414.43" height="7.15"/><rect class="0442865d-26be-40dc-903e-fa04ff067af2" x="1173.49" y="61.56" width="414.43" height="7.15"/><rect class="0442865d-26be-40dc-903e-fa04ff067af2" x="1173.49" y="185.04" width="414.43" height="7.15"/><rect class="0442865d-26be-40dc-903e-fa04ff067af2" x="1173.49" y="102.72" width="414.43" height="7.15"/><rect class="0442865d-26be-40dc-903e-fa04ff067af2" x="1173.49" y="20.4" width="414.43" height="7.15"/><rect class="0442865d-26be-40dc-903e-fa04ff067af2" x="761.91" y="226.19" width="414.43" height="7.15"/><rect class="0442865d-26be-40dc-903e-fa04ff067af2" x="761.91" y="143.88" width="414.43" height="7.15"/><rect class="0442865d-26be-40dc-903e-fa04ff067af2" x="761.91" y="61.56" width="414.43" height="7.15"/><rect class="0442865d-26be-40dc-903e-fa04ff067af2" x="761.91" y="185.04" width="414.43" height="7.15"/><rect class="0442865d-26be-40dc-903e-fa04ff067af2" x="761.91" y="102.72" width="414.43" height="7.15"/><rect class="0442865d-26be-40dc-903e-fa04ff067af2" x="761.91" y="20.4" width="414.43" height="7.15"/></g><g class="53cca818-d732-4175-864d-f264b150cdf1"><rect class="0442865d-26be-40dc-903e-fa04ff067af2" x="1173.49" y="637.77" width="414.43" height="7.15"/><rect class="0442865d-26be-40dc-903e-fa04ff067af2" x="1173.49" y="555.45" width="414.43" height="7.15"/><rect class="0442865d-26be-40dc-903e-fa04ff067af2" x="1173.49" y="473.14" width="414.43" height="7.15"/><rect class="0442865d-26be-40dc-903e-fa04ff067af2" x="1173.49" y="390.82" width="414.43" height="7.15"/><rect class="0442865d-26be-40dc-903e-fa04ff067af2" x="1173.49" y="308.51" width="414.43" height="7.15"/><rect class="0442865d-26be-40dc-903e-fa04ff067af2" x="1173.49" y="596.61" width="414.43" height="7.15"/><rect class="0442865d-26be-40dc-903e-fa04ff067af2" x="1173.49" y="514.29" width="414.43" height="7.15"/><rect class="0442865d-26be-40dc-903e-fa04ff067af2" x="1173.49" y="431.98" width="414.43" height="7.15"/><rect class="0442865d-26be-40dc-903e-fa04ff067af2" x="1173.49" y="349.67" width="414.43" height="7.15"/><rect class="0442865d-26be-40dc-903e-fa04ff067af2" x="1173.49" y="267.35" width="414.43" height="7.15"/><rect class="0442865d-26be-40dc-903e-fa04ff067af2" x="761.91" y="637.77" width="414.43" height="7.15"/><rect class="0442865d-26be-40dc-903e-fa04ff067af2" x="761.91" y="555.45" width="414.43" height="7.15"/><rect class="0442865d-26be-40dc-903e-fa04ff067af2" x="761.91" y="473.14" width="414.43" height="7.15"/><rect class="0442865d-26be-40dc-903e-fa04ff067af2" x="761.91" y="390.82" width="414.43" height="7.15"/><rect class="0442865d-26be-40dc-903e-fa04ff067af2" x="761.91" y="308.51" width="414.43" height="7.15"/><rect class="0442865d-26be-40dc-903e-fa04ff067af2" x="761.91" y="596.61" width="414.43" height="7.15"/><rect class="0442865d-26be-40dc-903e-fa04ff067af2" x="761.91" y="514.29" width="414.43" height="7.15"/><rect class="0442865d-26be-40dc-903e-fa04ff067af2" x="761.91" y="431.98" width="414.43" height="7.15"/><rect class="0442865d-26be-40dc-903e-fa04ff067af2" x="761.91" y="349.67" width="414.43" height="7.15"/><rect class="0442865d-26be-40dc-903e-fa04ff067af2" x="761.91" y="267.35" width="414.43" height="7.15"/></g><g class="ae6deebc-1aa1-4a01-9b19-9063aab231c9"><rect class="0442865d-26be-40dc-903e-fa04ff067af2" x="1173.49" y="226.19" width="414.43" height="7.15"/><rect class="0442865d-26be-40dc-903e-fa04ff067af2" x="1173.49" y="143.88" width="414.43" height="7.15"/><rect class="0442865d-26be-40dc-903e-fa04ff067af2" x="1173.49" y="61.56" width="414.43" height="7.15"/><rect class="0442865d-26be-40dc-903e-fa04ff067af2" x="1173.49" y="185.04" width="414.43" height="7.15"/><rect class="0442865d-26be-40dc-903e-fa04ff067af2" x="1173.49" y="102.72" width="414.43" height="7.15"/><rect class="0442865d-26be-40dc-903e-fa04ff067af2" x="1173.49" y="20.4" width="414.43" height="7.15"/><rect class="0442865d-26be-40dc-903e-fa04ff067af2" x="761.91" y="226.19" width="414.43" height="7.15"/><rect class="0442865d-26be-40dc-903e-fa04ff067af2" x="761.91" y="143.88" width="414.43" height="7.15"/><rect class="0442865d-26be-40dc-903e-fa04ff067af2" x="761.91" y="61.56" width="414.43" height="7.15"/><rect class="0442865d-26be-40dc-903e-fa04ff067af2" x="761.91" y="185.04" width="414.43" height="7.15"/><rect class="0442865d-26be-40dc-903e-fa04ff067af2" x="761.91" y="102.72" width="414.43" height="7.15"/><rect class="0442865d-26be-40dc-903e-fa04ff067af2" x="761.91" y="20.4" width="414.43" height="7.15"/><rect class="0442865d-26be-40dc-903e-fa04ff067af2" x="350.34" y="226.19" width="414.43" height="7.15"/><rect class="0442865d-26be-40dc-903e-fa04ff067af2" x="350.34" y="143.88" width="414.43" height="7.15"/><rect class="0442865d-26be-40dc-903e-fa04ff067af2" x="350.34" y="61.56" width="414.43" height="7.15"/><rect class="0442865d-26be-40dc-903e-fa04ff067af2" x="350.34" y="185.04" width="414.43" height="7.15"/><rect class="0442865d-26be-40dc-903e-fa04ff067af2" x="350.34" y="102.72" width="414.43" height="7.15"/><rect class="0442865d-26be-40dc-903e-fa04ff067af2" x="350.34" y="20.4" width="414.43" height="7.15"/></g><g class="b0c73037-dc27-44f4-a39f-91b533c47380"><rect class="0442865d-26be-40dc-903e-fa04ff067af2" x="1173.49" y="637.77" width="414.43" height="7.15"/><rect class="0442865d-26be-40dc-903e-fa04ff067af2" x="1173.49" y="555.45" width="414.43" height="7.15"/><rect class="0442865d-26be-40dc-903e-fa04ff067af2" x="1173.49" y="473.14" width="414.43" height="7.15"/><rect class="0442865d-26be-40dc-903e-fa04ff067af2" x="1173.49" y="390.82" width="414.43" height="7.15"/><rect class="0442865d-26be-40dc-903e-fa04ff067af2" x="1173.49" y="308.51" width="414.43" height="7.15"/><rect class="0442865d-26be-40dc-903e-fa04ff067af2" x="1173.49" y="596.61" width="414.43" height="7.15"/><rect class="0442865d-26be-40dc-903e-fa04ff067af2" x="1173.49" y="514.29" width="414.43" height="7.15"/><rect class="0442865d-26be-40dc-903e-fa04ff067af2" x="1173.49" y="431.98" width="414.43" height="7.15"/><rect class="0442865d-26be-40dc-903e-fa04ff067af2" x="1173.49" y="349.67" width="414.43" height="7.15"/><rect class="0442865d-26be-40dc-903e-fa04ff067af2" x="1173.49" y="267.35" width="414.43" height="7.15"/><rect class="0442865d-26be-40dc-903e-fa04ff067af2" x="761.91" y="637.77" width="414.43" height="7.15"/><rect class="0442865d-26be-40dc-903e-fa04ff067af2" x="761.91" y="555.45" width="414.43" height="7.15"/><rect class="0442865d-26be-40dc-903e-fa04ff067af2" x="761.91" y="473.14" width="414.43" height="7.15"/><rect class="0442865d-26be-40dc-903e-fa04ff067af2" x="761.91" y="390.82" width="414.43" height="7.15"/><rect class="0442865d-26be-40dc-903e-fa04ff067af2" x="761.91" y="308.51" width="414.43" height="7.15"/><rect class="0442865d-26be-40dc-903e-fa04ff067af2" x="761.91" y="596.61" width="414.43" height="7.15"/><rect class="0442865d-26be-40dc-903e-fa04ff067af2" x="761.91" y="514.29" width="414.43" height="7.15"/><rect class="0442865d-26be-40dc-903e-fa04ff067af2" x="761.91" y="431.98" width="414.43" height="7.15"/><rect class="0442865d-26be-40dc-903e-fa04ff067af2" x="761.91" y="349.67" width="414.43" height="7.15"/><rect class="0442865d-26be-40dc-903e-fa04ff067af2" x="761.91" y="267.35" width="414.43" height="7.15"/><rect class="0442865d-26be-40dc-903e-fa04ff067af2" x="350.34" y="637.77" width="414.43" height="7.15"/><rect class="0442865d-26be-40dc-903e-fa04ff067af2" x="350.34" y="555.45" width="414.43" height="7.15"/><rect class="0442865d-26be-40dc-903e-fa04ff067af2" x="350.34" y="473.14" width="414.43" height="7.15"/><rect class="0442865d-26be-40dc-903e-fa04ff067af2" x="350.34" y="390.82" width="414.43" height="7.15"/><rect class="0442865d-26be-40dc-903e-fa04ff067af2" x="350.34" y="308.51" width="414.43" height="7.15"/><rect class="0442865d-26be-40dc-903e-fa04ff067af2" x="350.34" y="596.61" width="414.43" height="7.15"/><rect class="0442865d-26be-40dc-903e-fa04ff067af2" x="350.34" y="514.29" width="414.43" height="7.15"/><rect class="0442865d-26be-40dc-903e-fa04ff067af2" x="350.34" y="431.98" width="414.43" height="7.15"/><rect class="0442865d-26be-40dc-903e-fa04ff067af2" x="350.34" y="349.67" width="414.43" height="7.15"/><rect class="0442865d-26be-40dc-903e-fa04ff067af2" x="350.34" y="267.35" width="414.43" height="7.15"/></g></g><rect class="99e28764-74d1-43a3-81c7-a79842e80d3f" x="806.79" y="3040.03" width="402.26" height="207.15"/><rect class="99e28764-74d1-43a3-81c7-a79842e80d3f" x="814.06" y="1824.67" width="400.6" height="805.01"/><rect class="28b59dc7-541a-46fb-bac2-d6cc2e890f13" x="396.59" y="3247.18" width="812.41" height="391.98"/><rect class="28b59dc7-541a-46fb-bac2-d6cc2e890f13" x="397.33" y="2734.8" width="408.58" height="102.7"/><rect class="99e28764-74d1-43a3-81c7-a79842e80d3f" x="-7.42" y="3255.11" width="409.13" height="391.98"/><rect class="99e28764-74d1-43a3-81c7-a79842e80d3f" x="-3.22" y="2427.81" width="400.36" height="409.03"/><g class="9bc93f2a-c75c-49e1-b761-d288165b2e8a"><g class="ca468ddf-356a-4687-a462-4ab8d9d6fac5"><path class="0442865d-26be-40dc-903e-fa04ff067af2" d="M1127.22,2886.36a25.91,25.91,0,1,0-25.9-25.91A25.93,25.93,0,0,0,1127.22,2886.36Z"/><path class="0442865d-26be-40dc-903e-fa04ff067af2" d="M1127.22,2756.81a25.92,25.92,0,1,0-25.9-25.92A25.93,25.93,0,0,0,1127.22,2756.81Z"/><path class="0442865d-26be-40dc-903e-fa04ff067af2" d="M1062.44,2821.58a25.91,25.91,0,1,0-25.91-25.91A25.93,25.93,0,0,0,1062.44,2821.58Z"/><path class="0442865d-26be-40dc-903e-fa04ff067af2" d="M1192,2821.58a25.91,25.91,0,1,0-25.92-25.91A25.91,25.91,0,0,0,1192,2821.58Z"/><path class="0442865d-26be-40dc-903e-fa04ff067af2" d="M1062.44,2692a25.91,25.91,0,1,0-25.91-25.91A25.92,25.92,0,0,0,1062.44,2692Z"/><path class="0442865d-26be-40dc-903e-fa04ff067af2" d="M1192,2692a25.91,25.91,0,1,0-25.92-25.91A25.91,25.91,0,0,0,1192,2692Z"/><path class="0442865d-26be-40dc-903e-fa04ff067af2" d="M997.66,2886.36a25.91,25.91,0,1,0-25.9-25.91A25.93,25.93,0,0,0,997.66,2886.36Z"/><path class="0442865d-26be-40dc-903e-fa04ff067af2" d="M997.66,2756.81a25.92,25.92,0,1,0-25.9-25.92A25.93,25.93,0,0,0,997.66,2756.81Z"/><path class="0442865d-26be-40dc-903e-fa04ff067af2" d="M1127.22,2627.24a25.91,25.91,0,1,0-25.9-25.91A25.92,25.92,0,0,0,1127.22,2627.24Z"/><path class="0442865d-26be-40dc-903e-fa04ff067af2" d="M997.66,2627.24a25.91,25.91,0,1,0-25.9-25.91A25.93,25.93,0,0,0,997.66,2627.24Z"/></g><g class="68eb3c09-9ef1-4233-ac95-ed7bc013467b"><path class="0442865d-26be-40dc-903e-fa04ff067af2" d="M1127.22,3145.49a25.91,25.91,0,1,0-25.9-25.91A25.93,25.93,0,0,0,1127.22,3145.49Z"/><path class="0442865d-26be-40dc-903e-fa04ff067af2" d="M1127.22,3015.93a25.92,25.92,0,1,0-25.9-25.92A25.93,25.93,0,0,0,1127.22,3015.93Z"/><path class="0442865d-26be-40dc-903e-fa04ff067af2" d="M1062.44,3080.7a25.91,25.91,0,1,0-25.91-25.91A25.93,25.93,0,0,0,1062.44,3080.7Z"/><path class="0442865d-26be-40dc-903e-fa04ff067af2" d="M1192,3080.7a25.91,25.91,0,1,0-25.92-25.91A25.91,25.91,0,0,0,1192,3080.7Z"/><path class="0442865d-26be-40dc-903e-fa04ff067af2" d="M1062.44,2951.14a25.91,25.91,0,1,0-25.91-25.91A25.92,25.92,0,0,0,1062.44,2951.14Z"/><path class="0442865d-26be-40dc-903e-fa04ff067af2" d="M1192,2951.14a25.91,25.91,0,1,0-25.92-25.91A25.91,25.91,0,0,0,1192,2951.14Z"/><path class="0442865d-26be-40dc-903e-fa04ff067af2" d="M997.66,3145.49a25.91,25.91,0,1,0-25.9-25.91A25.93,25.93,0,0,0,997.66,3145.49Z"/><path class="0442865d-26be-40dc-903e-fa04ff067af2" d="M997.66,3015.93a25.92,25.92,0,1,0-25.9-25.92A25.93,25.93,0,0,0,997.66,3015.93Z"/><path class="0442865d-26be-40dc-903e-fa04ff067af2" d="M1127.22,2886.36a25.91,25.91,0,1,0-25.9-25.91A25.92,25.92,0,0,0,1127.22,2886.36Z"/><path class="0442865d-26be-40dc-903e-fa04ff067af2" d="M997.66,2886.36a25.91,25.91,0,1,0-25.9-25.91A25.93,25.93,0,0,0,997.66,2886.36Z"/></g><g class="18b75ac3-a47d-4658-b1e0-f2abea520778"><path class="0442865d-26be-40dc-903e-fa04ff067af2" d="M997.65,2886.36a25.91,25.91,0,1,0-25.9-25.91A25.93,25.93,0,0,0,997.65,2886.36Z"/><path class="0442865d-26be-40dc-903e-fa04ff067af2" d="M868.11,2886.36a25.91,25.91,0,1,0-25.9-25.91A25.93,25.93,0,0,0,868.11,2886.36Z"/><path class="0442865d-26be-40dc-903e-fa04ff067af2" d="M997.65,2756.81a25.92,25.92,0,1,0-25.9-25.92A25.93,25.93,0,0,0,997.65,2756.81Z"/><path class="0442865d-26be-40dc-903e-fa04ff067af2" d="M868.11,2756.81a25.92,25.92,0,1,0-25.9-25.92A25.93,25.93,0,0,0,868.11,2756.81Z"/><path class="0442865d-26be-40dc-903e-fa04ff067af2" d="M803.33,2821.58a25.91,25.91,0,1,0-25.91-25.91A25.93,25.93,0,0,0,803.33,2821.58Z"/><path class="0442865d-26be-40dc-903e-fa04ff067af2" d="M932.88,2821.58A25.91,25.91,0,1,0,907,2795.67,25.91,25.91,0,0,0,932.88,2821.58Z"/><path class="0442865d-26be-40dc-903e-fa04ff067af2" d="M803.33,2692a25.91,25.91,0,1,0-25.91-25.91A25.92,25.92,0,0,0,803.33,2692Z"/><path class="0442865d-26be-40dc-903e-fa04ff067af2" d="M932.88,2692A25.91,25.91,0,1,0,907,2666.11,25.91,25.91,0,0,0,932.88,2692Z"/><path class="0442865d-26be-40dc-903e-fa04ff067af2" d="M738.54,2886.36a25.91,25.91,0,1,0-25.9-25.91A25.93,25.93,0,0,0,738.54,2886.36Z"/><path class="0442865d-26be-40dc-903e-fa04ff067af2" d="M738.54,2756.81a25.92,25.92,0,1,0-25.9-25.92A25.93,25.93,0,0,0,738.54,2756.81Z"/><path class="0442865d-26be-40dc-903e-fa04ff067af2" d="M997.65,2627.24a25.91,25.91,0,1,0-25.9-25.91A25.93,25.93,0,0,0,997.65,2627.24Z"/><path class="0442865d-26be-40dc-903e-fa04ff067af2" d="M868.11,2627.24a25.91,25.91,0,1,0-25.9-25.91A25.92,25.92,0,0,0,868.11,2627.24Z"/><path class="0442865d-26be-40dc-903e-fa04ff067af2" d="M738.54,2627.24a25.91,25.91,0,1,0-25.9-25.91A25.93,25.93,0,0,0,738.54,2627.24Z"/></g><g class="5c0dc98c-7940-4266-9d14-c3716c9408d8"><path class="0442865d-26be-40dc-903e-fa04ff067af2" d="M997.65,3145.49a25.91,25.91,0,1,0-25.9-25.91A25.93,25.93,0,0,0,997.65,3145.49Z"/><path class="0442865d-26be-40dc-903e-fa04ff067af2" d="M868.11,3145.49a25.91,25.91,0,1,0-25.9-25.91A25.93,25.93,0,0,0,868.11,3145.49Z"/><path class="0442865d-26be-40dc-903e-fa04ff067af2" d="M997.65,3015.93a25.92,25.92,0,1,0-25.9-25.92A25.93,25.93,0,0,0,997.65,3015.93Z"/><path class="0442865d-26be-40dc-903e-fa04ff067af2" d="M868.11,3015.93A25.92,25.92,0,1,0,842.2,2990,25.93,25.93,0,0,0,868.11,3015.93Z"/><path class="0442865d-26be-40dc-903e-fa04ff067af2" d="M803.33,3080.7a25.91,25.91,0,1,0-25.91-25.91A25.93,25.93,0,0,0,803.33,3080.7Z"/><path class="0442865d-26be-40dc-903e-fa04ff067af2" d="M932.88,3080.7A25.91,25.91,0,1,0,907,3054.79,25.91,25.91,0,0,0,932.88,3080.7Z"/><path class="0442865d-26be-40dc-903e-fa04ff067af2" d="M803.33,2951.14a25.91,25.91,0,1,0-25.91-25.91A25.92,25.92,0,0,0,803.33,2951.14Z"/><path class="0442865d-26be-40dc-903e-fa04ff067af2" d="M932.88,2951.14A25.91,25.91,0,1,0,907,2925.23,25.91,25.91,0,0,0,932.88,2951.14Z"/><path class="0442865d-26be-40dc-903e-fa04ff067af2" d="M738.54,3145.49a25.91,25.91,0,1,0-25.9-25.91A25.93,25.93,0,0,0,738.54,3145.49Z"/><path class="0442865d-26be-40dc-903e-fa04ff067af2" d="M738.54,3015.93a25.92,25.92,0,1,0-25.9-25.92A25.93,25.93,0,0,0,738.54,3015.93Z"/><path class="0442865d-26be-40dc-903e-fa04ff067af2" d="M997.65,2886.36a25.91,25.91,0,1,0-25.9-25.91A25.93,25.93,0,0,0,997.65,2886.36Z"/><path class="0442865d-26be-40dc-903e-fa04ff067af2" d="M868.11,2886.36a25.91,25.91,0,1,0-25.9-25.91A25.92,25.92,0,0,0,868.11,2886.36Z"/><path class="0442865d-26be-40dc-903e-fa04ff067af2" d="M738.54,2886.36a25.91,25.91,0,1,0-25.9-25.91A25.93,25.93,0,0,0,738.54,2886.36Z"/></g></g><polygon class="7964dc54-77ad-4539-bf93-e321cf7a09b9" points="805.91 3041.22 805.91 2632.47 1214.66 2632.47 805.91 3041.22"/><polygon class="0442865d-26be-40dc-903e-fa04ff067af2" points="817.29 2438.45 -3.22 2438.45 -3.22 2417.16 796 2417.16 796 1814.97 817.29 1814.97 817.29 2438.45"/><polygon class="0442865d-26be-40dc-903e-fa04ff067af2" points="1209.05 3257.82 796 3257.82 796 2427.81 817.29 2427.81 817.29 3236.53 1209.05 3236.53 1209.05 3257.82"/><rect class="0442865d-26be-40dc-903e-fa04ff067af2" x="386.68" y="2427.81" width="21.29" height="409.69"/><rect class="0442865d-26be-40dc-903e-fa04ff067af2" x="-10.85" y="2826.85" width="816.76" height="21.29"/><rect class="0442865d-26be-40dc-903e-fa04ff067af2" x="-10.85" y="3236.54" width="816.76" height="21.29"/><rect class="0442865d-26be-40dc-903e-fa04ff067af2" x="397.33" y="2724.15" width="408.58" height="21.29"/><rect class="0442865d-26be-40dc-903e-fa04ff067af2" x="385.95" y="3247.18" width="21.29" height="400.01"/><circle class="0442865d-26be-40dc-903e-fa04ff067af2" cx="192.37" cy="2632.76" r="158.01"/><path class="0442865d-26be-40dc-903e-fa04ff067af2" d="M192.37,2801.41c-93,0-168.65-75.66-168.65-168.65s75.66-168.65,168.65-168.65S361,2539.77,361,2632.76,285.37,2801.41,192.37,2801.41Zm0-316C111.12,2485.4,45,2551.51,45,2632.76s66.11,147.36,147.36,147.36S339.73,2714,339.73,2632.76,273.63,2485.4,192.37,2485.4Z"/><rect class="0442865d-26be-40dc-903e-fa04ff067af2" x="805.91" y="2621.82" width="403.14" height="21.29"/><rect class="0442865d-26be-40dc-903e-fa04ff067af2" x="805.91" y="3030.57" width="403.14" height="21.29"/><rect class="0442865d-26be-40dc-903e-fa04ff067af2" x="722.31" y="2828.07" width="574.09" height="21.29" transform="translate(-1711.64 1545.16) rotate(-45)"/><circle class="7964dc54-77ad-4539-bf93-e321cf7a09b9" cx="601.99" cy="3451.1" r="126.66"/><path class="0442865d-26be-40dc-903e-fa04ff067af2" d="M602,3588.41c-75.71,0-137.3-61.59-137.3-137.3s61.59-137.3,137.3-137.3,137.3,61.59,137.3,137.3S677.7,3588.41,602,3588.41Zm0-253.32a116,116,0,1,0,116,116A116.15,116.15,0,0,0,602,3335.09Z"/><circle class="7964dc54-77ad-4539-bf93-e321cf7a09b9" cx="908.28" cy="3451.1" r="126.66"/><path class="0442865d-26be-40dc-903e-fa04ff067af2" d="M908.28,3588.41c-75.71,0-137.3-61.59-137.3-137.3s61.59-137.3,137.3-137.3,137.3,61.59,137.3,137.3S984,3588.41,908.28,3588.41Zm0-253.32a116,116,0,1,0,116,116A116.15,116.15,0,0,0,908.28,3335.09Z"/><path class="7964dc54-77ad-4539-bf93-e321cf7a09b9" d="M1209,3577.76a126.66,126.66,0,0,1,0-253.32v253.32Z"/><path class="0442865d-26be-40dc-903e-fa04ff067af2" d="M1219.64,3588.41H1209c-75.71,0-137.3-61.59-137.3-137.3s61.59-137.3,137.3-137.3h10.64v274.61Zm-21.29-252.83a116,116,0,0,0,0,231.06V3335.57Z"/><rect class="0442865d-26be-40dc-903e-fa04ff067af2" x="-8.55" y="2837.49" width="10.64" height="409.69"/><rect class="0442865d-26be-40dc-903e-fa04ff067af2" x="45.44" y="2837.49" width="10.64" height="409.69"/><rect class="0442865d-26be-40dc-903e-fa04ff067af2" x="99.44" y="2837.49" width="10.64" height="409.69"/><rect class="0442865d-26be-40dc-903e-fa04ff067af2" x="153.43" y="2837.49" width="10.64" height="409.69"/><rect class="0442865d-26be-40dc-903e-fa04ff067af2" x="207.42" y="2837.49" width="10.64" height="409.69"/><rect class="0442865d-26be-40dc-903e-fa04ff067af2" x="261.41" y="2837.49" width="10.64" height="409.69"/><rect class="0442865d-26be-40dc-903e-fa04ff067af2" x="315.4" y="2837.49" width="10.64" height="409.69"/><rect class="0442865d-26be-40dc-903e-fa04ff067af2" x="369.39" y="2837.49" width="10.64" height="409.69"/><rect class="0442865d-26be-40dc-903e-fa04ff067af2" x="423.38" y="2837.49" width="10.64" height="409.69"/><rect class="0442865d-26be-40dc-903e-fa04ff067af2" x="477.38" y="2837.49" width="10.64" height="409.69"/><rect class="0442865d-26be-40dc-903e-fa04ff067af2" x="531.37" y="2837.49" width="10.64" height="409.69"/><rect class="0442865d-26be-40dc-903e-fa04ff067af2" x="585.36" y="2837.49" width="10.64" height="409.69"/><rect class="0442865d-26be-40dc-903e-fa04ff067af2" x="639.35" y="2837.49" width="10.64" height="409.69"/><rect class="0442865d-26be-40dc-903e-fa04ff067af2" x="693.34" y="2837.49" width="10.64" height="409.69"/><rect class="0442865d-26be-40dc-903e-fa04ff067af2" x="747.33" y="2837.49" width="10.64" height="409.69"/><rect class="0442865d-26be-40dc-903e-fa04ff067af2" x="801.32" y="2837.49" width="10.64" height="409.69"/><rect class="0442865d-26be-40dc-903e-fa04ff067af2" x="-3.37" y="2872.73" width="810.16" height="10.64"/><rect class="0442865d-26be-40dc-903e-fa04ff067af2" x="-3.37" y="2926.72" width="810.16" height="10.64"/><rect class="0442865d-26be-40dc-903e-fa04ff067af2" x="-3.37" y="2980.72" width="810.16" height="10.64"/><rect class="0442865d-26be-40dc-903e-fa04ff067af2" x="-3.37" y="3034.71" width="810.16" height="10.64"/><rect class="0442865d-26be-40dc-903e-fa04ff067af2" x="-3.37" y="3088.7" width="810.16" height="10.64"/><rect class="0442865d-26be-40dc-903e-fa04ff067af2" x="-3.37" y="3142.69" width="810.16" height="10.64"/><rect class="0442865d-26be-40dc-903e-fa04ff067af2" x="-3.37" y="3196.68" width="810.16" height="10.64"/><path class="7964dc54-77ad-4539-bf93-e321cf7a09b9" d="M918.16,3124.48a19.3,19.3,0,0,0-7.12-5.42,23.69,23.69,0,0,0-9.76-1.89,24.43,24.43,0,0,0-18.46,8.13,27.87,27.87,0,0,0-5.42,9.13,34.82,34.82,0,0,0,0,23,28.63,28.63,0,0,0,5.35,9.07,24.23,24.23,0,0,0,8,6,23.11,23.11,0,0,0,9.89,2.14,22.15,22.15,0,0,0,10.71-2.52A21.32,21.32,0,0,0,919,3165l16.38,12.22A34.11,34.11,0,0,1,921.06,3189a44.45,44.45,0,0,1-17.89,3.78,55,55,0,0,1-19.28-3.28,44.09,44.09,0,0,1-15.24-9.39,42.55,42.55,0,0,1-10-14.8,54.22,54.22,0,0,1,0-38.8,42.57,42.57,0,0,1,10-14.8,44.15,44.15,0,0,1,15.24-9.39,55,55,0,0,1,19.28-3.28,47.36,47.36,0,0,1,7.87.69,42.62,42.62,0,0,1,8.06,2.2,36,36,0,0,1,7.62,4,30.42,30.42,0,0,1,6.55,6.17Z"/><path class="0442865d-26be-40dc-903e-fa04ff067af2" d="M903.17,3197a59.45,59.45,0,0,1-20.76-3.54,48.51,48.51,0,0,1-16.69-10.29,47,47,0,0,1-11-16.26,58.46,58.46,0,0,1,0-42.06,47,47,0,0,1,11-16.26,48.57,48.57,0,0,1,16.69-10.29,59.44,59.44,0,0,1,20.76-3.54,51.92,51.92,0,0,1,8.58.75,47,47,0,0,1,8.87,2.43,40.38,40.38,0,0,1,8.52,4.5,34.79,34.79,0,0,1,7.47,7l2.61,3.29-21.66,17.69-2.7-3.28a15,15,0,0,0-5.57-4.24,19.61,19.61,0,0,0-8-1.52,20.18,20.18,0,0,0-8.51,1.76,20.47,20.47,0,0,0-6.79,5,23.77,23.77,0,0,0-4.58,7.76,30.57,30.57,0,0,0,0,20,24.53,24.53,0,0,0,4.55,7.74,19.82,19.82,0,0,0,6.61,4.95,18.74,18.74,0,0,0,8.09,1.74,17.83,17.83,0,0,0,8.68-2,17,17,0,0,0,6.17-5.67l2.49-3.74,23.32,17.4-2.42,3.39a38.46,38.46,0,0,1-16.13,13.15A48.88,48.88,0,0,1,903.17,3197Zm0-93.74a51,51,0,0,0-17.79,3,40.09,40.09,0,0,0-13.79,8.48,38.53,38.53,0,0,0-9,13.34,50,50,0,0,0,0,35.55,38.5,38.5,0,0,0,9,13.34,40.06,40.06,0,0,0,13.79,8.48,51,51,0,0,0,17.79,3,40.42,40.42,0,0,0,16.19-3.43,29.24,29.24,0,0,0,10-7l-9.53-7.11a25.35,25.35,0,0,1-6.41,4.93,26.45,26.45,0,0,1-12.73,3,27.46,27.46,0,0,1-11.69-2.54,28.58,28.58,0,0,1-9.39-7,33,33,0,0,1-6.16-10.41,39.05,39.05,0,0,1,0-26,32.23,32.23,0,0,1,6.25-10.51,28.68,28.68,0,0,1,21.62-9.53,28,28,0,0,1,11.5,2.26,23.82,23.82,0,0,1,5.68,3.56l8.63-7a25,25,0,0,0-2.78-2.23,31.88,31.88,0,0,0-6.72-3.56,38.57,38.57,0,0,0-7.26-2A43.34,43.34,0,0,0,903.17,3103.29Z"/><path class="0442865d-26be-40dc-903e-fa04ff067af2" d="M948.65,3101.3h29.48a84.22,84.22,0,0,1,20.35,2.39,46.58,46.58,0,0,1,16.82,7.75,38,38,0,0,1,11.4,13.92q4.22,8.57,4.22,20.79a42.42,42.42,0,0,1-4.09,19.09,41.05,41.05,0,0,1-11,13.86,48.72,48.72,0,0,1-16,8.5,62.11,62.11,0,0,1-19,2.9H948.65v-89.2Zm19.65,71.06h10.2a54.85,54.85,0,0,0,12.66-1.39,27.05,27.05,0,0,0,10.14-4.6,22.06,22.06,0,0,0,6.74-8.44,29.93,29.93,0,0,0,2.46-12.79,24.94,24.94,0,0,0-2.46-11.4,22.81,22.81,0,0,0-6.61-8,29,29,0,0,0-9.76-4.72,43.4,43.4,0,0,0-11.78-1.57H968.3v52.92Z"/><path class="0442865d-26be-40dc-903e-fa04ff067af2" d="M1034.95,3101.3h21.42l14.24,57.2h0.25l18.65-57.2h18.27l18.52,58.71h0.25l15-58.71h19.91l-26.08,89.2h-17.51l-19.65-61.73h-0.25l-19.65,61.73h-16.88Z"/><rect class="0442865d-26be-40dc-903e-fa04ff067af2" x="-5.59" y="1817.78" width="1224.82" height="21.15"/></svg>