<svg id="d0b09a00-e898-4c23-9d8f-3bbe7a0749c7" data-name="Layer 1" xmlns="http://www.w3.org/2000/svg" xmlns:xlink="http://www.w3.org/1999/xlink" viewBox="0 0 794.05 553.43"><defs><style>.\38 033c5db-9944-44bd-8a2b-6953fb9fc643{fill:none;}.d65d1457-3f87-4d76-a875-025d2d605adf{fill:#2e2a25;}.c4a2efc7-8055-4e91-9176-6dc10b7ca6c4{stroke:#2e2a25;stroke-miterlimit:10;stroke-width:20px;fill:url(#e068a8b5-2a84-47f1-896c-934dba10259b);}.\36 698d075-2463-46ab-b138-6b87c9eacbdc,.\36 86e1659-b44a-46ca-801e-a5c92397b49f{fill:#020202;}.\39 bc50467-f6ca-4dbb-9675-f78b6ee7f398{fill:#00adee;}.\37 c2bd532-435b-49d0-92c5-912caf4aa4fa{fill:#fff;}.\36 86e1659-b44a-46ca-801e-a5c92397b49f{fill-rule:evenodd;}</style><pattern id="e068a8b5-2a84-47f1-896c-934dba10259b" data-name="New Pattern Swatch 1" width="48" height="48" patternTransform="translate(91.31 68.61)" patternUnits="userSpaceOnUse" viewBox="0 0 48 48"><rect class="8033c5db-9944-44bd-8a2b-6953fb9fc643" width="48" height="48"/><circle class="d65d1457-3f87-4d76-a875-025d2d605adf" cx="24" cy="48" r="4.8"/><circle class="d65d1457-3f87-4d76-a875-025d2d605adf" cx="48" cy="48" r="4.8"/><circle class="d65d1457-3f87-4d76-a875-025d2d605adf" cx="24" cy="24" r="4.8"/><circle class="d65d1457-3f87-4d76-a875-025d2d605adf" cx="48" cy="24" r="4.8"/><circle class="d65d1457-3f87-4d76-a875-025d2d605adf" cx="36" cy="36" r="4.8"/><circle class="d65d1457-3f87-4d76-a875-025d2d605adf" cx="12" cy="36" r="4.8"/><circle class="d65d1457-3f87-4d76-a875-025d2d605adf" cx="36" cy="12" r="4.8"/><circle class="d65d1457-3f87-4d76-a875-025d2d605adf" cx="12" cy="12" r="4.8"/><circle class="d65d1457-3f87-4d76-a875-025d2d605adf" cy="48" r="4.8"/><circle class="d65d1457-3f87-4d76-a875-025d2d605adf" cy="24" r="4.8"/><circle class="d65d1457-3f87-4d76-a875-025d2d605adf" cx="24" r="4.8"/><circle class="d65d1457-3f87-4d76-a875-025d2d605adf" cx="48" r="4.8"/><circle class="d65d1457-3f87-4d76-a875-025d2d605adf" r="4.8"/></pattern></defs><title>logo-cdw-1</title><path class="d65d1457-3f87-4d76-a875-025d2d605adf" d="M252.36,401.75h7.89a15.65,15.65,0,0,1,3.12.3,7.11,7.11,0,0,1,2.56,1,5.23,5.23,0,0,1,1.74,2,6.78,6.78,0,0,1,.65,3.13,7.23,7.23,0,0,1-.6,3.12,5.13,5.13,0,0,1-1.65,2,6.69,6.69,0,0,1-2.49,1.07,14.6,14.6,0,0,1-3.12.31H257V423h-4.68V401.75Zm4.68,9h3.12a6,6,0,0,0,1.21-.12,3.21,3.21,0,0,0,1-.4,2.17,2.17,0,0,0,.75-0.78,2.46,2.46,0,0,0,.29-1.25,2.1,2.1,0,0,0-.37-1.3,2.5,2.5,0,0,0-1-.77,4.11,4.11,0,0,0-1.3-.34,13.4,13.4,0,0,0-1.38-.08H257v5Z"/><path class="d65d1457-3f87-4d76-a875-025d2d605adf" d="M277.86,401.75h8.22a14.51,14.51,0,0,1,3.08.32,7.29,7.29,0,0,1,2.55,1,5.24,5.24,0,0,1,1.74,2,6.71,6.71,0,0,1,.65,3.1,6.24,6.24,0,0,1-1.17,3.83,5.27,5.27,0,0,1-3.42,2l5.4,9h-5.61l-4.44-8.49h-2.31V423h-4.68V401.75Zm4.68,8.79h2.76q0.63,0,1.33,0a4.2,4.2,0,0,0,1.27-.27,2.21,2.21,0,0,0,.95-0.71,2.15,2.15,0,0,0,.38-1.35,2.24,2.24,0,0,0-.33-1.29,2.21,2.21,0,0,0-.84-0.73,3.75,3.75,0,0,0-1.17-.35,9.62,9.62,0,0,0-1.29-.09h-3.06v4.83Z"/><path class="d65d1457-3f87-4d76-a875-025d2d605adf" d="M304.07,401.75h14.43v4.32h-9.75v4H318v4.32h-9.21v4.32H319V423h-15V401.75Z"/><path class="d65d1457-3f87-4d76-a875-025d2d605adf" d="M339.9,406.94a3.34,3.34,0,0,0-1.54-1.07,5.55,5.55,0,0,0-1.85-.34,4.83,4.83,0,0,0-1,.12,4,4,0,0,0-1,.38,2.21,2.21,0,0,0-.78.67,1.71,1.71,0,0,0-.3,1,1.69,1.69,0,0,0,.72,1.47,6.83,6.83,0,0,0,1.81.87q1.1,0.36,2.36.72a9.75,9.75,0,0,1,2.36,1,5.58,5.58,0,0,1,1.81,1.77,5.39,5.39,0,0,1,.72,3,6.83,6.83,0,0,1-.66,3.09,6.27,6.27,0,0,1-1.79,2.19,7.6,7.6,0,0,1-2.61,1.29,11.5,11.5,0,0,1-3.13.42,11.37,11.37,0,0,1-3.84-.63,9.62,9.62,0,0,1-3.3-2l3.33-3.66a4.85,4.85,0,0,0,1.82,1.49,5.11,5.11,0,0,0,3.42.39,3.75,3.75,0,0,0,1-.41,2.27,2.27,0,0,0,.75-0.69,1.72,1.72,0,0,0,.29-1,1.8,1.8,0,0,0-.74-1.51,6.76,6.76,0,0,0-1.84-.95q-1.11-.39-2.4-0.78a10.73,10.73,0,0,1-2.4-1,5.76,5.76,0,0,1-1.84-1.74,5,5,0,0,1-.74-2.85,6.38,6.38,0,0,1,.67-3,6.52,6.52,0,0,1,1.8-2.16,7.82,7.82,0,0,1,2.6-1.3,10.61,10.61,0,0,1,3-.44,11.92,11.92,0,0,1,3.48.51,8,8,0,0,1,3,1.71Z"/><path class="d65d1457-3f87-4d76-a875-025d2d605adf" d="M353.39,401.75h14.43v4.32h-9.75v4h9.21v4.32h-9.21v4.32h10.29V423h-15V401.75Z"/><path class="d65d1457-3f87-4d76-a875-025d2d605adf" d="M378.71,401.75h6.36l9,14.76h0.06V401.75h4.68V423h-6.12l-9.27-15.12h-0.06V423h-4.68V401.75Z"/><path class="d65d1457-3f87-4d76-a875-025d2d605adf" d="M413.87,405.89h-6.06v-4.14h16.8v4.14h-6.06V423h-4.68v-17.1Z"/><path class="d65d1457-3f87-4d76-a875-025d2d605adf" d="M433.76,401.75h14.43v4.32h-9.75v4h9.21v4.32h-9.21v4.32h10.29V423h-15V401.75Z"/><path class="d65d1457-3f87-4d76-a875-025d2d605adf" d="M459.08,401.75h7a20,20,0,0,1,4.84.57,11.09,11.09,0,0,1,4,1.84,9,9,0,0,1,2.72,3.32,11.12,11.12,0,0,1,1,5,10.09,10.09,0,0,1-1,4.54,9.77,9.77,0,0,1-2.62,3.3,11.59,11.59,0,0,1-3.81,2,14.77,14.77,0,0,1-4.53.69h-7.65V401.75Zm4.68,16.92h2.43a13,13,0,0,0,3-.33,6.45,6.45,0,0,0,2.42-1.09,5.25,5.25,0,0,0,1.6-2,7.13,7.13,0,0,0,.58-3,5.94,5.94,0,0,0-.58-2.71,5.42,5.42,0,0,0-1.58-1.91,6.89,6.89,0,0,0-2.33-1.12,10.32,10.32,0,0,0-2.8-.37h-2.76v12.6Z"/><path class="d65d1457-3f87-4d76-a875-025d2d605adf" d="M503.93,401.75h7.92a20,20,0,0,1,2.77.2,7.56,7.56,0,0,1,2.5.78,4.8,4.8,0,0,1,1.8,1.63,5,5,0,0,1,.69,2.79,4.45,4.45,0,0,1-1,3,5.52,5.52,0,0,1-2.66,1.7v0.06a6.05,6.05,0,0,1,1.91.58,5.08,5.08,0,0,1,1.47,1.11,4.74,4.74,0,0,1,.95,1.58,5.54,5.54,0,0,1,.33,1.92,5.11,5.11,0,0,1-.72,2.8A5.67,5.67,0,0,1,518,421.7a8.17,8.17,0,0,1-2.57,1,13.71,13.71,0,0,1-2.83.3h-8.7V401.75Zm4.68,8.49H512a4.77,4.77,0,0,0,1.07-.12,3,3,0,0,0,.95-0.39,2,2,0,0,0,.67-0.72,2.16,2.16,0,0,0,.25-1.08,2,2,0,0,0-.29-1.1,2,2,0,0,0-.74-0.67,3.5,3.5,0,0,0-1-.34,6.1,6.1,0,0,0-1.11-.11h-3.18v4.53Zm0,8.79h4.2a5.17,5.17,0,0,0,1.09-.12,2.89,2.89,0,0,0,1-.42,2.39,2.39,0,0,0,.74-0.78,2.25,2.25,0,0,0,.29-1.17,1.88,1.88,0,0,0-.37-1.21,2.39,2.39,0,0,0-.95-0.71,4.85,4.85,0,0,0-1.23-.33,9.2,9.2,0,0,0-1.23-.09h-3.54V419Z"/><path class="d65d1457-3f87-4d76-a875-025d2d605adf" d="M535.19,413.93l-8-12.18H533l4.5,8,4.77-8h5.55l-8,12.18V423h-4.68v-9.06Z"/><path class="c4a2efc7-8055-4e91-9176-6dc10b7ca6c4" d="M168.7,74a48.54,48.54,0,0,0-17.9-13.62q-10.62-4.75-24.55-4.75A61.43,61.43,0,0,0,79.85,76,70.07,70.07,0,0,0,66.23,99a82.54,82.54,0,0,0-4.91,28.83,82.13,82.13,0,0,0,4.91,29,72,72,0,0,0,13.46,22.81,60.92,60.92,0,0,0,20.11,15,58.12,58.12,0,0,0,24.87,5.39q15.21,0,26.92-6.34A53.61,53.61,0,0,0,170.92,176l41.18,30.73A85.75,85.75,0,0,1,176,236.17a111.75,111.75,0,0,1-45,9.5q-26.3,0-48.47-8.24a110.86,110.86,0,0,1-38.33-23.6A107,107,0,0,1,19,176.62q-9-21.86-9-48.78t9-48.78A107,107,0,0,1,44.21,41.83a111,111,0,0,1,38.33-23.6Q104.71,10,131,10a119.1,119.1,0,0,1,19.8,1.74,107.2,107.2,0,0,1,20.27,5.54,90.47,90.47,0,0,1,19.16,10.14,76.44,76.44,0,0,1,16.47,15.52Z"/><path class="d65d1457-3f87-4d76-a875-025d2d605adf" d="M259,15.7h74.12a211.72,211.72,0,0,1,51.16,6q24.23,6,42.29,19.48a95.51,95.51,0,0,1,28.67,35q10.61,21.54,10.61,52.27,0,27.25-10.29,48a103.21,103.21,0,0,1-27.72,34.84,122.49,122.49,0,0,1-40.23,21.38A156.13,156.13,0,0,1,339.81,240H259V15.7Zm49.42,178.65h25.66a137.92,137.92,0,0,0,31.83-3.48,68,68,0,0,0,25.5-11.56,55.46,55.46,0,0,0,16.95-21.22q6.18-13.14,6.18-32.15,0-16.47-6.18-28.67a57.35,57.35,0,0,0-16.63-20.11,72.94,72.94,0,0,0-24.55-11.88,109.13,109.13,0,0,0-29.62-4H308.45v133Z"/><path class="d65d1457-3f87-4d76-a875-025d2d605adf" d="M476,15.7h53.85l35.79,143.81h0.63L613.18,15.7h45.93l46.56,147.61h0.63L744,15.7h50L728.48,240h-44L635,84.76H634.4L585,240H542.54Z"/><path class="d65d1457-3f87-4d76-a875-025d2d605adf" d="M47.54,310.4a5.35,5.35,0,0,0-2-1.5,6.57,6.57,0,0,0-2.71-.53,6.79,6.79,0,0,0-5.13,2.26,7.75,7.75,0,0,0-1.5,2.54,9.68,9.68,0,0,0,0,6.39,7.94,7.94,0,0,0,1.49,2.52,6.72,6.72,0,0,0,2.22,1.66,6.43,6.43,0,0,0,2.75.59,6.14,6.14,0,0,0,3-.7,5.91,5.91,0,0,0,2.13-2l4.55,3.4a9.48,9.48,0,0,1-4,3.25,12.35,12.35,0,0,1-5,1,15.27,15.27,0,0,1-5.35-.91,12.25,12.25,0,0,1-4.24-2.61A11.82,11.82,0,0,1,31,321.74,15.07,15.07,0,0,1,31,311a11.84,11.84,0,0,1,2.78-4.11A12.27,12.27,0,0,1,38,304.24a15.27,15.27,0,0,1,5.35-.91,13.15,13.15,0,0,1,2.19.19,11.89,11.89,0,0,1,2.24.61,10.06,10.06,0,0,1,2.12,1.12A8.48,8.48,0,0,1,51.74,307Z"/><path class="d65d1457-3f87-4d76-a875-025d2d605adf" d="M67.14,304H72.6v24.78H67.14V304Z"/><path class="d65d1457-3f87-4d76-a875-025d2d605adf" d="M89.47,304h7.42l10.53,17.22h0.07V304H113v24.78h-7.14L95,311.1H94.93v17.64H89.47V304Z"/><path class="d65d1457-3f87-4d76-a875-025d2d605adf" d="M146.1,310.4a5.35,5.35,0,0,0-2-1.5,6.57,6.57,0,0,0-2.71-.53,6.79,6.79,0,0,0-5.13,2.26,7.75,7.75,0,0,0-1.5,2.54,9.68,9.68,0,0,0,0,6.39,7.94,7.94,0,0,0,1.49,2.52,6.72,6.72,0,0,0,2.22,1.66,6.43,6.43,0,0,0,2.75.59,6.14,6.14,0,0,0,3-.7,5.91,5.91,0,0,0,2.13-2l4.55,3.4a9.48,9.48,0,0,1-4,3.25,12.35,12.35,0,0,1-5,1,15.27,15.27,0,0,1-5.35-.91,12.25,12.25,0,0,1-4.24-2.61,11.82,11.82,0,0,1-2.78-4.11,15.07,15.07,0,0,1,0-10.78,11.84,11.84,0,0,1,2.78-4.11,12.27,12.27,0,0,1,4.24-2.61,15.27,15.27,0,0,1,5.35-.91,13.15,13.15,0,0,1,2.19.19,11.89,11.89,0,0,1,2.24.61,10.06,10.06,0,0,1,2.12,1.12A8.48,8.48,0,0,1,150.3,307Z"/><path class="d65d1457-3f87-4d76-a875-025d2d605adf" d="M165.7,304h5.46v24.78H165.7V304Z"/><path class="d65d1457-3f87-4d76-a875-025d2d605adf" d="M188,304h7.42L206,321.18h0.07V304h5.46v24.78h-7.14L193.56,311.1h-0.07v17.64H188V304Z"/><path class="d65d1457-3f87-4d76-a875-025d2d605adf" d="M228.45,304h7.42l10.53,17.22h0.07V304h5.46v24.78H244.8L234,311.1h-0.07v17.64h-5.46V304Z"/><path class="d65d1457-3f87-4d76-a875-025d2d605adf" d="M277,304h4.52l10.78,24.78h-6.16L284,323.49h-9.62l-2.06,5.25h-6Zm2.1,7.21-3,7.7h6.06Z"/><path class="d65d1457-3f87-4d76-a875-025d2d605adf" d="M308.29,308.79h-7.07V304h19.6v4.83h-7.07v20h-5.46v-20Z"/><path class="d65d1457-3f87-4d76-a875-025d2d605adf" d="M335.41,304h5.46v24.78h-5.46V304Z"/><path class="d65d1457-3f87-4d76-a875-025d2d605adf" d="M383.5,304h8.19a23.42,23.42,0,0,1,5.65.67,12.94,12.94,0,0,1,4.67,2.15,10.54,10.54,0,0,1,3.17,3.87,13,13,0,0,1,1.17,5.77,11.79,11.79,0,0,1-1.14,5.3,11.4,11.4,0,0,1-3.06,3.85,13.53,13.53,0,0,1-4.44,2.36,17.26,17.26,0,0,1-5.29.8H383.5V304ZM389,323.7h2.83a15.24,15.24,0,0,0,3.52-.38,7.53,7.53,0,0,0,2.82-1.28,6.13,6.13,0,0,0,1.87-2.35,8.31,8.31,0,0,0,.68-3.55A6.93,6.93,0,0,0,400,313a6.34,6.34,0,0,0-1.84-2.22,8,8,0,0,0-2.71-1.31,12.08,12.08,0,0,0-3.27-.44H389v14.7Z"/><path class="d65d1457-3f87-4d76-a875-025d2d605adf" d="M422.18,304H439v5H427.64v4.62h10.74v5H427.64v5h12v5H422.18V304Z"/><path class="d65d1457-3f87-4d76-a875-025d2d605adf" d="M468.16,310a3.89,3.89,0,0,0-1.8-1.24,6.48,6.48,0,0,0-2.15-.4,5.67,5.67,0,0,0-1.23.14,4.75,4.75,0,0,0-1.19.44,2.6,2.6,0,0,0-.91.79,2,2,0,0,0-.35,1.19,2,2,0,0,0,.84,1.72,8,8,0,0,0,2.12,1q1.28,0.42,2.75.84a11.33,11.33,0,0,1,2.75,1.19,6.51,6.51,0,0,1,2.12,2.06,6.3,6.3,0,0,1,.84,3.46,8,8,0,0,1-.77,3.61,7.31,7.31,0,0,1-2.08,2.55,8.83,8.83,0,0,1-3,1.5,14,14,0,0,1-8.14-.25,11.2,11.2,0,0,1-3.85-2.38l3.88-4.27a5.67,5.67,0,0,0,2.12,1.73,6,6,0,0,0,4,.46,4.42,4.42,0,0,0,1.23-.47,2.65,2.65,0,0,0,.88-0.8,2,2,0,0,0,.33-1.16,2.1,2.1,0,0,0-.86-1.77,7.92,7.92,0,0,0-2.15-1.1q-1.29-.45-2.8-0.91a12.5,12.5,0,0,1-2.8-1.22,6.74,6.74,0,0,1-2.15-2,5.81,5.81,0,0,1-.86-3.33,7.44,7.44,0,0,1,.79-3.5,7.59,7.59,0,0,1,2.1-2.52,9.12,9.12,0,0,1,3-1.52,12.41,12.41,0,0,1,3.54-.51,13.91,13.91,0,0,1,4.06.59,9.39,9.39,0,0,1,3.53,2Z"/><path class="d65d1457-3f87-4d76-a875-025d2d605adf" d="M487.83,304h5.46v24.78h-5.46V304Z"/><path class="d65d1457-3f87-4d76-a875-025d2d605adf" d="M532.6,327a19.77,19.77,0,0,1-5,1.82,25.62,25.62,0,0,1-5.36.56,15.27,15.27,0,0,1-5.35-.91,12.25,12.25,0,0,1-4.24-2.61,11.82,11.82,0,0,1-2.78-4.11,15.07,15.07,0,0,1,0-10.78,11.84,11.84,0,0,1,2.78-4.11,12.27,12.27,0,0,1,4.24-2.61,15.27,15.27,0,0,1,5.35-.91,19.81,19.81,0,0,1,5.48.72,10.72,10.72,0,0,1,4.39,2.47l-3.85,4.2A7.69,7.69,0,0,0,525.7,309a9,9,0,0,0-3.5-.59A8.11,8.11,0,0,0,519,309a7.12,7.12,0,0,0-2.43,1.66,7.3,7.3,0,0,0-1.56,2.54,9.68,9.68,0,0,0,0,6.39,7.32,7.32,0,0,0,1.56,2.52,7.09,7.09,0,0,0,2.43,1.66,8.11,8.11,0,0,0,3.17.59,10.43,10.43,0,0,0,3.08-.4,11.64,11.64,0,0,0,2.07-.82v-4H522.9v-5h9.7v13Z"/><path class="d65d1457-3f87-4d76-a875-025d2d605adf" d="M549.29,304h7.42l10.53,17.22h0.07V304h5.46v24.78h-7.14L554.82,311.1h-0.07v17.64h-5.46V304Z"/><path class="d65d1457-3f87-4d76-a875-025d2d605adf" d="M612.89,304h6l4,15.89h0.07L628,304h5.08l5.14,16.31h0.07L642.5,304H648l-7.25,24.78h-4.87l-5.46-17.15h-0.07l-5.46,17.15h-4.69Z"/><path class="d65d1457-3f87-4d76-a875-025d2d605adf" d="M662.59,304h16.83v5H668v4.62h10.74v5H668v5h12v5H662.59V304Z"/><path class="d65d1457-3f87-4d76-a875-025d2d605adf" d="M696.54,304h16.83v5H702v4.62h10.74v5H702v5h12v5H696.54V304Z"/><path class="d65d1457-3f87-4d76-a875-025d2d605adf" d="M730.49,304h5.46v10.29L745.57,304h7.14l-11,11.52,12,13.26H746L735.95,317v11.76h-5.46V304Z"/><path class="6698d075-2463-46ab-b138-6b87c9eacbdc" d="M291.17,491.68a15.91,15.91,0,0,1,11,4.14l-2.92,5.58a10.83,10.83,0,0,0-8.11-3.62,9.15,9.15,0,0,0-.09,18.3,11.23,11.23,0,0,0,8.58-3.88l3,5.67a16.57,16.57,0,0,1-11.5,4.31A15.25,15.25,0,1,1,291.17,491.68Z"/><path class="6698d075-2463-46ab-b138-6b87c9eacbdc" d="M308.51,490.46a3.68,3.68,0,1,1,0,7.36A3.68,3.68,0,0,1,308.51,490.46Zm2.88,9.94v21.79h-5.75V500.4h5.75Z"/><path class="6698d075-2463-46ab-b138-6b87c9eacbdc" d="M329.12,499.88c5.1,0,7.71,3.31,7.71,8.8v13.51h-5.88V510.11c0-3.27-1.53-4.7-4-4.7-3.36,0-4.75,2.48-4.75,6.36v10.42h-5.75V500.4h5.58v3.14A8.41,8.41,0,0,1,329.12,499.88Z"/><path class="6698d075-2463-46ab-b138-6b87c9eacbdc" d="M351.34,499.88a11.43,11.43,0,0,1,8.28,3.18l-3.27,4.62a6.89,6.89,0,0,0-5-2.18,5.8,5.8,0,0,0,0,11.59,7.16,7.16,0,0,0,5.14-2.22l3.18,4.62a11.69,11.69,0,0,1-8.41,3.22c-6.67,0-11.55-4.49-11.55-11.42S344.63,499.88,351.34,499.88Z"/><path class="6698d075-2463-46ab-b138-6b87c9eacbdc" d="M365.85,490.46a3.68,3.68,0,1,1,0,7.36A3.68,3.68,0,0,1,365.85,490.46Zm2.88,9.94v21.79H363V500.4h5.75Z"/><path class="6698d075-2463-46ab-b138-6b87c9eacbdc" d="M386.46,499.88c5.1,0,7.71,3.31,7.71,8.8v13.51h-5.88V510.11c0-3.27-1.53-4.7-4-4.7-3.36,0-4.75,2.48-4.75,6.36v10.42h-5.75V500.4h5.58v3.14A8.41,8.41,0,0,1,386.46,499.88Z"/><path class="6698d075-2463-46ab-b138-6b87c9eacbdc" d="M410.6,499.88c5.1,0,7.71,3.31,7.71,8.8v13.51h-5.88V510.11c0-3.27-1.53-4.7-4-4.7-3.36,0-4.75,2.48-4.75,6.36v10.42H398V500.4h5.58v3.14A8.41,8.41,0,0,1,410.6,499.88Z"/><path class="6698d075-2463-46ab-b138-6b87c9eacbdc" d="M431.77,499.92c6.36,0,9.54,2.79,9.54,8.85v13.47h-5.75v-3a7.7,7.7,0,0,1-6.71,3.4c-4.31,0-7.36-2.79-7.36-6.8s3-6.45,7-6.84l6-.52c0.83-.09,1.13-0.35,1.13-0.87v-0.35c0-1.26-1.22-2.18-3.79-2.18-2.27,0-4.62.7-5.45,2.79l-4.27-3.05C423.49,501.58,427,499.92,431.77,499.92Zm3.79,12.59-5.4.65c-1.79.26-2.7,1.18-2.7,2.4,0,1.39,1.09,2.31,3.09,2.31,3.05,0,5-2.09,5-4.49v-0.87Z"/><path class="6698d075-2463-46ab-b138-6b87c9eacbdc" d="M453.43,522.41c-4.05,0-6.41-1.92-6.41-6.89V505.24h-4V500.4h4v-5.84h5.75v5.84h5.53v4.84h-5.53v9.46c0,1.39.7,2,2.18,2a17.94,17.94,0,0,0,3.18-.35v5.45A20.67,20.67,0,0,1,453.43,522.41Z"/><path class="6698d075-2463-46ab-b138-6b87c9eacbdc" d="M465.15,490.46a3.68,3.68,0,1,1,0,7.36A3.68,3.68,0,0,1,465.15,490.46ZM468,500.4v21.79h-5.75V500.4H468Z"/><rect class="9bc50467-f6ca-4dbb-9675-f78b6ee7f398" x="192.88" y="471.05" width="71.85" height="71.85"/><path class="7c2bd532-435b-49d0-92c5-912caf4aa4fa" d="M223.41,499.2a1.1,1.1,0,0,0-.69.75c-0.08.26-3.38,14.17-3.43,14.41a0.52,0.52,0,0,0,.28.73c0.38,0.16,2.26.82,2.41,0.88s0.11,0.15,0,.15h-8.09c-0.15,0-.23,0-0.08-0.11s2-.72,2.12-0.78a1.2,1.2,0,0,0,.78-0.65c0.08-.3,3.48-14.28,3.54-14.55a0.61,0.61,0,0,0-.36-0.83l-2.36-.82c-0.11,0-.11-0.11,0-0.11H226c0.1,0,.18.07,0.06,0.1l-1.67.49c-0.16.05-.67,0.21-0.93,0.33"/><path class="7c2bd532-435b-49d0-92c5-912caf4aa4fa" d="M239.81,515a19.73,19.73,0,0,1-5.82,1.25c-7,.19-9.62-4.73-8.41-9.21a11.84,11.84,0,0,1,4.13-6.12,15.09,15.09,0,0,1,8.82-2.95,21.08,21.08,0,0,1,4.46.5,0.63,0.63,0,0,1,.56.92c0,0.15-1.7,5.13-1.75,5.25s-0.23.19-.23,0,0.21-4.53.2-4.71a0.72,0.72,0,0,0-.52-0.91,11.89,11.89,0,0,0-6.74.65c-4.28,2-6.77,6.61-6.26,10.27a6.5,6.5,0,0,0,6.65,5.6,8.31,8.31,0,0,0,2.34-.23,0.63,0.63,0,0,0,.52-0.45c0.07-.22.72-2.93,0.74-3a0.41,0.41,0,0,0-.2-0.61l-4-1.09c-0.18,0-.1-0.14,0-0.14h6.52c0.26,0,1-.06.77,0.59s-1.18,3.77-1.26,4a0.75,0.75,0,0,1-.51.43"/><path class="7c2bd532-435b-49d0-92c5-912caf4aa4fa" d="M208.61,507.31c0,0.37-.15.57-0.75,0.57h-4.25c-0.66,0-.64-0.37-0.39-0.63s4.7-5.06,4.87-5.26c0.31-.36.6-0.34,0.6,0.15s-0.08,4.93-.08,5.18m4.92,8.71c-0.2-.08-1.76-0.75-2.17-0.94a0.85,0.85,0,0,1-.49-0.83c0-.25.23-16.4,0.16-16.53a0.12,0.12,0,0,0-.21,0C210.56,498,195,515,194.68,515.14A7.41,7.41,0,0,1,193,516l-0.08,0v0.13h8.33c0.11,0,.14-0.1,0-0.12-0.61-.12-3.26-0.67-3.72-0.81s-0.49-.39-0.31-0.63,4.34-5.42,4.65-5.65a1.53,1.53,0,0,1,1.21-.34c0.21,0,1.46,0,2.66,0,1,0,2,.1,2.25.13a0.58,0.58,0,0,1,.56.75c0,0.22-.18,4-0.2,4.67s-0.13.76-.56,0.91c-0.21.06-3,1-3.13,1s0,0.06,0,.06h8.73c0.13,0,.18-0.07.1-0.11"/><path class="7c2bd532-435b-49d0-92c5-912caf4aa4fa" d="M256.45,507.31c0,0.37-.16.57-0.76,0.57h-4.26c-0.65,0-.64-0.37-0.39-0.63s4.71-5.06,4.87-5.26c0.33-.36.6-0.34,0.6,0.15s-0.07,4.93-.07,5.18m4.92,8.71c-0.2-.08-1.75-0.75-2.17-0.94a0.83,0.83,0,0,1-.49-0.83c0-.25.23-16.4,0.16-16.53a0.12,0.12,0,0,0-.21,0C258.4,498,242.8,515,242.5,515.14a8.45,8.45,0,0,1-1.71.87c-0.06,0-.06.12,0,0.12H249c0.11,0,.13-0.1.05-0.12-0.61-.12-3.26-0.67-3.72-0.81s-0.49-.39-0.33-0.63,4.36-5.42,4.65-5.65a1.59,1.59,0,0,1,1.23-.34c0.22,0,1.46,0,2.66,0,1,0,2,.1,2.25.13a0.58,0.58,0,0,1,.56.75c0,0.22-.18,4-0.2,4.67s-0.13.76-.56,0.91c-0.23.06-3,1-3.13,1s0,0.06,0,.06h8.74c0.13,0,.18-0.07.1-0.11"/><path class="686e1659-b44a-46ca-801e-a5c92397b49f" d="M588.2,460.5h22.29V520c0,0.17-15.26-35.15-22.29-51.44V460.5h0Zm0,59.5h3.43c0.17,0-1.37-3.26-3.43-7.89V520h0Zm-3.43-59.5h3.43v8.06c-2.06-4.8-3.43-8.06-3.43-8.06h0Zm3.43,51.61V520h-6.86c0-.17-5-12-5-12h-10.8v-1.37c2.23-5,10.29-23.66,10.12-23.49,0,0,7.89,18.17,12.52,29h0ZM565.56,462V460.5h0.51L565.56,462h0Zm0-1.54V462c-3.77,9.09-24.18,58-24.18,58V460.5h24.18Zm0,46.12a2.89,2.89,0,0,1-.69,1.37h0.69v-1.37h0Z"/><path class="686e1659-b44a-46ca-801e-a5c92397b49f" d="M605.34,553.43V550h0c0.86,0,1.72-.17,2.06-2.06H611c-0.86,5.14-3.77,5.49-5.66,5.49h0Zm0-7.89v-2.92h2.23c-0.17-3.43-1-4.11-2.23-4.11h0v-3.43h0.17c2.4,0,5.66,1.37,5.66,9.6v0.86h-5.83Zm0-10.46v3.43c-2.06.17-2.23,2.91-2.23,4.11h2.23v2.92h-2.23c0,3.94,1.2,4.46,2.23,4.46v3.43h-0.17c-2.06,0-5.83-.69-5.83-9.09,0-5.83,2.4-9.09,6-9.26h0Zm-13.72,18.35V550h0c1.89,0,2.23-3.09,2.23-5.66,0-4.8-1.37-5.83-2.23-5.83h0v-3.26a1.55,1.55,0,0,1,.86-0.17c3.77,0,5.14,3.94,5.14,9.09,0,5.32-1.37,9.26-5.14,9.26h-0.86Zm0-18.17v3.26c-1,0-2.4,1-2.4,5.83,0,2.23.34,5.66,2.4,5.66v3.43a4,4,0,0,1-2.4-2.57h-0.17v2.06H585.8V529.26h3.6v7.89a3,3,0,0,1,2.23-1.89h0Zm-14.06,18.17V550c1.54,0,2.4-1.37,2.4-5.66,0-4.63-1-5.83-2.4-5.83v-3.43c4.11,0,5.83,3.94,5.83,9.26s-1.71,9.09-5.83,9.09h0Zm0-18.35v3.43c-1,0-2.23.86-2.23,5.83s1.2,5.66,2.23,5.66v3.43c-4.12,0-6-3.77-6-9.09s1.89-9.26,6-9.26h0Zm-14.23,18.35v-3.26h0c2.06,0,2.4-3.26,2.4-5.83,0-4.8-1.37-5.83-2.4-5.83h0v-3.26a3.93,3.93,0,0,1,2.23,1.71v-7.72h3.6v23.66h-3.26v-2.06h-0.17a4.46,4.46,0,0,1-2.4,2.57h0Zm-12-24.18,5.49,23.66h-3.94L552,548.46h-2.57v-3.94h1.72l-1.72-8.92v-6.34h1.89Zm12,6v3.26c-0.86.17-2.23,1-2.23,5.83,0,2.23.34,5.66,2.23,5.83v3.26h-0.86c-3.6,0-5.14-4.11-5.14-9.26,0-4.29,1.2-9.09,5.14-9.09a1.28,1.28,0,0,1,.86.17h0Zm-13.89,13.2H547l-1,4.46h-3.94l5.49-23.66h1.89v6.52l-1.71,8.74h1.71v3.94h0Z"/></svg>