<svg id="_31d412ea-1b5f-41cb-b427-8859186d6760" data-name=" 31d412ea-1b5f-41cb-b427-8859186d6760" xmlns="http://www.w3.org/2000/svg" viewBox="0 0 789.13 542.15"><defs><style>.cls-1{fill:#d6cec0;}.cls-2{fill:#00adee;}.cls-3{fill:#fff;}.cls-4{fill:#2e2a25;}.cls-5{fill:$sage;}.cls-6{fill:#faaf40;}</style></defs><title>logo-cdw-Artboard 1</title><path class="cls-1" d="M247,401h7.89a15.65,15.65,0,0,1,3.12.3,7.11,7.11,0,0,1,2.56,1,5.23,5.23,0,0,1,1.74,2,6.78,6.78,0,0,1,.65,3.13,7.23,7.23,0,0,1-.6,3.15,5.13,5.13,0,0,1-1.65,2,6.69,6.69,0,0,1-2.49,1.07,14.6,14.6,0,0,1-3.12.31h-3.42v8.28H247Zm4.68,9h3.12a6,6,0,0,0,1.21-.12,3.21,3.21,0,0,0,1-.4,2.17,2.17,0,0,0,.75-.78,2.46,2.46,0,0,0,.29-1.25,2.1,2.1,0,0,0-.37-1.3,2.5,2.5,0,0,0-1-.77,4.11,4.11,0,0,0-1.3-.34,13.4,13.4,0,0,0-1.38,0h-2.4v5Z"/><path class="cls-1" d="M272.53,401h8.22a14.51,14.51,0,0,1,3.08.32,7.29,7.29,0,0,1,2.55,1,5.24,5.24,0,0,1,1.74,2,6.71,6.71,0,0,1,.65,3.1,6.24,6.24,0,0,1-1.17,3.83,5.27,5.27,0,0,1-3.42,2l5.4,9H284l-4.44-8.49h-2.31v8.49h-4.68V401Zm4.68,8.79h4.09a4.2,4.2,0,0,0,1.27-.27,2.21,2.21,0,0,0,1-.71,2.15,2.15,0,0,0,.38-1.35,2.24,2.24,0,0,0-.33-1.29,2.21,2.21,0,0,0-.84-.73,3.75,3.75,0,0,0-1.17-.35,9.62,9.62,0,0,0-1.29-.09h-3.06v4.79Z"/><path class="cls-1" d="M298.74,401h14.43v4.32h-9.78v4h9.21v4.26h-9.21v4.32h10.29v4.32h-15V401Z"/><path class="cls-1" d="M334.57,406.19a3.34,3.34,0,0,0-1.54-1.07,5.55,5.55,0,0,0-1.85-.34,4.83,4.83,0,0,0-1,.12,4,4,0,0,0-1,.38,2.21,2.21,0,0,0-.78.67,1.71,1.71,0,0,0-.3,1,1.69,1.69,0,0,0,.72,1.47,6.83,6.83,0,0,0,1.81.87q1.1.36,2.36.72a9.75,9.75,0,0,1,2.36,1,5.58,5.58,0,0,1,1.81,1.77,5.39,5.39,0,0,1,.72,3,6.83,6.83,0,0,1-.66,3.09,6.27,6.27,0,0,1-1.79,2.19,7.6,7.6,0,0,1-2.61,1.29,11.5,11.5,0,0,1-3.13.42,11.37,11.37,0,0,1-3.84-.63,9.62,9.62,0,0,1-3.3-2l3.33-3.66A4.85,4.85,0,0,0,327.7,418a5.11,5.11,0,0,0,3.42.39,3.75,3.75,0,0,0,1-.41,2.27,2.27,0,0,0,.75-.69,1.72,1.72,0,0,0,.29-1,1.8,1.8,0,0,0-.74-1.51,6.76,6.76,0,0,0-1.84-1q-1.11-.39-2.4-.78a10.73,10.73,0,0,1-2.4-1,5.76,5.76,0,0,1-1.84-1.74,5,5,0,0,1-.74-2.85,6.38,6.38,0,0,1,.67-3,6.52,6.52,0,0,1,1.8-2.16,7.82,7.82,0,0,1,2.6-1.3,10.61,10.61,0,0,1,3-.44,11.92,11.92,0,0,1,3.48.51,8,8,0,0,1,3,1.71Z"/><path class="cls-1" d="M348.06,401h14.43v4.32h-9.75v4h9.21v4.26h-9.21v4.32H363v4.32H348V401Z"/><path class="cls-1" d="M373.39,401h6.36l9,14.76h.06V401h4.68v21.24h-6.1l-9.27-15.12h-.06v15.12h-4.67Z"/><path class="cls-1" d="M408.54,405.14h-6.06V401h16.8v4.14h-6.06v17.1h-4.68Z"/><path class="cls-1" d="M428.39,401h14.43v4.32h-9.75v4h9.21v4.26h-9.21v4.32h10.32v4.32h-15Z"/><path class="cls-1" d="M453.75,401h7a20,20,0,0,1,4.84.57,11.09,11.09,0,0,1,4,1.84,9,9,0,0,1,2.72,3.32,11.12,11.12,0,0,1,1,5,10.09,10.09,0,0,1-1,4.54,9.77,9.77,0,0,1-2.62,3.3,11.59,11.59,0,0,1-3.81,2,14.77,14.77,0,0,1-4.53.69H453.7V401Zm4.64,16.92h2.43a13,13,0,0,0,3-.33,6.45,6.45,0,0,0,2.42-1.09,5.25,5.25,0,0,0,1.6-2,7.13,7.13,0,0,0,.58-3,5.94,5.94,0,0,0-.58-2.71,5.42,5.42,0,0,0-1.58-1.91,6.89,6.89,0,0,0-2.33-1.12,10.32,10.32,0,0,0-2.8-.37h-2.74v12.53Z"/><path class="cls-1" d="M498.6,401h7.92a20,20,0,0,1,2.77.2,7.56,7.56,0,0,1,2.5.78,4.8,4.8,0,0,1,1.8,1.63,5,5,0,0,1,.69,2.79,4.45,4.45,0,0,1-1,3,5.52,5.52,0,0,1-2.66,1.7v.06a6,6,0,0,1,1.91.58,5.08,5.08,0,0,1,1.47,1.11,4.74,4.74,0,0,1,1,1.58,5.54,5.54,0,0,1,.33,1.92,5.11,5.11,0,0,1-.72,2.8A5.67,5.67,0,0,1,512.7,421a8.17,8.17,0,0,1-2.57,1,13.71,13.71,0,0,1-2.83.3h-8.7Zm4.68,8.49h3.39a4.77,4.77,0,0,0,1.07-.12,3,3,0,0,0,1-.39,2,2,0,0,0,.67-.72,2.16,2.16,0,0,0,.25-1.08,1.88,1.88,0,0,0-1-1.77,3.5,3.5,0,0,0-1-.34,6.1,6.1,0,0,0-1.11-.11h-3.18v4.53Zm0,8.79h4.2a5.17,5.17,0,0,0,1.09-.12,2.89,2.89,0,0,0,1-.42,2.39,2.39,0,0,0,.74-.78,2.25,2.25,0,0,0,.29-1.17,1.88,1.88,0,0,0-.37-1.21,2.39,2.39,0,0,0-1-.71,4.85,4.85,0,0,0-1.23-.33,9.2,9.2,0,0,0-1.23-.09h-3.54v4.83Z"/><path class="cls-1" d="M529.86,413.18l-8-12.18h5.82l4.5,8,4.77-8h5.55l-8,12.18v9.06h-4.68v-9.06Z"/><path d="M165.4,490.94a15.91,15.91,0,0,1,11,4.14l-2.92,5.58a10.83,10.83,0,0,0-8.11-3.62,9.15,9.15,0,0,0-.09,18.3,11.23,11.23,0,0,0,8.58-3.88l3,5.67a16.57,16.57,0,0,1-11.5,4.31,15.25,15.25,0,0,1,0-30.5Z"/><path d="M182.74,489.72a3.68,3.68,0,0,1,0,7.36h0a3.68,3.68,0,0,1,0-7.36Zm2.88,9.94v21.79h-5.75v-21.8h5.75Z"/><path d="M203.35,499.13c5.1,0,7.71,3.31,7.71,8.8v13.51h-5.88V509.37c0-3.27-1.53-4.7-4-4.7-3.36,0-4.75,2.48-4.75,6.36v10.42h-5.75v-21.8h5.58v3.14A8.41,8.41,0,0,1,203.35,499.13Z"/><path d="M225.57,499.13a11.43,11.43,0,0,1,8.28,3.18l-3.27,4.62a6.89,6.89,0,0,0-5-2.18,5.8,5.8,0,0,0,0,11.59,7.16,7.16,0,0,0,5.14-2.22l3.18,4.62a11.69,11.69,0,0,1-8.41,3.22c-6.67,0-11.55-4.49-11.55-11.42S218.86,499.13,225.57,499.13Z"/><path d="M240.08,489.72a3.68,3.68,0,0,1,0,7.36h0a3.68,3.68,0,0,1,0-7.36Zm2.88,9.94v21.79h-5.75v-21.8H243Z"/><path d="M260.69,499.13c5.1,0,7.71,3.31,7.71,8.8v13.51h-5.88V509.37c0-3.27-1.53-4.7-4-4.7-3.36,0-4.75,2.48-4.75,6.36v10.42H248v-21.8h5.58v3.14A8.41,8.41,0,0,1,260.69,499.13Z"/><path d="M284.83,499.13c5.1,0,7.71,3.31,7.71,8.8v13.51h-5.88V509.37c0-3.27-1.53-4.7-4-4.7-3.36,0-4.75,2.48-4.75,6.36v10.42h-5.75v-21.8h5.58v3.14A8.41,8.41,0,0,1,284.83,499.13Z"/><path d="M306,499.17c6.36,0,9.54,2.79,9.54,8.85v13.46h-5.75v-3a7.7,7.7,0,0,1-6.71,3.4c-4.31,0-7.36-2.79-7.36-6.8s3-6.45,7-6.84l6-.52c.83-.09,1.13-.35,1.13-.87v-.27c0-1.26-1.22-2.18-3.79-2.18-2.27,0-4.62.7-5.45,2.79l-4.27-3C297.72,500.83,301.25,499.17,306,499.17Zm3.79,12.59-5.4.65c-1.79.26-2.7,1.18-2.7,2.4,0,1.39,1.09,2.31,3.09,2.31,3,0,5-2.09,5-4.49v-.87Z"/><path d="M327.66,521.66c-4,0-6.41-1.92-6.41-6.89V504.49h-4v-4.84h4v-5.84H327v5.84h5.53v4.84H327V514c0,1.39.7,2,2.18,2a17.94,17.94,0,0,0,3.18-.35v5.45A20.67,20.67,0,0,1,327.66,521.66Z"/><path d="M339.38,489.72a3.68,3.68,0,0,1,0,7.36h0a3.68,3.68,0,0,1,0-7.36Zm2.88,9.94v21.79h-5.75v-21.8h5.75Z"/><rect class="cls-2" x="67.1" y="470.3" width="71.85" height="71.85"/><path class="cls-3" d="M97.64,498.46a1.1,1.1,0,0,0-.69.75c-.08.26-3.38,14.17-3.43,14.41a.52.52,0,0,0,.22.7h.06c.38.16,2.26.82,2.41.88s.11.15,0,.15H88.12c-.15,0-.23,0-.08-.11s2-.72,2.12-.78a1.2,1.2,0,0,0,.78-.65c.08-.3,3.48-14.28,3.54-14.55a.61.61,0,0,0-.3-.81h-.06l-2.36-.82c-.11,0-.11-.11,0-.11h8.49c.1,0,.18.07.06.1l-1.67.49a4,4,0,0,0-.93.33"/><path class="cls-3" d="M114,514.28a19.73,19.73,0,0,1-5.82,1.25c-7,.19-9.62-4.73-8.41-9.21a11.84,11.84,0,0,1,4.13-6.12,15.09,15.09,0,0,1,8.82-3,21.08,21.08,0,0,1,4.46.5.63.63,0,0,1,.56.92c0,.15-1.7,5.13-1.75,5.25s-.23.19-.23,0,.21-4.53.2-4.71a.72.72,0,0,0-.48-.9h0a11.89,11.89,0,0,0-6.74.65c-4.28,2-6.77,6.61-6.26,10.27a6.5,6.5,0,0,0,6.65,5.6,8.31,8.31,0,0,0,2.34-.23.63.63,0,0,0,.52-.45c.07-.22.72-2.93.74-3a.41.41,0,0,0-.12-.57h-.08l-4-1.09c-.18,0-.1-.14,0-.14H115c.26,0,1-.06.77.59s-1.18,3.77-1.26,4a.75.75,0,0,1-.51.43"/><path class="cls-3" d="M82.84,506.58c0,.37-.15.57-.75.57H77.84c-.66,0-.64-.37-.39-.63s4.7-5.06,4.87-5.26c.31-.36.6-.34.6.15s-.08,4.93-.08,5.18m4.92,8.71c-.2-.08-1.76-.75-2.17-.94a.85.85,0,0,1-.49-.83c0-.25.23-16.4.16-16.53a.12.12,0,0,0-.16,0h0c-.26.26-15.87,17.26-16.15,17.44a7.41,7.41,0,0,1-1.72.84H67.1v.13h8.33c.11,0,.14-.1,0-.12-.61-.12-3.26-.67-3.72-.81s-.49-.39-.31-.63,4.34-5.42,4.65-5.65a1.53,1.53,0,0,1,1.21-.34h2.66a21.71,21.71,0,0,1,2.25.13.58.58,0,0,1,.56.75c0,.22-.18,4-.2,4.67s-.13.76-.56.91c-.21.06-3,1-3.13,1s0,.06,0,.06h8.73c.13,0,.18-.07.1-.11"/><path class="cls-3" d="M130.68,506.58c0,.37-.16.57-.76.57h-4.26c-.65,0-.64-.37-.39-.63s4.71-5.06,4.87-5.26c.33-.36.6-.34.6.15s-.07,4.93-.07,5.18m4.92,8.71-2.17-.94a.83.83,0,0,1-.49-.83c0-.25.23-16.4.16-16.53a.12.12,0,0,0-.16,0h0c-.26.26-15.86,17.26-16.16,17.44a8.45,8.45,0,0,1-1.71.87c-.06,0-.06.12,0,.12h8.23c.11,0,.13-.1.05-.12-.61-.12-3.26-.67-3.72-.81s-.49-.39-.33-.63,4.36-5.42,4.65-5.65a1.59,1.59,0,0,1,1.23-.34h2.66A21.7,21.7,0,0,1,130,508a.58.58,0,0,1,.56.75c0,.22-.18,4-.2,4.67s-.13.76-.56.91c-.23.06-3,1-3.13,1s0,.06,0,.06h8.74c.13,0,.18-.07.1-.11"/><path class="cls-4" d="M44.79,309.08a5.35,5.35,0,0,0-2-1.5,6.56,6.56,0,0,0-2.7-.52A6.77,6.77,0,0,0,35,309.31a7.74,7.74,0,0,0-1.5,2.53,9.64,9.64,0,0,0,0,6.37,7.94,7.94,0,0,0,1.5,2.51,6.72,6.72,0,0,0,2.22,1.66A6.41,6.41,0,0,0,40,323a6.14,6.14,0,0,0,3-.7,5.91,5.91,0,0,0,2.13-2l4.54,3.38a9.44,9.44,0,0,1-4,3.25,12.3,12.3,0,0,1-5,1,15.22,15.22,0,0,1-5.34-.91,12.19,12.19,0,0,1-4.22-2.6,11.78,11.78,0,0,1-2.77-4.1,15,15,0,0,1,0-10.75,11.79,11.79,0,0,1,2.77-4.1,12.23,12.23,0,0,1,4.22-2.6,15.22,15.22,0,0,1,5.34-.91,13.15,13.15,0,0,1,2.18.19,11.92,11.92,0,0,1,2.23.61,10,10,0,0,1,2.11,1.12A8.43,8.43,0,0,1,49,305.56Z"/><path class="cls-4" d="M64.33,302.66h5.44v24.71H64.33Z"/><path class="cls-4" d="M86.6,302.66H94l10.5,17.17h.07V302.66H110v24.71h-7.12L92.11,309.78H92v17.59H86.6Z"/><path class="cls-4" d="M143.06,309.08a5.35,5.35,0,0,0-2-1.5,6.56,6.56,0,0,0-2.7-.52,6.77,6.77,0,0,0-5.11,2.25,7.74,7.74,0,0,0-1.5,2.53,9.64,9.64,0,0,0,0,6.37,7.94,7.94,0,0,0,1.48,2.51,6.72,6.72,0,0,0,2.22,1.66,6.41,6.41,0,0,0,2.74.59,6.14,6.14,0,0,0,3-.7,5.91,5.91,0,0,0,2.13-2l4.54,3.38a9.44,9.44,0,0,1-4,3.25,12.3,12.3,0,0,1-5,1,15.22,15.22,0,0,1-5.34-.91,12.19,12.19,0,0,1-4.22-2.6,11.78,11.78,0,0,1-2.77-4.1,15,15,0,0,1,0-10.75,11.79,11.79,0,0,1,2.86-4,12.23,12.23,0,0,1,4.22-2.6,15.22,15.22,0,0,1,5.34-.91,13.15,13.15,0,0,1,2.18.19,11.92,11.92,0,0,1,2.23.61,10,10,0,0,1,2.11,1.12,8.43,8.43,0,0,1,1.81,1.71Z"/><path class="cls-4" d="M162.61,302.66h5.44v24.71h-5.44Z"/><path class="cls-4" d="M184.87,302.66h7.4l10.5,17.17h.07V302.66h5.44v24.71h-7.12l-10.77-17.59h-.07v17.59h-5.44V302.66Z"/><path class="cls-4" d="M225.18,302.66h7.4l10.5,17.17h.07V302.66h5.44v24.71h-7.12l-10.78-17.59h-.07v17.59h-5.44Z"/><path class="cls-4" d="M273.62,302.66h4.5l10.75,24.71h-6.14l-2.13-5.23H271l-2.06,5.23h-6Zm2.09,7.19-3,7.68h6Z"/><path class="cls-4" d="M304.78,307.47h-7v-4.82h19.54v4.82h-7v19.89h-5.44V307.47Z"/><path class="cls-4" d="M331.83,302.66h5.44v24.71h-5.44Z"/><path class="cls-4" d="M379.77,302.66h8.17a23.3,23.3,0,0,1,5.64.66,12.91,12.91,0,0,1,4.66,2.15,10.53,10.53,0,0,1,3.16,3.86,12.92,12.92,0,0,1,1.17,5.76,11.74,11.74,0,0,1-1.13,5.29,11.36,11.36,0,0,1-3,3.84,13.51,13.51,0,0,1-4.43,2.36,17.22,17.22,0,0,1-5.27.8h-8.9V302.66Zm5.44,19.68H388a15.2,15.2,0,0,0,3.51-.38,7.49,7.49,0,0,0,2.84-1.28,6.1,6.1,0,0,0,1.87-2.34,8.28,8.28,0,0,0,.68-3.54,6.89,6.89,0,0,0-.68-3.16,6.3,6.3,0,0,0-1.83-2.22,8,8,0,0,0-2.7-1.31,12,12,0,0,0-3.26-.44h-3.21v14.66Z"/><path class="cls-4" d="M418.34,302.66h16.79v5H423.78v4.61h10.71v5H423.78v5h12v5H418.34Z"/><path class="cls-4" d="M464.19,308.69a3.88,3.88,0,0,0-1.8-1.24,6.45,6.45,0,0,0-2.15-.4,5.66,5.66,0,0,0-1.22.14,4.69,4.69,0,0,0-1.19.44,2.59,2.59,0,0,0-.91.78,2.18,2.18,0,0,0,.49,2.9,7.94,7.94,0,0,0,2.11,1q1.27.42,2.74.84a11.3,11.3,0,0,1,2.74,1.19,6.48,6.48,0,0,1,2.11,2.06,6.27,6.27,0,0,1,.84,3.45,8,8,0,0,1-.77,3.59A7.29,7.29,0,0,1,465.1,326a8.83,8.83,0,0,1-3,1.5,13.36,13.36,0,0,1-3.65.49,13.21,13.21,0,0,1-4.47-.73,11.17,11.17,0,0,1-3.84-2.37l3.87-4.26a5.65,5.65,0,0,0,2.11,1.73,5.91,5.91,0,0,0,4,.45,4.42,4.42,0,0,0,1.22-.47,2.64,2.64,0,0,0,.87-.8,2,2,0,0,0,.33-1.15,2.09,2.09,0,0,0-.86-1.76,7.92,7.92,0,0,0-2.15-1.1q-1.29-.45-2.79-.91a12.54,12.54,0,0,1-2.79-1.22,6.74,6.74,0,0,1-2.15-2,5.79,5.79,0,0,1-.85-3.32,7.42,7.42,0,0,1,.78-3.49,7.58,7.58,0,0,1,2.09-2.51,9.12,9.12,0,0,1,3-1.52,12.38,12.38,0,0,1,3.53-.51,13.86,13.86,0,0,1,4,.59,9.36,9.36,0,0,1,3.53,2Z"/><path class="cls-4" d="M483.81,302.66h5.44v24.71h-5.44Z"/><path class="cls-4" d="M528.44,325.58a19.7,19.7,0,0,1-5,1.81,25.61,25.61,0,0,1-5.34.56,15.22,15.22,0,0,1-5.34-.91,12.19,12.19,0,0,1-4.22-2.6,11.78,11.78,0,0,1-2.77-4.1,15,15,0,0,1,0-10.75,11.79,11.79,0,0,1,2.77-4.1,12.23,12.23,0,0,1,4.22-2.6,15.22,15.22,0,0,1,5.34-.91,19.81,19.81,0,0,1,5.46.71,10.71,10.71,0,0,1,4.38,2.46l-3.84,4.19a7.67,7.67,0,0,0-2.51-1.74,9,9,0,0,0-3.49-.59,8.09,8.09,0,0,0-3.16.59,7.08,7.08,0,0,0-2.42,1.66,7.28,7.28,0,0,0-1.55,2.53,9.64,9.64,0,0,0,0,6.37,7.31,7.31,0,0,0,1.55,2.51,7.08,7.08,0,0,0,2.42,1.66,8.09,8.09,0,0,0,3.16.59,10.42,10.42,0,0,0,3.07-.4,11.58,11.58,0,0,0,2.06-.82v-4H518.8v-5h9.67v12.88Z"/><path class="cls-4" d="M545.09,302.66h7.4L563,319.83h.07V302.66h5.44v24.71H561.4l-10.8-17.59h-.07v17.59h-5.44Z"/><path class="cls-4" d="M608.5,302.66h5.89l4,15.84h.07l5.17-15.84h5.06l5.13,16.26h.07L638,302.66h5.51l-7.22,24.71h-4.85L626,310.27h0l-5.44,17.1h-4.68Z"/><path class="cls-4" d="M658,302.66h16.79v5H663.5v4.61h10.71v5H663.5v5h12v5H658Z"/><path class="cls-4" d="M691.9,302.66h16.79v5h-11.3v4.61H708.1v5H697.39v5h12v5H691.9Z"/><path class="cls-4" d="M725.75,302.66h5.44v10.26l9.6-10.26h7.12l-11,11.48,11.94,13.23h-7.61l-10-11.73v11.73H725.8V302.66Z"/><path class="cls-5" d="M167.66,73.53A48.24,48.24,0,0,0,149.87,60q-10.55-4.72-24.4-4.72a61,61,0,0,0-46.08,20.3A69.64,69.64,0,0,0,65.82,98.4a82,82,0,0,0-4.88,28.65,81.62,81.62,0,0,0,4.88,28.8A71.52,71.52,0,0,0,79.2,178.52a60.54,60.54,0,0,0,20,15,57.76,57.76,0,0,0,24.71,5.35q15.11,0,26.76-6.3a53.27,53.27,0,0,0,19.2-17.63l40.92,30.54a85.22,85.22,0,0,1-35.89,29.28,111.05,111.05,0,0,1-44.7,9.44A137.32,137.32,0,0,1,82,236a110.17,110.17,0,0,1-38.09-23.45,106.31,106.31,0,0,1-25-37q-9-21.72-9-48.48t9-48.48a106.37,106.37,0,0,1,25-37A110.33,110.33,0,0,1,82,18.12a137.33,137.33,0,0,1,48.2-8.18,118.36,118.36,0,0,1,19.68,1.73A106.54,106.54,0,0,1,170,17.18a89.91,89.91,0,0,1,19,10.07,76,76,0,0,1,16.36,15.43Z"/><path class="cls-4" d="M130.19,254.09a147.82,147.82,0,0,1-51.63-8.81,120.55,120.55,0,0,1-41.47-25.57,116.65,116.65,0,0,1-27.36-40.4C3.28,163.69,0,146.1,0,127S3.27,90.39,9.73,74.77A116.71,116.71,0,0,1,37.09,34.38,120.72,120.72,0,0,1,78.57,8.81,147.87,147.87,0,0,1,130.19,0a128.77,128.77,0,0,1,21.33,1.87,116.94,116.94,0,0,1,22,6A100.27,100.27,0,0,1,194.67,19a86.29,86.29,0,0,1,18.51,17.43l6.09,7.68-53,43.31L160,79.82A38.09,38.09,0,0,0,145.81,69a49.69,49.69,0,0,0-20.34-3.85,51.11,51.11,0,0,0-38.74,17A60.1,60.1,0,0,0,75.14,101.8,72.52,72.52,0,0,0,70.87,127a72.13,72.13,0,0,0,4.25,25.32,62,62,0,0,0,11.51,19.56,50.29,50.29,0,0,0,16.76,12.57,48.17,48.17,0,0,0,20.52,4.42c8.48,0,15.69-1.67,22-5.1a43.08,43.08,0,0,0,15.66-14.4l5.81-8.72,57.12,42.62-5.66,7.92a95.41,95.41,0,0,1-40,32.61A121.45,121.45,0,0,1,130.19,254.09Zm0-234.21a128.1,128.1,0,0,0-44.7,7.56,101,101,0,0,0-34.7,21.34A97,97,0,0,0,28.1,82.36c-5.46,13.22-8.22,28.22-8.22,44.68s2.77,31.48,8.22,44.69a96.94,96.94,0,0,0,22.69,33.58,100.8,100.8,0,0,0,34.7,21.34,128.06,128.06,0,0,0,44.71,7.56,101.67,101.67,0,0,0,40.73-8.63,73.7,73.7,0,0,0,25.66-18.35l-24.94-18.61a62.66,62.66,0,0,1-16.26,12.65c-9.19,5-19.78,7.49-31.48,7.49A67.9,67.9,0,0,1,95,202.48,70.72,70.72,0,0,1,71.76,185.1a81.73,81.73,0,0,1-15.25-25.78A91.89,91.89,0,0,1,51,127a92.28,92.28,0,0,1,5.5-32.09,79.84,79.84,0,0,1,15.5-26,71,71,0,0,1,53.5-23.59A69.31,69.31,0,0,1,154,50.95a58.75,58.75,0,0,1,14.45,9.15L191,41.58a63.64,63.64,0,0,0-7.63-6.15,80.45,80.45,0,0,0-16.94-9,97,97,0,0,0-18.27-5,108.88,108.88,0,0,0-18-1.55Z"/><path class="cls-4" d="M257.39,15.58h73.66a210.41,210.41,0,0,1,50.84,6q24.08,6,42,19.36a94.91,94.91,0,0,1,28.49,34.79q10.54,21.41,10.55,51.94,0,27.08-10.23,47.69A102.57,102.57,0,0,1,425.16,210a121.73,121.73,0,0,1-40,21.25,155.16,155.16,0,0,1-47.53,7.24H257.39ZM306.5,193.13H332a137.06,137.06,0,0,0,31.64-3.46A67.6,67.6,0,0,0,389,178.18a55.12,55.12,0,0,0,16.84-21.09Q412,144,412,125.09q0-16.36-6.14-28.49a57,57,0,0,0-16.53-20,72.48,72.48,0,0,0-24.4-11.81,108.45,108.45,0,0,0-29.43-3.93h-29V193.13Z"/><path class="cls-4" d="M473.07,15.58h53.52L562.16,158.5h.63l46.6-142.92H655l46.28,146.7H702l37.44-146.7h49.74L724,238.48H680.21L631.1,84.23h-.63L581.39,238.48H539.18Z"/><path class="cls-6" d="M487.25,503a2.76,2.76,0,0,0-2.74,2.74v11a2.76,2.76,0,0,0,5.52,0v-11A2.77,2.77,0,0,0,487.25,503Z"/><path class="cls-6" d="M472.08,496.09a2.76,2.76,0,0,0-2.73,2.74v17.88a2.76,2.76,0,0,0,5.51,0V498.84A2.77,2.77,0,0,0,472.08,496.09Z"/><path class="cls-6" d="M502.43,503a2.76,2.76,0,0,0-2.74,2.74v2.87a.23.23,0,0,0,.22.24h5a.24.24,0,0,0,.24-.24v-2.87A2.77,2.77,0,0,0,502.43,503Z"/><path class="cls-6" d="M682.47,503a2.76,2.76,0,0,0-2.74,2.74v2.87a.24.24,0,0,0,.23.24h5a.24.24,0,0,0,.24-.24v-2.87A2.77,2.77,0,0,0,682.47,503Z"/><path class="cls-6" d="M637.42,511.89h-2.64a2.78,2.78,0,0,0-2.63,2.72v2.09a2.76,2.76,0,0,0,5.51,0v-4.59A.24.24,0,0,0,637.42,511.89Z"/><path class="cls-6" d="M701.81,473.9h-250a6.46,6.46,0,0,0-6.44,6.44v52.09a6.46,6.46,0,0,0,6.44,6.44h62.3c12.46-.3,13.66-7,13.66-13.54v-22H526.3a.24.24,0,0,1-.24-.24v-2.62a.24.24,0,0,1,.24-.24h1.47v-1a5.83,5.83,0,0,1,5.82-5.84h7.63s.23,3.1-2.51,3.1h-5.12a2.74,2.74,0,0,0-2.73,2.74v1h4a.24.24,0,0,1,.24.24v2.62a.24.24,0,0,1-.24.24h-4v22c0,6.57,1.13,13.25,13.68,13.54H701.81a6.47,6.47,0,0,0,6.45-6.44V480.34A6.47,6.47,0,0,0,701.81,473.9ZM477.92,516.71a5.82,5.82,0,0,1-11.64,0V498.84a5.82,5.82,0,0,1,11.64,0Zm15.17,0a5.88,5.88,0,0,1-8.58,5.15v1.07h0v5.87a.24.24,0,0,1-.24.24H481.7a.24.24,0,0,1-.24-.24V500.44a.24.24,0,0,1,.24-.24H483c.13,0,.22.06.34.24s.12.17.39.62a5.73,5.73,0,0,1,3.52-1.18,5.81,5.81,0,0,1,5.84,5.78s0,0,0,.05Zm15.17-6.22v1.15a.24.24,0,0,1-.24.24h-8.34v4.82a2.76,2.76,0,0,0,5.52,0v-1.54a.23.23,0,0,1,.22-.24H508a.24.24,0,0,1,.24.24v1.54a5.82,5.82,0,0,1-11.64,0v-11a5.82,5.82,0,0,1,11.64,0Zm15.17-3.44V522a.24.24,0,0,1-.23.24h-2.6a.23.23,0,0,1-.23-.23h0V505.72a2.77,2.77,0,0,0-5.53,0V522a.24.24,0,0,1-.24.24H512a.24.24,0,0,1-.24-.24V500.44a.24.24,0,0,1,.24-.24h1.31c.13,0,.22.06.34.24s.12.17.39.62a5.74,5.74,0,0,1,3.52-1.18,5.81,5.81,0,0,1,5.84,5.78s0,0,0,.05ZM541.28,522a.24.24,0,0,1-.24.24h-2.62a.24.24,0,0,1-.24-.24V500.44a.24.24,0,0,1,.24-.24H541a.24.24,0,0,1,.24.24Zm15.51-11.46v1.15a.24.24,0,0,1-.24.24h-8.34v4.82a2.76,2.76,0,1,0,5.52,0v-1.54a.23.23,0,0,1,.22-.24h2.6a.24.24,0,0,1,.24.24v1.54a5.83,5.83,0,0,1-11.65,0v-11a5.83,5.83,0,0,1,11.65,0Zm7,11.46a.24.24,0,0,1-.24.24h-2.62a.24.24,0,0,1-.24-.24V493.6a.24.24,0,0,1,.24-.24h2.62a.24.24,0,0,1,.24.24Zm15.5-28.35V522a.24.24,0,0,1-.24.24h-1.31c-.13,0-.23-.06-.35-.24s-.12-.17-.39-.62a5.76,5.76,0,0,1-3.56,1.22,5.83,5.83,0,0,1-5.8-5.84v-11a5.81,5.81,0,0,1,5.79-5.83h0a5.92,5.92,0,0,1,2.74.67v-7a.25.25,0,0,1,0-.12v-.12h3.07Zm21.48,5.58v3.89a.24.24,0,0,1-.24.24H598a.24.24,0,0,1-.24-.24v-4.23a2.76,2.76,0,0,0-5.52,0v17.88a2.76,2.76,0,1,0,5.52,0h0v-4.24a.24.24,0,0,1,.24-.24h2.57a.24.24,0,0,1,.24.24v4.24a5.82,5.82,0,0,1-11.64,0V498.84a5.82,5.82,0,0,1,11.64,0Zm11.75,3.89a.24.24,0,0,1-.24.24h-2.14a2.77,2.77,0,0,0-2.77,2.74v15.13h0V522a.24.24,0,0,1-.24.24h-2.59a.23.23,0,0,1-.23-.23h0V500.44a.24.24,0,0,1,.24-.24h1.31c.13,0,.22.06.34.24s.12.17.54.87a5.79,5.79,0,0,1,3.37-1.11h2.18a.23.23,0,0,1,.24.22h0Zm13.07,7.43v1.15a.24.24,0,0,1-.23.24H617v4.82a2.76,2.76,0,0,0,5.51,0v-1.54a.23.23,0,0,1,.22-.24h2.61a.23.23,0,0,1,.23.23h0v1.54a5.82,5.82,0,1,1-11.64,0v-11a5.82,5.82,0,0,1,11.64,0Zm15.17,5.68c0,5.82-4.47,6.37-5.84,6.37a5.83,5.83,0,0,1-5.8-5.84v-2.09a5.81,5.81,0,0,1,5.82-5.8h2.76v-3.1a2.76,2.76,0,0,0-5.51,0v.82h0V507a.24.24,0,0,1-.24.24h-2.59a.24.24,0,0,1-.23-.24v-1.27a5.82,5.82,0,0,1,11.64,0ZM653.33,503a.24.24,0,0,1-.24.24h-4.91v13.09a2.73,2.73,0,0,0,2.72,2.74h2.18a.23.23,0,0,1,.24.22s0,0,0,0V522a.24.24,0,0,1-.24.24h-2.17a5.84,5.84,0,0,1-5.83-5.84V503.26h-1.46a.24.24,0,0,1-.24-.24v-2.59a.23.23,0,0,1,.23-.23h1.47V497a.24.24,0,0,1,.24-.24h2.62a.24.24,0,0,1,.24.24v3.18h4.91a.23.23,0,0,1,.24.22h0Zm6.09,19a.24.24,0,0,1-.24.24h-2.62a.24.24,0,0,1-.24-.24V500.44a.24.24,0,0,1,.24-.24h2.62a.24.24,0,0,1,.24.24Zm15.43-21.51-.27,1.16h0L669.68,522h0a.24.24,0,0,1-.24.24h-1.73a.23.23,0,0,1-.23-.23h0l-5.06-21h0l-.12-.52c0-.17.1-.24.24-.24h2.55a.29.29,0,0,1,.33.24h0l3.15,13.86,2.92-12.7h0l.25-1.16a.29.29,0,0,1,.33-.24h2.54c.14,0,.29,0,.24.2Zm13.46,10v1.15a.24.24,0,0,1-.24.24h-8.34v4.82a2.76,2.76,0,0,0,5.52,0v-1.54a.23.23,0,0,1,.22-.24h2.6a.23.23,0,0,1,.24.22s0,0,0,0v1.54a5.82,5.82,0,0,1-11.64,0h0v-11a5.82,5.82,0,1,1,11.64,0Z"/><path class="cls-6" d="M619.71,503a2.76,2.76,0,0,0-2.74,2.74v2.87a.23.23,0,0,0,.22.24h5a.24.24,0,0,0,.24-.24v-2.87A2.77,2.77,0,0,0,619.71,503Z"/><path class="cls-6" d="M573.4,503a2.76,2.76,0,0,0-2.74,2.74v11a2.76,2.76,0,0,0,5.51,0v-11A2.77,2.77,0,0,0,573.4,503Z"/><path class="cls-6" d="M550.94,503a2.76,2.76,0,0,0-2.74,2.74v2.87a.23.23,0,0,0,.22.24h5a.24.24,0,0,0,.24-.24v-2.87A2.77,2.77,0,0,0,550.94,503Z"/></svg>