<svg id="625b9c77-5f59-4f9b-916d-ad3e6e0b2d32" data-name="Layer 1" xmlns="http://www.w3.org/2000/svg" viewBox="0 0 789.59 552.76"><defs><style>.db4e4be6-7ded-4ece-b383-94d725d21f9c{fill:#2e2a25;}.\33 a764d8d-de54-4b8c-93b2-5265f8185c32,.f976a4ac-eafe-45c8-b485-c5e2541ee3af{fill:#020202;}.c832189b-350a-4a2f-bcfd-33619a3605c9{fill:#00adee;}.\34 de29dd0-44c1-4c38-b151-708110b15dc5{fill:#fff;}.f976a4ac-eafe-45c8-b485-c5e2541ee3af{fill-rule:evenodd;}.\34 b444f27-86b8-4d59-8066-b192eea0f088{fill:#ffb547;}</style></defs><title>logo-cdw-4</title><path class="db4e4be6-7ded-4ece-b383-94d725d21f9c" d="M249.64,401.42h7.89a15.65,15.65,0,0,1,3.12.3,7.11,7.11,0,0,1,2.56,1,5.23,5.23,0,0,1,1.74,2,6.78,6.78,0,0,1,.65,3.13A7.23,7.23,0,0,1,265,411a5.13,5.13,0,0,1-1.65,2,6.69,6.69,0,0,1-2.49,1.07,14.6,14.6,0,0,1-3.12.31h-3.42v8.28h-4.68V401.42Zm4.68,9h3.12a6,6,0,0,0,1.21-.12,3.21,3.21,0,0,0,1-.4,2.17,2.17,0,0,0,.75-0.78,2.46,2.46,0,0,0,.29-1.25,2.1,2.1,0,0,0-.37-1.3,2.5,2.5,0,0,0-1-.77,4.11,4.11,0,0,0-1.3-.34,13.4,13.4,0,0,0-1.38-.08h-2.4v5Z" transform="translate(-2.61 -0.35)"/><path class="db4e4be6-7ded-4ece-b383-94d725d21f9c" d="M275.14,401.42h8.22a14.51,14.51,0,0,1,3.08.32,7.29,7.29,0,0,1,2.55,1,5.24,5.24,0,0,1,1.74,2,6.71,6.71,0,0,1,.65,3.1,6.24,6.24,0,0,1-1.17,3.83,5.27,5.27,0,0,1-3.42,2l5.4,9h-5.61l-4.44-8.49h-2.31v8.49h-4.68V401.42Zm4.68,8.79h2.76q0.63,0,1.33,0a4.2,4.2,0,0,0,1.27-.27,2.21,2.21,0,0,0,.95-0.71,2.15,2.15,0,0,0,.38-1.35,2.24,2.24,0,0,0-.33-1.29,2.21,2.21,0,0,0-.84-0.73,3.75,3.75,0,0,0-1.17-.35,9.62,9.62,0,0,0-1.29-.09h-3.06v4.83Z" transform="translate(-2.61 -0.35)"/><path class="db4e4be6-7ded-4ece-b383-94d725d21f9c" d="M301.35,401.42h14.43v4.32H306v4h9.21V414H306v4.32h10.29v4.32h-15V401.42Z" transform="translate(-2.61 -0.35)"/><path class="db4e4be6-7ded-4ece-b383-94d725d21f9c" d="M337.18,406.61a3.34,3.34,0,0,0-1.54-1.07,5.55,5.55,0,0,0-1.85-.34,4.83,4.83,0,0,0-1,.12,4,4,0,0,0-1,.38,2.21,2.21,0,0,0-.78.67,1.71,1.71,0,0,0-.3,1,1.69,1.69,0,0,0,.72,1.47,6.83,6.83,0,0,0,1.81.87q1.1,0.36,2.36.72a9.75,9.75,0,0,1,2.36,1,5.58,5.58,0,0,1,1.81,1.77,5.39,5.39,0,0,1,.72,3,6.83,6.83,0,0,1-.66,3.09,6.27,6.27,0,0,1-1.79,2.19,7.6,7.6,0,0,1-2.61,1.29,11.5,11.5,0,0,1-3.13.42,11.37,11.37,0,0,1-3.84-.63,9.62,9.62,0,0,1-3.3-2l3.33-3.66a4.85,4.85,0,0,0,1.82,1.49,5.11,5.11,0,0,0,3.42.39,3.75,3.75,0,0,0,1-.41,2.27,2.27,0,0,0,.75-0.69,1.72,1.72,0,0,0,.29-1,1.8,1.8,0,0,0-.74-1.51,6.76,6.76,0,0,0-1.84-.95q-1.11-.39-2.4-0.78a10.73,10.73,0,0,1-2.4-1,5.76,5.76,0,0,1-1.84-1.74,5,5,0,0,1-.74-2.85,6.38,6.38,0,0,1,.67-3,6.52,6.52,0,0,1,1.8-2.16,7.82,7.82,0,0,1,2.6-1.3,10.61,10.61,0,0,1,3-.44,11.92,11.92,0,0,1,3.48.51,8,8,0,0,1,3,1.71Z" transform="translate(-2.61 -0.35)"/><path class="db4e4be6-7ded-4ece-b383-94d725d21f9c" d="M350.67,401.42H365.1v4.32h-9.75v4h9.21V414h-9.21v4.32h10.29v4.32h-15V401.42Z" transform="translate(-2.61 -0.35)"/><path class="db4e4be6-7ded-4ece-b383-94d725d21f9c" d="M376,401.42h6.36l9,14.76h0.06V401.42h4.68v21.24H390l-9.27-15.12h-0.06v15.12H376V401.42Z" transform="translate(-2.61 -0.35)"/><path class="db4e4be6-7ded-4ece-b383-94d725d21f9c" d="M411.15,405.56h-6.06v-4.14h16.8v4.14h-6.06v17.1h-4.68v-17.1Z" transform="translate(-2.61 -0.35)"/><path class="db4e4be6-7ded-4ece-b383-94d725d21f9c" d="M431,401.42h14.43v4.32h-9.75v4h9.21V414h-9.21v4.32H446v4.32H431V401.42Z" transform="translate(-2.61 -0.35)"/><path class="db4e4be6-7ded-4ece-b383-94d725d21f9c" d="M456.36,401.42h7a20,20,0,0,1,4.84.57,11.09,11.09,0,0,1,4,1.84,9,9,0,0,1,2.72,3.32,11.12,11.12,0,0,1,1,5,10.09,10.09,0,0,1-1,4.54,9.77,9.77,0,0,1-2.62,3.3,11.59,11.59,0,0,1-3.81,2,14.77,14.77,0,0,1-4.53.69h-7.65V401.42ZM461,418.34h2.43a13,13,0,0,0,3-.33,6.45,6.45,0,0,0,2.42-1.09,5.25,5.25,0,0,0,1.6-2,7.13,7.13,0,0,0,.58-3,5.94,5.94,0,0,0-.58-2.71,5.42,5.42,0,0,0-1.58-1.91,6.89,6.89,0,0,0-2.33-1.12,10.32,10.32,0,0,0-2.8-.37H461v12.6Z" transform="translate(-2.61 -0.35)"/><path class="db4e4be6-7ded-4ece-b383-94d725d21f9c" d="M501.21,401.42h7.92a20,20,0,0,1,2.77.2,7.56,7.56,0,0,1,2.5.78,4.8,4.8,0,0,1,1.8,1.63,5,5,0,0,1,.69,2.79,4.45,4.45,0,0,1-1,3,5.52,5.52,0,0,1-2.66,1.7v0.06a6.05,6.05,0,0,1,1.91.58,5.08,5.08,0,0,1,1.47,1.11,4.74,4.74,0,0,1,.95,1.58,5.54,5.54,0,0,1,.33,1.92,5.11,5.11,0,0,1-.72,2.8,5.67,5.67,0,0,1-1.86,1.82,8.17,8.17,0,0,1-2.57,1,13.71,13.71,0,0,1-2.83.3h-8.7V401.42Zm4.68,8.49h3.39a4.77,4.77,0,0,0,1.07-.12,3,3,0,0,0,.95-0.39,2,2,0,0,0,.67-0.72,2.16,2.16,0,0,0,.25-1.08,2,2,0,0,0-.29-1.1,2,2,0,0,0-.74-0.67,3.5,3.5,0,0,0-1-.34,6.1,6.1,0,0,0-1.11-.11h-3.18v4.53Zm0,8.79h4.2a5.17,5.17,0,0,0,1.09-.12,2.89,2.89,0,0,0,1-.42,2.39,2.39,0,0,0,.74-0.78,2.25,2.25,0,0,0,.29-1.17,1.88,1.88,0,0,0-.37-1.21,2.39,2.39,0,0,0-.95-0.71,4.85,4.85,0,0,0-1.23-.33,9.2,9.2,0,0,0-1.23-.09h-3.54v4.83Z" transform="translate(-2.61 -0.35)"/><path class="db4e4be6-7ded-4ece-b383-94d725d21f9c" d="M532.47,413.6l-8-12.18h5.82l4.5,8,4.77-8h5.55l-8,12.18v9.06h-4.68V413.6Z" transform="translate(-2.61 -0.35)"/><path class="3a764d8d-de54-4b8c-93b2-5265f8185c32" d="M288.45,491.36a15.91,15.91,0,0,1,11,4.14l-2.92,5.58a10.83,10.83,0,0,0-8.11-3.62,9.15,9.15,0,0,0-.09,18.3,11.23,11.23,0,0,0,8.58-3.88l3,5.67a16.57,16.57,0,0,1-11.5,4.31A15.25,15.25,0,1,1,288.45,491.36Z" transform="translate(-2.61 -0.35)"/><path class="3a764d8d-de54-4b8c-93b2-5265f8185c32" d="M305.79,490.14a3.68,3.68,0,1,1,0,7.36A3.68,3.68,0,0,1,305.79,490.14Zm2.88,9.94v21.79h-5.75V500.07h5.75Z" transform="translate(-2.61 -0.35)"/><path class="3a764d8d-de54-4b8c-93b2-5265f8185c32" d="M326.4,499.55c5.1,0,7.71,3.31,7.71,8.8v13.51h-5.88V509.79c0-3.27-1.53-4.7-4-4.7-3.36,0-4.75,2.48-4.75,6.36v10.42h-5.75V500.07h5.58v3.14A8.41,8.41,0,0,1,326.4,499.55Z" transform="translate(-2.61 -0.35)"/><path class="3a764d8d-de54-4b8c-93b2-5265f8185c32" d="M348.62,499.55a11.43,11.43,0,0,1,8.28,3.18l-3.27,4.62a6.89,6.89,0,0,0-5-2.18,5.8,5.8,0,0,0,0,11.59,7.16,7.16,0,0,0,5.14-2.22l3.18,4.62a11.69,11.69,0,0,1-8.41,3.22c-6.67,0-11.55-4.49-11.55-11.42S341.91,499.55,348.62,499.55Z" transform="translate(-2.61 -0.35)"/><path class="3a764d8d-de54-4b8c-93b2-5265f8185c32" d="M363.13,490.14a3.68,3.68,0,1,1,0,7.36A3.68,3.68,0,0,1,363.13,490.14Zm2.88,9.94v21.79h-5.75V500.07H366Z" transform="translate(-2.61 -0.35)"/><path class="3a764d8d-de54-4b8c-93b2-5265f8185c32" d="M383.74,499.55c5.1,0,7.71,3.31,7.71,8.8v13.51h-5.88V509.79c0-3.27-1.53-4.7-4-4.7-3.36,0-4.75,2.48-4.75,6.36v10.42H371.1V500.07h5.58v3.14A8.41,8.41,0,0,1,383.74,499.55Z" transform="translate(-2.61 -0.35)"/><path class="3a764d8d-de54-4b8c-93b2-5265f8185c32" d="M407.88,499.55c5.1,0,7.71,3.31,7.71,8.8v13.51h-5.88V509.79c0-3.27-1.53-4.7-4-4.7-3.36,0-4.75,2.48-4.75,6.36v10.42h-5.75V500.07h5.58v3.14A8.41,8.41,0,0,1,407.88,499.55Z" transform="translate(-2.61 -0.35)"/><path class="3a764d8d-de54-4b8c-93b2-5265f8185c32" d="M429.05,499.59c6.36,0,9.54,2.79,9.54,8.85V521.9h-5.75v-3a7.7,7.7,0,0,1-6.71,3.4c-4.31,0-7.36-2.79-7.36-6.8s3-6.45,7-6.84l6-.52c0.83-.09,1.13-0.35,1.13-0.87V507c0-1.26-1.22-2.18-3.79-2.18-2.27,0-4.62.7-5.45,2.79l-4.27-3.05C420.77,501.25,424.3,499.59,429.05,499.59Zm3.79,12.59-5.4.65c-1.79.26-2.7,1.18-2.7,2.4,0,1.39,1.09,2.31,3.09,2.31,3.05,0,5-2.09,5-4.49v-0.87Z" transform="translate(-2.61 -0.35)"/><path class="3a764d8d-de54-4b8c-93b2-5265f8185c32" d="M450.71,522.08c-4.05,0-6.41-1.92-6.41-6.89V504.91h-4v-4.84h4v-5.84h5.75v5.84h5.53v4.84h-5.53v9.46c0,1.39.7,2,2.18,2a17.94,17.94,0,0,0,3.18-.35v5.45A20.67,20.67,0,0,1,450.71,522.08Z" transform="translate(-2.61 -0.35)"/><path class="3a764d8d-de54-4b8c-93b2-5265f8185c32" d="M462.43,490.14a3.68,3.68,0,1,1,0,7.36A3.68,3.68,0,0,1,462.43,490.14Zm2.88,9.94v21.79h-5.75V500.07h5.75Z" transform="translate(-2.61 -0.35)"/><rect class="c832189b-350a-4a2f-bcfd-33619a3605c9" x="187.54" y="470.37" width="71.85" height="71.85"/><path class="4de29dd0-44c1-4c38-b151-708110b15dc5" d="M220.69,498.88a1.1,1.1,0,0,0-.69.75c-0.08.26-3.38,14.17-3.43,14.41a0.52,0.52,0,0,0,.28.73c0.38,0.16,2.26.82,2.41,0.88s0.11,0.15,0,.15h-8.09c-0.15,0-.23,0-0.08-0.11s2-.72,2.12-0.78a1.2,1.2,0,0,0,.78-0.65c0.08-.3,3.48-14.28,3.54-14.55a0.61,0.61,0,0,0-.36-0.83l-2.36-.82c-0.11,0-.11-0.11,0-0.11h8.49c0.1,0,.18.07,0.06,0.1l-1.67.49c-0.16.05-.67,0.21-0.93,0.33" transform="translate(-2.61 -0.35)"/><path class="4de29dd0-44c1-4c38-b151-708110b15dc5" d="M237.09,514.7a19.73,19.73,0,0,1-5.82,1.25c-7,.19-9.62-4.73-8.41-9.21a11.84,11.84,0,0,1,4.13-6.12,15.09,15.09,0,0,1,8.82-2.95,21.08,21.08,0,0,1,4.46.5,0.63,0.63,0,0,1,.56.92c0,0.15-1.7,5.13-1.75,5.25s-0.23.19-.23,0,0.21-4.53.2-4.71a0.72,0.72,0,0,0-.52-0.91,11.89,11.89,0,0,0-6.74.65c-4.28,2-6.77,6.61-6.26,10.27a6.5,6.5,0,0,0,6.65,5.6,8.31,8.31,0,0,0,2.34-.23,0.63,0.63,0,0,0,.52-0.45c0.07-.22.72-2.93,0.74-3a0.41,0.41,0,0,0-.2-0.61l-4-1.09c-0.18,0-.1-0.14,0-0.14h6.52c0.26,0,1-.06.77,0.59s-1.18,3.77-1.26,4a0.75,0.75,0,0,1-.51.43" transform="translate(-2.61 -0.35)"/><path class="4de29dd0-44c1-4c38-b151-708110b15dc5" d="M205.89,507c0,0.37-.15.57-0.75,0.57h-4.25c-0.66,0-.64-0.37-0.39-0.63s4.7-5.06,4.87-5.26c0.31-.36.6-0.34,0.6,0.15s-0.08,4.93-.08,5.18m4.92,8.71c-0.2-.08-1.76-0.75-2.17-0.94a0.85,0.85,0,0,1-.49-0.83c0-.25.23-16.4,0.16-16.53a0.12,0.12,0,0,0-.21,0c-0.26.26-15.87,17.26-16.15,17.44a7.41,7.41,0,0,1-1.72.84l-0.08,0v0.13h8.33c0.11,0,.14-0.1,0-0.12-0.61-.12-3.26-0.67-3.72-0.81s-0.49-.39-0.31-0.63,4.34-5.42,4.65-5.65a1.53,1.53,0,0,1,1.21-.34c0.21,0,1.46,0,2.66,0,1,0,2,.1,2.25.13a0.58,0.58,0,0,1,.56.75c0,0.22-.18,4-0.2,4.67s-0.13.76-.56,0.91c-0.21.06-3,1-3.13,1s0,0.06,0,.06h8.73c0.13,0,.18-0.07.1-0.11" transform="translate(-2.61 -0.35)"/><path class="4de29dd0-44c1-4c38-b151-708110b15dc5" d="M253.73,507c0,0.37-.16.57-0.76,0.57h-4.26c-0.65,0-.64-0.37-0.39-0.63s4.71-5.06,4.87-5.26c0.33-.36.6-0.34,0.6,0.15s-0.07,4.93-.07,5.18m4.92,8.71c-0.2-.08-1.75-0.75-2.17-0.94a0.83,0.83,0,0,1-.49-0.83c0-.25.23-16.4,0.16-16.53a0.12,0.12,0,0,0-.21,0c-0.26.26-15.86,17.26-16.16,17.44a8.45,8.45,0,0,1-1.71.87c-0.06,0-.06.12,0,0.12h8.23c0.11,0,.13-0.1.05-0.12-0.61-.12-3.26-0.67-3.72-0.81s-0.49-.39-0.33-0.63,4.36-5.42,4.65-5.65a1.59,1.59,0,0,1,1.23-.34c0.22,0,1.46,0,2.66,0,1,0,2,.1,2.25.13a0.58,0.58,0,0,1,.56.75c0,0.22-.18,4-0.2,4.67s-0.13.76-.56,0.91c-0.23.06-3,1-3.13,1s0,0.06,0,.06h8.74c0.13,0,.18-0.07.1-0.11" transform="translate(-2.61 -0.35)"/><path class="f976a4ac-eafe-45c8-b485-c5e2541ee3af" d="M585.48,460.18h22.29v59.5c0,0.17-15.26-35.15-22.29-51.44v-8.06h0Zm0,59.5h3.43c0.17,0-1.37-3.26-3.43-7.89v7.89h0ZM582,460.18h3.43v8.06c-2.06-4.8-3.43-8.06-3.43-8.06h0Zm3.43,51.61v7.89h-6.86c0-.17-5-12-5-12h-10.8V506.3c2.23-5,10.29-23.66,10.12-23.49,0,0,7.89,18.17,12.52,29h0Zm-22.63-50.07v-1.54h0.51l-0.51,1.54h0Zm0-1.54v1.54c-3.77,9.09-24.18,58-24.18,58v-59.5h24.18Zm0,46.12a2.89,2.89,0,0,1-.69,1.37h0.69V506.3h0Z" transform="translate(-2.61 -0.35)"/><path class="f976a4ac-eafe-45c8-b485-c5e2541ee3af" d="M602.62,553.11v-3.43h0c0.86,0,1.72-.17,2.06-2.06h3.6c-0.86,5.14-3.77,5.49-5.66,5.49h0Zm0-7.89v-2.92h2.23c-0.17-3.43-1-4.11-2.23-4.11h0v-3.43h0.17c2.4,0,5.66,1.37,5.66,9.6v0.86h-5.83Zm0-10.46v3.43c-2.06.17-2.23,2.91-2.23,4.11h2.23v2.92h-2.23c0,3.94,1.2,4.46,2.23,4.46v3.43h-0.17c-2.06,0-5.83-.69-5.83-9.09,0-5.83,2.4-9.09,6-9.26h0ZM588.9,553.11v-3.43h0c1.89,0,2.23-3.09,2.23-5.66,0-4.8-1.37-5.83-2.23-5.83h0v-3.26a1.55,1.55,0,0,1,.86-0.17c3.77,0,5.14,3.94,5.14,9.09,0,5.32-1.37,9.26-5.14,9.26H588.9Zm0-18.17v3.26c-1,0-2.4,1-2.4,5.83,0,2.23.34,5.66,2.4,5.66v3.43a4,4,0,0,1-2.4-2.57h-0.17v2.06h-3.26V528.93h3.6v7.89a3,3,0,0,1,2.23-1.89h0Zm-14.06,18.17v-3.43c1.54,0,2.4-1.37,2.4-5.66,0-4.63-1-5.83-2.4-5.83v-3.43c4.11,0,5.83,3.94,5.83,9.26s-1.71,9.09-5.83,9.09h0Zm0-18.35v3.43c-1,0-2.23.86-2.23,5.83s1.2,5.66,2.23,5.66v3.43c-4.12,0-6-3.77-6-9.09s1.89-9.26,6-9.26h0Zm-14.23,18.35v-3.26h0c2.06,0,2.4-3.26,2.4-5.83,0-4.8-1.37-5.83-2.4-5.83h0v-3.26a3.93,3.93,0,0,1,2.23,1.71v-7.72h3.6v23.66h-3.26v-2.06H563a4.46,4.46,0,0,1-2.4,2.57h0Zm-12-24.18,5.49,23.66h-3.94l-0.86-4.46h-2.57v-3.94h1.72l-1.72-8.92v-6.34h1.89Zm12,6v3.26c-0.86.17-2.23,1-2.23,5.83,0,2.23.34,5.66,2.23,5.83v3.26h-0.86c-3.6,0-5.14-4.11-5.14-9.26,0-4.29,1.2-9.09,5.14-9.09a1.28,1.28,0,0,1,.86.17h0Zm-13.89,13.2h-2.4l-1,4.46h-3.94l5.49-23.66h1.89v6.52L545,544.19h1.71v3.94h0Z" transform="translate(-2.61 -0.35)"/><path class="db4e4be6-7ded-4ece-b383-94d725d21f9c" d="M47.4,309.5a5.35,5.35,0,0,0-2-1.5,6.56,6.56,0,0,0-2.7-.52,6.77,6.77,0,0,0-5.11,2.25,7.74,7.74,0,0,0-1.5,2.53,9.64,9.64,0,0,0,0,6.37,7.94,7.94,0,0,0,1.48,2.51,6.72,6.72,0,0,0,2.22,1.66,6.41,6.41,0,0,0,2.74.59,6.14,6.14,0,0,0,3-.7,5.91,5.91,0,0,0,2.13-2l4.54,3.38a9.44,9.44,0,0,1-4,3.25,12.3,12.3,0,0,1-5,1,15.22,15.22,0,0,1-5.34-.91,12.19,12.19,0,0,1-4.22-2.6,11.78,11.78,0,0,1-2.77-4.1,15,15,0,0,1,0-10.75,11.79,11.79,0,0,1,2.77-4.1,12.23,12.23,0,0,1,4.22-2.6,15.22,15.22,0,0,1,5.34-.91,13.15,13.15,0,0,1,2.18.19,11.92,11.92,0,0,1,2.23.61,10,10,0,0,1,2.11,1.12,8.43,8.43,0,0,1,1.81,1.71Z" transform="translate(-2.61 -0.35)"/><path class="db4e4be6-7ded-4ece-b383-94d725d21f9c" d="M66.94,303.08h5.44v24.71H66.94V303.08Z" transform="translate(-2.61 -0.35)"/><path class="db4e4be6-7ded-4ece-b383-94d725d21f9c" d="M89.21,303.08h7.4l10.5,17.17h0.07V303.08h5.44v24.71h-7.12L94.72,310.2H94.65v17.59H89.21V303.08Z" transform="translate(-2.61 -0.35)"/><path class="db4e4be6-7ded-4ece-b383-94d725d21f9c" d="M145.67,309.5a5.35,5.35,0,0,0-2-1.5,6.56,6.56,0,0,0-2.7-.52,6.77,6.77,0,0,0-5.11,2.25,7.74,7.74,0,0,0-1.5,2.53,9.64,9.64,0,0,0,0,6.37,7.94,7.94,0,0,0,1.48,2.51,6.72,6.72,0,0,0,2.22,1.66,6.41,6.41,0,0,0,2.74.59,6.14,6.14,0,0,0,3-.7,5.91,5.91,0,0,0,2.13-2l4.54,3.38a9.44,9.44,0,0,1-4,3.25,12.3,12.3,0,0,1-5,1,15.22,15.22,0,0,1-5.34-.91,12.19,12.19,0,0,1-4.22-2.6,11.78,11.78,0,0,1-2.77-4.1,15,15,0,0,1,0-10.75A11.79,11.79,0,0,1,132,306a12.23,12.23,0,0,1,4.22-2.6,15.22,15.22,0,0,1,5.34-.91,13.15,13.15,0,0,1,2.18.19,11.92,11.92,0,0,1,2.23.61,10,10,0,0,1,2.11,1.12,8.43,8.43,0,0,1,1.81,1.71Z" transform="translate(-2.61 -0.35)"/><path class="db4e4be6-7ded-4ece-b383-94d725d21f9c" d="M165.22,303.08h5.44v24.71h-5.44V303.08Z" transform="translate(-2.61 -0.35)"/><path class="db4e4be6-7ded-4ece-b383-94d725d21f9c" d="M187.48,303.08h7.4l10.5,17.17h0.07V303.08h5.44v24.71h-7.12L193,310.2h-0.07v17.59h-5.44V303.08Z" transform="translate(-2.61 -0.35)"/><path class="db4e4be6-7ded-4ece-b383-94d725d21f9c" d="M227.79,303.08h7.4l10.5,17.17h0.07V303.08h5.44v24.71h-7.12L233.3,310.2h-0.07v17.59h-5.44V303.08Z" transform="translate(-2.61 -0.35)"/><path class="db4e4be6-7ded-4ece-b383-94d725d21f9c" d="M276.23,303.08h4.5l10.75,24.71h-6.14l-2.13-5.23h-9.6l-2.06,5.23h-6Zm2.09,7.19-3,7.68h6Z" transform="translate(-2.61 -0.35)"/><path class="db4e4be6-7ded-4ece-b383-94d725d21f9c" d="M307.39,307.89h-7v-4.82h19.54v4.82h-7v19.89h-5.44V307.89Z" transform="translate(-2.61 -0.35)"/><path class="db4e4be6-7ded-4ece-b383-94d725d21f9c" d="M334.44,303.08h5.44v24.71h-5.44V303.08Z" transform="translate(-2.61 -0.35)"/><path class="db4e4be6-7ded-4ece-b383-94d725d21f9c" d="M382.38,303.08h8.17a23.3,23.3,0,0,1,5.64.66,12.91,12.91,0,0,1,4.66,2.15,10.53,10.53,0,0,1,3.16,3.86,12.92,12.92,0,0,1,1.17,5.76,11.74,11.74,0,0,1-1.13,5.29,11.36,11.36,0,0,1-3.05,3.84,13.51,13.51,0,0,1-4.43,2.36,17.22,17.22,0,0,1-5.27.8h-8.9V303.08Zm5.44,19.68h2.83a15.2,15.2,0,0,0,3.51-.38A7.49,7.49,0,0,0,397,321.1a6.1,6.1,0,0,0,1.87-2.34,8.28,8.28,0,0,0,.68-3.54,6.89,6.89,0,0,0-.68-3.16,6.3,6.3,0,0,0-1.83-2.22,8,8,0,0,0-2.7-1.31,12,12,0,0,0-3.26-.44h-3.21v14.66Z" transform="translate(-2.61 -0.35)"/><path class="db4e4be6-7ded-4ece-b383-94d725d21f9c" d="M420.95,303.08h16.79v5H426.39v4.61h10.71v5H426.39v5h12v5H420.95V303.08Z" transform="translate(-2.61 -0.35)"/><path class="db4e4be6-7ded-4ece-b383-94d725d21f9c" d="M466.8,309.11a3.88,3.88,0,0,0-1.8-1.24,6.45,6.45,0,0,0-2.15-.4,5.66,5.66,0,0,0-1.22.14,4.69,4.69,0,0,0-1.19.44,2.59,2.59,0,0,0-.91.78,2.18,2.18,0,0,0,.49,2.9,7.94,7.94,0,0,0,2.11,1q1.27,0.42,2.74.84a11.3,11.3,0,0,1,2.74,1.19,6.48,6.48,0,0,1,2.11,2.06,6.27,6.27,0,0,1,.84,3.45,8,8,0,0,1-.77,3.59,7.29,7.29,0,0,1-2.08,2.55,8.83,8.83,0,0,1-3,1.5,13.36,13.36,0,0,1-3.65.49,13.21,13.21,0,0,1-4.47-.73,11.17,11.17,0,0,1-3.84-2.37l3.87-4.26a5.65,5.65,0,0,0,2.11,1.73,6,6,0,0,0,2.64.61,6,6,0,0,0,1.34-.16,4.42,4.42,0,0,0,1.22-.47,2.64,2.64,0,0,0,.87-0.8,2,2,0,0,0,.33-1.15,2.09,2.09,0,0,0-.86-1.76,7.92,7.92,0,0,0-2.15-1.1q-1.29-.45-2.79-0.91a12.54,12.54,0,0,1-2.79-1.22,6.74,6.74,0,0,1-2.15-2,5.79,5.79,0,0,1-.85-3.32,7.42,7.42,0,0,1,.78-3.49,7.58,7.58,0,0,1,2.09-2.51,9.12,9.12,0,0,1,3-1.52,12.38,12.38,0,0,1,3.53-.51,13.86,13.86,0,0,1,4,.59,9.36,9.36,0,0,1,3.53,2Z" transform="translate(-2.61 -0.35)"/><path class="db4e4be6-7ded-4ece-b383-94d725d21f9c" d="M486.42,303.08h5.44v24.71h-5.44V303.08Z" transform="translate(-2.61 -0.35)"/><path class="db4e4be6-7ded-4ece-b383-94d725d21f9c" d="M531.05,326a19.7,19.7,0,0,1-5,1.81,25.61,25.61,0,0,1-5.34.56,15.22,15.22,0,0,1-5.34-.91,12.19,12.19,0,0,1-4.22-2.6,11.78,11.78,0,0,1-2.77-4.1,15,15,0,0,1,0-10.75,11.79,11.79,0,0,1,2.77-4.1,12.23,12.23,0,0,1,4.22-2.6,15.22,15.22,0,0,1,5.34-.91,19.81,19.81,0,0,1,5.46.71,10.71,10.71,0,0,1,4.38,2.46l-3.84,4.19a7.67,7.67,0,0,0-2.51-1.74,9,9,0,0,0-3.49-.59,8.09,8.09,0,0,0-3.16.59,7.08,7.08,0,0,0-2.42,1.66,7.28,7.28,0,0,0-1.55,2.53,9.64,9.64,0,0,0,0,6.37,7.31,7.31,0,0,0,1.55,2.51,7.08,7.08,0,0,0,2.42,1.66,8.09,8.09,0,0,0,3.16.59,10.42,10.42,0,0,0,3.07-.4,11.58,11.58,0,0,0,2.06-.82v-4h-4.43v-5h9.67V326Z" transform="translate(-2.61 -0.35)"/><path class="db4e4be6-7ded-4ece-b383-94d725d21f9c" d="M547.7,303.08h7.4l10.5,17.17h0.07V303.08h5.44v24.71H564L553.21,310.2h-0.07v17.59H547.7V303.08Z" transform="translate(-2.61 -0.35)"/><path class="db4e4be6-7ded-4ece-b383-94d725d21f9c" d="M611.11,303.08H617L621,318.92h0.07l5.17-15.84h5.06l5.13,16.26h0.07l4.15-16.26h5.51l-7.22,24.71h-4.85l-5.44-17.1h-0.07l-5.44,17.1h-4.68Z" transform="translate(-2.61 -0.35)"/><path class="db4e4be6-7ded-4ece-b383-94d725d21f9c" d="M660.66,303.08h16.79v5H666.11v4.61h10.71v5H666.11v5h12v5H660.66V303.08Z" transform="translate(-2.61 -0.35)"/><path class="db4e4be6-7ded-4ece-b383-94d725d21f9c" d="M694.51,303.08H711.3v5H700v4.61h10.71v5H700v5h12v5H694.51V303.08Z" transform="translate(-2.61 -0.35)"/><path class="db4e4be6-7ded-4ece-b383-94d725d21f9c" d="M728.36,303.08h5.44v10.26l9.6-10.26h7.12l-11,11.48,11.94,13.23h-7.61l-10-11.73v11.73h-5.44V303.08Z" transform="translate(-2.61 -0.35)"/><path class="4b444f27-86b8-4d59-8066-b192eea0f088" d="M170.36,73.92a48.26,48.26,0,0,0-17.8-13.54Q142,55.65,128.16,55.65A61.09,61.09,0,0,0,82,76,69.68,69.68,0,0,0,68.47,98.8a82.08,82.08,0,0,0-4.88,28.66,81.67,81.67,0,0,0,4.88,28.82A71.56,71.56,0,0,0,81.85,179a60.57,60.57,0,0,0,20,15,57.79,57.79,0,0,0,24.73,5.36q15.12,0,26.77-6.3a53.3,53.3,0,0,0,19.21-17.64l40.95,30.55a85.27,85.27,0,0,1-35.91,29.29,111.12,111.12,0,0,1-44.73,9.45,137.4,137.4,0,0,1-48.19-8.19A110.23,110.23,0,0,1,46.57,213a106.38,106.38,0,0,1-25-37q-9-21.73-9-48.51t9-48.51a106.43,106.43,0,0,1,25-37A110.4,110.4,0,0,1,84.69,18.48a137.41,137.41,0,0,1,48.19-8.19A118.43,118.43,0,0,1,152.57,12a106.6,106.6,0,0,1,20.16,5.51,90,90,0,0,1,19.06,10.08A76,76,0,0,1,208.16,43Z" transform="translate(-2.61 -0.35)"/><path class="db4e4be6-7ded-4ece-b383-94d725d21f9c" d="M132.88,254.58a147.91,147.91,0,0,1-51.66-8.81,120.61,120.61,0,0,1-41.5-25.58,116.72,116.72,0,0,1-27.38-40.42c-6.46-15.63-9.73-33.23-9.73-52.3s3.27-36.67,9.73-52.3A116.79,116.79,0,0,1,39.72,34.74,120.8,120.8,0,0,1,81.22,9.16,147.94,147.94,0,0,1,132.88.35a129,129,0,0,1,21.34,1.87,117,117,0,0,1,22,6,100.36,100.36,0,0,1,21.16,11.18,86.33,86.33,0,0,1,18.52,17.44l6.1,7.68L169,87.89l-6.29-7.65A38.1,38.1,0,0,0,148.5,69.45a49.71,49.71,0,0,0-20.35-3.86,51.14,51.14,0,0,0-38.76,17,60.14,60.14,0,0,0-11.6,19.62,72.57,72.57,0,0,0-4.27,25.22,72.17,72.17,0,0,0,4.25,25.34A62,62,0,0,0,89.3,172.37,51,51,0,0,0,106,184.91a48.19,48.19,0,0,0,20.53,4.43,45.84,45.84,0,0,0,22-5.1,43.1,43.1,0,0,0,15.67-14.41l5.82-8.72,57.16,42.65-5.66,7.92a95.46,95.46,0,0,1-40,32.63A121.49,121.49,0,0,1,132.88,254.58Zm0-234.35A128.16,128.16,0,0,0,88.15,27.8,101,101,0,0,0,53.43,49.15a97.06,97.06,0,0,0-22.7,33.6C25.27,96,22.5,111,22.5,127.46s2.77,31.5,8.22,44.71a97,97,0,0,0,22.7,33.6,100.86,100.86,0,0,0,34.72,21.35,128.14,128.14,0,0,0,44.73,7.57,101.73,101.73,0,0,0,40.76-8.63,73.75,73.75,0,0,0,25.68-18.36l-25-18.62a62.63,62.63,0,0,1-16.29,12.64c-9.2,5-19.8,7.5-31.5,7.5a67.92,67.92,0,0,1-28.93-6.29,70.75,70.75,0,0,1-23.25-17.38,81.8,81.8,0,0,1-15.26-25.79,91.94,91.94,0,0,1-5.51-32.3,92.34,92.34,0,0,1,5.5-32.11,79.89,79.89,0,0,1,15.49-26,71,71,0,0,1,53.53-23.6,69.35,69.35,0,0,1,28.47,5.59,58.76,58.76,0,0,1,14.47,9.18L193.75,42a63.71,63.71,0,0,0-7.61-6.18,80.43,80.43,0,0,0-16.95-9,97.15,97.15,0,0,0-18.28-5A109,109,0,0,0,132.88,20.23Z" transform="translate(-2.61 -0.35)"/><path class="db4e4be6-7ded-4ece-b383-94d725d21f9c" d="M260.19,16H333.9a210.54,210.54,0,0,1,50.87,6q24.1,6,42.05,19.37a95,95,0,0,1,28.51,34.81q10.55,21.42,10.55,52,0,27.09-10.24,47.72a102.63,102.63,0,0,1-27.56,34.65,121.8,121.8,0,0,1-40,21.26A155.25,155.25,0,0,1,340.51,239H260.19V16Zm49.14,177.65h25.51a137.14,137.14,0,0,0,31.66-3.46,67.64,67.64,0,0,0,25.36-11.5,55.15,55.15,0,0,0,16.85-21.1q6.14-13.07,6.14-32,0-16.37-6.14-28.51a57,57,0,0,0-16.54-20,72.53,72.53,0,0,0-24.41-11.81,108.52,108.52,0,0,0-29.45-3.94h-29V193.61Z" transform="translate(-2.61 -0.35)"/><path class="db4e4be6-7ded-4ece-b383-94d725d21f9c" d="M476,16H529.5L565.1,159h0.63L612.34,16H658l46.3,146.78h0.63L742.43,16H792.2L727,239H683.22L634.08,84.63h-0.63L584.31,239H542.1Z" transform="translate(-2.61 -0.35)"/></svg>