<?xml version="1.0" encoding="utf-8"?>
<!-- Generator: Adobe Illustrator 22.1.0, SVG Export Plug-In . SVG Version: 6.00 Build 0)  -->
<svg version="1.1" id="_31d412ea-1b5f-41cb-b427-8859186d6760"
	 xmlns="http://www.w3.org/2000/svg" xmlns:xlink="http://www.w3.org/1999/xlink" x="0px" y="0px" viewBox="0 0 789.1 542.2"
	 style="enable-background:new 0 0 789.1 542.2;" xml:space="preserve">
<style type="text/css">
	.st0{fill:#2E2A25;}
	.st1{fill:none;}
	.st2{fill:#231F20;}
	.st3{fill:#D6CEC0;}
	.st4{fill:#00ADEE;}
	.st5{fill:#FFFFFF;}
</style>
<title>logo-cdw-Artboard 1 copy 4</title>
<g>
	<path class="st0" d="M44.8,400.1c-0.5-0.7-1.2-1.2-2-1.5c-0.9-0.4-1.8-0.5-2.7-0.5c-1.9,0-3.8,0.8-5.1,2.2
		c-0.7,0.7-1.2,1.6-1.5,2.5c-0.7,2.1-0.7,4.3,0,6.4c0.3,0.9,0.8,1.8,1.5,2.5c0.6,0.7,1.4,1.3,2.2,1.7c0.9,0.4,1.8,0.6,2.8,0.6
		s2.1-0.2,3-0.7s1.6-1.2,2.1-2l4.5,3.4c-1,1.4-2.4,2.6-4,3.2c-1.6,0.7-3.3,1-5,1c-1.8,0-3.6-0.3-5.3-0.9c-1.6-0.6-3-1.5-4.2-2.6
		c-1.2-1.2-2.1-2.6-2.8-4.1c-1.3-3.5-1.3-7.3,0-10.8c0.6-1.5,1.6-2.9,2.8-4.1c1.2-1.1,2.7-2,4.2-2.6c1.7-0.6,3.5-0.9,5.3-0.9
		c0.7,0,1.5,0.1,2.2,0.2c0.8,0.1,1.5,0.3,2.2,0.6c0.7,0.3,1.5,0.7,2.1,1.1c0.7,0.5,1.3,1,1.8,1.7L44.8,400.1z"/>
	<path class="st0" d="M64.3,393.7h5.4v24.7h-5.4V393.7z"/>
	<path class="st0" d="M86.6,393.7H94l10.5,17.2h0.1v-17.2h5.4v24.7h-7.1l-10.8-17.6H92v17.6h-5.4V393.7z"/>
	<path class="st0" d="M143.1,400.1c-0.5-0.7-1.2-1.2-2-1.5c-0.9-0.4-1.8-0.5-2.7-0.5c-1.9,0-3.8,0.8-5.1,2.2
		c-0.7,0.7-1.2,1.6-1.5,2.5c-0.7,2.1-0.7,4.3,0,6.4c0.3,0.9,0.8,1.8,1.5,2.5c0.6,0.7,1.4,1.3,2.2,1.7c0.9,0.4,1.8,0.6,2.7,0.6
		c1,0,2.1-0.2,3-0.7s1.6-1.2,2.1-2l4.5,3.4c-1,1.4-2.4,2.6-4,3.2c-1.6,0.7-3.3,1-5,1c-1.8,0-3.6-0.3-5.3-0.9c-1.6-0.6-3-1.5-4.2-2.6
		c-1.2-1.2-2.1-2.6-2.8-4.1c-1.3-3.5-1.3-7.3,0-10.8c0.7-1.5,1.6-2.9,2.9-4c1.2-1.1,2.7-2,4.2-2.6c1.7-0.6,3.5-0.9,5.3-0.9
		c0.7,0,1.5,0.1,2.2,0.2c0.8,0.1,1.5,0.3,2.2,0.6c0.7,0.3,1.5,0.7,2.1,1.1c0.7,0.5,1.3,1.1,1.8,1.7L143.1,400.1z"/>
	<path class="st0" d="M162.6,393.7h5.4v24.7h-5.4V393.7z"/>
	<path class="st0" d="M184.9,393.7h7.4l10.5,17.2h0.1v-17.2h5.4v24.7h-7.1l-10.8-17.6h-0.1v17.6h-5.4L184.9,393.7L184.9,393.7z"/>
	<path class="st0" d="M225.2,393.7h7.4l10.5,17.2h0.1v-17.2h5.4v24.7h-7.1l-10.8-17.6h-0.1v17.6h-5.4L225.2,393.7L225.2,393.7z"/>
	<path class="st0" d="M273.6,393.7h4.5l10.8,24.7h-6.1l-2.1-5.2H271l-2.1,5.2h-6L273.6,393.7z M275.7,400.9l-3,7.7h6L275.7,400.9z"
		/>
	<path class="st0" d="M304.8,398.5h-7v-4.8h19.5v4.8h-7v19.9h-5.4v-19.9H304.8z"/>
	<path class="st0" d="M331.8,393.7h5.4v24.7h-5.4V393.7z"/>
	<path class="st0" d="M379.8,393.7h8.2c1.9,0,3.8,0.2,5.6,0.7c1.7,0.4,3.3,1.1,4.7,2.1c1.3,1,2.4,2.3,3.2,3.9
		c0.8,1.8,1.2,3.8,1.2,5.8c0,1.8-0.3,3.6-1.1,5.3c-0.7,1.5-1.7,2.8-3,3.8c-1.3,1.1-2.8,1.9-4.4,2.4c-1.7,0.5-3.5,0.8-5.3,0.8H380
		L379.8,393.7L379.8,393.7z M385.2,413.3h2.8c1.2,0,2.4-0.1,3.5-0.4c1-0.2,2-0.7,2.8-1.3c0.8-0.6,1.5-1.4,1.9-2.3
		c0.5-1.1,0.7-2.3,0.7-3.5c0-1.1-0.2-2.2-0.7-3.2c-0.4-0.9-1.1-1.6-1.8-2.2c-0.8-0.6-1.7-1-2.7-1.3c-1.1-0.3-2.2-0.4-3.3-0.4h-3.2
		L385.2,413.3L385.2,413.3z"/>
	<path class="st0" d="M418.3,393.7h16.8v5h-11.4v4.6h10.7v5h-10.7v5h12v5h-17.4V393.7z"/>
	<path class="st0" d="M464.2,399.7c-0.5-0.6-1.1-1-1.8-1.2c-0.7-0.3-1.4-0.4-2.1-0.4c-0.4,0-0.8,0-1.2,0.1c-0.4,0.1-0.8,0.2-1.2,0.4
		c-0.4,0.2-0.7,0.5-0.9,0.8c-0.6,0.9-0.4,2.2,0.5,2.9c0.7,0.4,1.4,0.8,2.1,1c0.8,0.3,1.8,0.6,2.7,0.8c1,0.3,1.9,0.7,2.7,1.2
		c0.9,0.5,1.6,1.2,2.1,2.1c0.6,1,0.9,2.2,0.8,3.5c0,1.2-0.2,2.5-0.8,3.6c-0.5,1-1.2,1.9-2.1,2.6s-1.9,1.2-3,1.5
		c-1.2,0.3-2.4,0.5-3.6,0.5c-1.5,0-3-0.2-4.5-0.7c-1.4-0.5-2.7-1.3-3.8-2.4l3.9-4.3c0.6,0.7,1.3,1.3,2.1,1.7c1.2,0.6,2.7,0.8,4,0.5
		c0.4-0.1,0.8-0.3,1.2-0.5c0.3-0.2,0.6-0.5,0.9-0.8c0.2-0.3,0.3-0.7,0.3-1.1c0-0.7-0.3-1.4-0.9-1.8c-0.7-0.5-1.4-0.8-2.1-1.1
		c-0.9-0.3-1.8-0.6-2.8-0.9s-1.9-0.7-2.8-1.2s-1.6-1.2-2.1-2c-0.6-1-0.9-2.2-0.9-3.3c0-1.2,0.2-2.4,0.8-3.5c0.5-1,1.2-1.8,2.1-2.5
		s1.9-1.2,3-1.5s2.3-0.5,3.5-0.5c1.4,0,2.7,0.2,4,0.6s2.5,1.1,3.5,2L464.2,399.7z"/>
	<path class="st0" d="M483.8,393.7h5.4v24.7h-5.4V393.7z"/>
	<path class="st0" d="M528.4,416.6c-1.6,0.8-3.3,1.4-5,1.8c-1.8,0.4-3.5,0.6-5.3,0.6s-3.6-0.3-5.3-0.9c-1.6-0.6-3-1.5-4.2-2.6
		c-1.2-1.2-2.1-2.6-2.8-4.1c-1.3-3.5-1.3-7.3,0-10.8c0.6-1.5,1.6-2.9,2.8-4.1c1.2-1.1,2.7-2,4.2-2.6c1.7-0.6,3.5-0.9,5.3-0.9
		s3.7,0.2,5.5,0.7c1.6,0.5,3.1,1.3,4.4,2.5l-3.8,4.2c-0.7-0.7-1.6-1.3-2.5-1.7c-1.1-0.4-2.3-0.6-3.5-0.6c-1.1,0-2.2,0.2-3.2,0.6
		c-0.9,0.4-1.7,0.9-2.4,1.7c-0.7,0.7-1.2,1.6-1.5,2.5c-0.7,2.1-0.7,4.3,0,6.4c0.3,0.9,0.9,1.8,1.5,2.5c0.7,0.7,1.5,1.3,2.4,1.7
		c1,0.4,2.1,0.6,3.2,0.6c1,0,2.1-0.1,3.1-0.4c0.7-0.2,1.4-0.5,2.1-0.8v-4H519v-5h9.7L528.4,416.6L528.4,416.6z"/>
	<path class="st0" d="M545.1,393.7h7.4l10.5,17.2h0.1v-17.2h5.4v24.7h-7.1l-10.8-17.6h-0.1v17.6h-5.4L545.1,393.7L545.1,393.7z"/>
	<path class="st0" d="M608.5,393.7h5.9l4,15.8h0.1l5.2-15.8h5.1l5.1,16.3h0.1l4.1-16.3h5.5l-7.2,24.7h-4.8l-5.4-17.1l0,0l-5.4,17.1
		h-4.7L608.5,393.7z"/>
	<path class="st0" d="M658,393.7h16.8v5h-11.3v4.6h10.7v5h-10.7v5h12v5H658V393.7z"/>
	<path class="st0" d="M691.9,393.7h16.8v5h-11.3v4.6h10.7v5h-10.7v5h12v5h-17.5V393.7z"/>
	<path class="st0" d="M725.8,393.7h5.4V404l9.6-10.3h7.1l-11,11.5l11.9,13.2h-7.6l-10-11.7v11.7h-5.4V393.7L725.8,393.7z"/>
	<g>
		<path class="st1" d="M167.7,164.5c-4.8-5.8-10.9-10.5-17.8-13.5c-7-3.1-15.2-4.7-24.4-4.7c-17.6-0.2-34.4,7.2-46.1,20.3
			c-6,6.6-10.6,14.4-13.6,22.8c-3.3,9.2-5,18.9-4.9,28.7c-0.1,9.8,1.5,19.6,4.9,28.8c3,8.3,7.6,16,13.4,22.7
			c5.6,6.3,12.4,11.4,20,15c7.7,3.6,16.2,5.4,24.7,5.4c10.1,0,19-2.1,26.8-6.3c7.8-4.2,14.4-10.3,19.2-17.6l40.9,30.5
			c-9,12.9-21.5,23-35.9,29.3c-14.1,6.2-29.3,9.4-44.7,9.4c-16.4,0.2-32.8-2.6-48.2-8.2C67.8,322,54.9,314,43.9,303.7
			c-10.9-10.4-19.4-23-25-37c-6-14.5-9-30.6-9-48.5s3-34,9-48.5c5.6-14,14.1-26.6,25-37c11-10.3,23.9-18.3,38.1-23.5
			c15.4-5.6,31.8-8.4,48.2-8.2c6.6,0,13.2,0.6,19.7,1.7c6.9,1.2,13.6,3,20.1,5.5c6.7,2.6,13.1,6,19,10.1c6.2,4.3,11.7,9.5,16.4,15.4
			L167.7,164.5z"/>
		<path class="st0" d="M130.2,345.1c-17.6,0.2-35.1-2.8-51.6-8.8C63.1,330.7,49,322,37.1,310.7c-11.9-11.4-21.2-25.2-27.4-40.4
			C3.3,254.7,0,237.1,0,218s3.3-36.6,9.7-52.2c6.2-15.2,15.5-29,27.4-40.4c11.9-11.3,26-20,41.5-25.6c16.5-6,34-9,51.6-8.8
			c7.1,0,14.3,0.7,21.3,1.9c7.5,1.3,14.9,3.3,22,6c7.5,2.9,14.6,6.6,21.1,11.1c7,4.9,13.2,10.7,18.5,17.4l6.1,7.7l-53,43.3l-6.3-7.6
			c-3.8-4.7-8.7-8.4-14.2-10.8c-6.4-2.7-13.4-4-20.3-3.8c-14.8-0.2-28.9,6-38.7,17c-5.1,5.7-9,12.4-11.6,19.7
			c-2.9,8.1-4.3,16.6-4.3,25.2c-0.1,8.6,1.3,17.2,4.2,25.3c2.6,7.2,6.5,13.8,11.5,19.6c4.6,5.3,10.4,9.6,16.8,12.6
			c6.4,3,13.4,4.5,20.5,4.4c8.5,0,15.7-1.7,22-5.1s11.7-8.4,15.7-14.4l5.8-8.7l57.1,42.6l-5.7,7.9c-10.1,14.3-23.9,25.6-40,32.6
			C163.5,341.5,146.9,345.1,130.2,345.1z M130.2,110.9c-15.2-0.2-30.4,2.4-44.7,7.6c-12.9,4.7-24.7,11.9-34.7,21.3
			c-9.8,9.5-17.6,20.9-22.7,33.6c-5.5,13.2-8.2,28.2-8.2,44.7s2.8,31.5,8.2,44.7c5.1,12.7,12.8,24.1,22.7,33.6
			c10,9.4,21.8,16.7,34.7,21.3c14.3,5.2,29.5,7.7,44.7,7.6c14,0,27.9-3,40.7-8.6c9.8-4.2,18.5-10.5,25.7-18.4l-24.9-18.6
			c-4.7,5.1-10.2,9.4-16.3,12.6c-9.2,5-19.8,7.5-31.5,7.5c-10,0.1-19.9-2.1-28.9-6.3c-8.9-4.1-16.8-10-23.2-17.4
			c-6.6-7.6-11.8-16.3-15.2-25.8C52.8,240,50.9,229,51,218c-0.1-10.9,1.8-21.8,5.5-32.1c3.5-9.6,8.7-18.4,15.5-26
			c13.6-15.2,33.1-23.8,53.5-23.6c9.8-0.2,19.5,1.8,28.5,5.6c5.2,2.3,10.1,5.4,14.4,9.1l22.6-18.4c-2.4-2.2-4.9-4.3-7.6-6.2
			c-5.3-3.7-11-6.7-16.9-9s-12-3.9-18.3-5C142.2,111.4,136.2,110.9,130.2,110.9L130.2,110.9z"/>
		<path class="st0" d="M257.4,106.6h73.7c17.1-0.1,34.2,1.9,50.8,6c16.1,4,30.1,10.5,42,19.4c12.1,9.1,21.9,21.1,28.5,34.8
			c7,14.3,10.5,31.6,10.5,51.9c0,18.1-3.4,33.9-10.2,47.7c-6.6,13.4-15.9,25.2-27.5,34.6c-11.9,9.5-25.5,16.7-40,21.2
			c-15.4,4.9-31.4,7.3-47.5,7.2h-80.2L257.4,106.6L257.4,106.6z M306.5,284.1H332c10.6,0.1,21.3-1.1,31.6-3.5
			c9.2-2,17.8-5.9,25.4-11.5c7.3-5.5,13.1-12.8,16.8-21.1c4.1-8.7,6.2-19.4,6.2-32c0-10.9-2-20.4-6.1-28.5
			c-3.9-7.8-9.6-14.7-16.5-20c-7.3-5.4-15.6-9.4-24.4-11.8c-9.6-2.7-19.5-4-29.4-3.9h-29v132.3H306.5z"/>
		<path class="st0" d="M473.1,106.6h53.5l35.6,142.9h0.6l46.6-142.9H655l46.3,146.7h0.7l37.4-146.7h49.7L724,329.5h-43.8
			l-49.1-154.3h-0.6l-49.1,154.2h-42.2L473.1,106.6z"/>
	</g>
</g>
<g>
	<g>
		<path class="st2" d="M361.8,503.9c-1.4,0-2.5,1.1-2.5,2.5v10.2c0,1.4,1.2,2.5,2.5,2.5c1.4,0,2.6-1.2,2.6-2.5v-10.2
			C364.3,505.1,363.2,503.9,361.8,503.9z"/>
		<path class="st2" d="M347.8,497.6c-1.4,0-2.5,1.1-2.5,2.5v16.5c0,1.4,1.2,2.5,2.5,2.5c1.4,0,2.6-1.2,2.6-2.5v-16.5
			C350.3,498.7,349.2,497.6,347.8,497.6z"/>
		<path class="st2" d="M375.8,503.9c-1.4,0-2.5,1.1-2.5,2.5v1.6v0.5v0.5c0,0.1,0.1,0.2,0.2,0.2h4.7c0.1,0,0.2-0.1,0.2-0.2v-0.5V508
			v-1.6C378.4,505.1,377.2,503.9,375.8,503.9z"/>
		<path class="st2" d="M481,479H308.1c-3.3,0-5.9,2.7-5.9,6v48.1c0,3.3,2.7,5.9,5.9,5.9h78.5c11.5-0.3,12.6-6.4,12.6-12.5v-22.2l0,0
			h-1.4c-0.1,0-0.2-0.1-0.2-0.2v-2.4c0-0.1,0.1-0.2,0.2-0.2h1.4v-0.9c0-3,2.4-5.4,5.4-5.4h7c0,0,0.2,2.9-2.3,2.9s-4.7,0-4.7,0
			c-1.4,0-2.5,1.1-2.5,2.5v0.9h3.7c0.1,0,0.2,0.1,0.2,0.2v2.4c0,0.1-0.1,0.2-0.2,0.2h-3.7l0,0v22.2c0,6.1,1,12.2,12.6,12.5H481
			c3.3,0,6-2.7,6-5.9V485C486.9,481.7,484.2,479,481,479z M353.2,516.6c0,3-2.4,5.4-5.4,5.4s-5.4-2.4-5.4-5.4v-16.5
			c0-3,2.4-5.4,5.4-5.4s5.4,2.4,5.4,5.4V516.6z M367.2,516.6c0,3-2.4,5.4-5.4,5.4c-0.9,0-1.8-0.2-2.5-0.6v1l0,0v5.4
			c0,0.1-0.1,0.2-0.2,0.2h-2.4c-0.1,0-0.2-0.1-0.2-0.2v-5.6v-6.9v-7.6v-5.1v-1c0-0.1,0.1-0.2,0.2-0.2h1.2c0.1,0,0.2,0.1,0.3,0.2
			c0.1,0.2,0.1,0.2,0.4,0.6c0.9-0.7,2-1.1,3.3-1.1c3,0,5.4,2.4,5.4,5.4L367.2,516.6L367.2,516.6z M381.2,510.9v0.5v0.6
			c0,0.1-0.1,0.2-0.2,0.2h-1.2h-1.2h-5.3v4.5c0,1.4,1.2,2.5,2.5,2.5c1.4,0,2.6-1.2,2.6-2.5v-0.4v-0.7v-0.4c0-0.1,0.1-0.2,0.2-0.2
			h2.4c0.1,0,0.2,0.1,0.2,0.2v0.4v0.7v0.4c0,3-2.4,5.4-5.4,5.4s-5.4-2.4-5.4-5.4v-10.2c0-3,2.4-5.4,5.4-5.4s5.4,2.4,5.4,5.4V510.9z
			 M395.2,507.7v11.8v1.9c0,0.1-0.1,0.2-0.2,0.2h-2.4c-0.1,0-0.2-0.1-0.2-0.2v-3.2v-10.5v-1.2c0-1.4-1.2-2.5-2.6-2.5
			s-2.5,1.1-2.5,2.5v1.2v12.5v1.2c0,0.1-0.1,0.2-0.2,0.2h-2.4c-0.1,0-0.2-0.1-0.2-0.2v-6.1v-7.6v-6.1c0-0.1,0.1-0.2,0.2-0.2h1.2
			c0.1,0,0.2,0.1,0.3,0.2c0.1,0.2,0.1,0.2,0.4,0.6c0.9-0.7,2-1.1,3.3-1.1c3,0,5.4,2.4,5.4,5.4L395.2,507.7L395.2,507.7z
			 M411.7,521.5c0,0.1-0.1,0.2-0.2,0.2H409c-0.1,0-0.2-0.1-0.2-0.2v-19.9c0-0.1,0.1-0.2,0.2-0.2h2.4c0.1,0,0.2,0.1,0.2,0.2v19.9
			H411.7z M426,510.9v0.5v0.6c0,0.1-0.1,0.2-0.2,0.2h-1.2h-1.2h-5.3v4.5c0,1.4,1.2,2.5,2.5,2.5c1.4,0,2.6-1.2,2.6-2.5v-0.4v-0.7
			v-0.4c0-0.1,0.1-0.2,0.2-0.2h2.4c0.1,0,0.2,0.1,0.2,0.2v0.4v0.7v0.4c0,3-2.4,5.4-5.4,5.4s-5.4-2.4-5.4-5.4v-10.2
			c0-3,2.4-5.4,5.4-5.4s5.4,2.4,5.4,5.4V510.9z M432.4,521.5c0,0.1-0.1,0.2-0.2,0.2h-2.4c-0.1,0-0.2-0.1-0.2-0.2v-26.2
			c0-0.1,0.1-0.2,0.2-0.2h2.4c0.1,0,0.2,0.1,0.2,0.2V521.5z M446.7,495.3v12.4v10.7v1.2v1.9c0,0.1-0.1,0.2-0.2,0.2h-1.2
			c-0.1,0-0.2-0.1-0.3-0.2c-0.1-0.2-0.1-0.2-0.4-0.6c-0.9,0.7-2,1.1-3.3,1.1c-3,0-5.4-2.4-5.4-5.4v-10.2c0-3,2.4-5.4,5.4-5.4
			c0.9,0,1.8,0.2,2.5,0.6v-6.4v-0.1V495h2.8v0.3H446.7z"/>
		<path class="st2" d="M441.3,503.9c-1.4,0-2.5,1.1-2.5,2.5v10.2c0,1.4,1.2,2.5,2.5,2.5c1.4,0,2.6-1.2,2.6-2.5v-10.2
			C443.9,505.1,442.7,503.9,441.3,503.9z"/>
		<path class="st2" d="M420.6,503.9c-1.4,0-2.5,1.1-2.5,2.5v1.6v0.5v0.5c0,0.1,0.1,0.2,0.2,0.2h4.7c0.1,0,0.2-0.1,0.2-0.2v-0.5V508
			v-1.6C423.2,505.1,422,503.9,420.6,503.9z"/>
	</g>
</g>
<g>
	<path class="st3" d="M247,441h7.9c1,0,2.1,0.1,3.1,0.3c0.9,0.2,1.8,0.5,2.6,1c0.7,0.5,1.3,1.2,1.7,2c0.5,1,0.7,2,0.6,3.1
		c0,1.1-0.2,2.2-0.6,3.1c-0.4,0.8-0.9,1.5-1.6,2s-1.6,0.9-2.5,1.1c-1,0.2-2.1,0.3-3.1,0.3h-3.4v8.3H247V441z M251.7,450h3.1
		c0.4,0,0.8,0,1.2-0.1s0.7-0.2,1-0.4c0.3-0.2,0.6-0.5,0.8-0.8c0.2-0.4,0.3-0.8,0.3-1.2c0-0.5-0.1-0.9-0.4-1.3
		c-0.3-0.3-0.6-0.6-1-0.8c-0.4-0.2-0.9-0.3-1.3-0.3c-0.5,0-0.9,0-1.4,0h-2.4L251.7,450L251.7,450z"/>
	<path class="st3" d="M272.5,441h8.2c1,0,2.1,0.1,3.1,0.3c0.9,0.2,1.8,0.5,2.5,1s1.3,1.2,1.7,2c0.5,1,0.7,2,0.6,3.1
		c0,1.4-0.4,2.7-1.2,3.8c-0.8,1.1-2.1,1.8-3.4,2l5.4,9H284l-4.4-8.5h-2.3v8.5h-4.7L272.5,441L272.5,441z M277.2,449.8h4.1
		c0.4,0,0.9-0.1,1.3-0.3c0.4-0.1,0.7-0.4,1-0.7c0.3-0.4,0.4-0.9,0.4-1.4s-0.1-0.9-0.3-1.3c-0.2-0.3-0.5-0.6-0.8-0.7
		c-0.4-0.2-0.8-0.3-1.2-0.4c-0.4-0.1-0.9-0.1-1.3-0.1h-3.1L277.2,449.8L277.2,449.8z"/>
	<path class="st3" d="M298.7,441h14.4v4.3h-9.8v4h9.2v4.3h-9.2v4.3h10.3v4.3h-15L298.7,441L298.7,441z"/>
	<path class="st3" d="M334.6,446.2c-0.4-0.5-0.9-0.9-1.5-1.1s-1.2-0.3-1.9-0.3c-0.3,0-0.7,0-1,0.1s-0.7,0.2-1,0.4
		c-0.3,0.2-0.6,0.4-0.8,0.7c-0.2,0.3-0.3,0.6-0.3,1c0,0.6,0.2,1.1,0.7,1.5c0.6,0.4,1.2,0.7,1.8,0.9c0.7,0.2,1.5,0.5,2.4,0.7
		c0.8,0.2,1.6,0.6,2.4,1c0.7,0.4,1.4,1,1.8,1.8c0.5,0.9,0.8,2,0.7,3c0,1.1-0.2,2.1-0.7,3.1c-0.4,0.9-1,1.6-1.8,2.2s-1.7,1-2.6,1.3
		c-1,0.3-2.1,0.4-3.1,0.4c-1.3,0-2.6-0.2-3.8-0.6c-1.2-0.4-2.3-1.1-3.3-2l3.3-3.7c0.5,0.6,1.1,1.2,1.8,1.5c1.1,0.5,2.3,0.7,3.4,0.4
		c0.4-0.1,0.7-0.2,1-0.4c0.3-0.2,0.6-0.4,0.8-0.7c0.2-0.3,0.3-0.6,0.3-1c0-0.6-0.3-1.2-0.7-1.5c-0.6-0.4-1.2-0.8-1.8-1
		c-0.7-0.3-1.5-0.5-2.4-0.8c-0.8-0.2-1.6-0.6-2.4-1c-0.7-0.4-1.4-1-1.8-1.7c-0.5-0.9-0.8-1.8-0.7-2.9c0-1,0.2-2.1,0.7-3
		c0.4-0.8,1.1-1.6,1.8-2.2c0.8-0.6,1.7-1,2.6-1.3c1-0.3,2-0.4,3-0.4c1.2,0,2.4,0.2,3.5,0.5s2.1,0.9,3,1.7L334.6,446.2z"/>
	<path class="st3" d="M348.1,441h14.4v4.3h-9.8v4h9.2v4.3h-9.2v4.3H363v4.3h-15L348.1,441L348.1,441z"/>
	<path class="st3" d="M373.4,441h6.4l9,14.8h0.1V441h4.7v21.2h-6.1l-9.3-15.1h-0.1v15.1h-4.7V441z"/>
	<path class="st3" d="M408.5,445.1h-6.1V441h16.8v4.1h-6.1v17.1h-4.7v-17.1H408.5z"/>
	<path class="st3" d="M428.4,441h14.4v4.3H433v4h9.2v4.3H433v4.3h10.3v4.3h-15V441H428.4z"/>
	<path class="st3" d="M453.8,441h7c1.6,0,3.3,0.2,4.8,0.6c1.4,0.3,2.8,1,4,1.8c1.2,0.9,2.1,2,2.7,3.3c0.7,1.6,1.1,3.3,1,5
		c0,1.6-0.3,3.1-1,4.5c-0.6,1.3-1.5,2.4-2.6,3.3s-2.4,1.6-3.8,2c-1.5,0.5-3,0.7-4.5,0.7h-7.6V441L453.8,441z M458.4,457.9h2.4
		c1,0,2-0.1,3-0.3c0.9-0.2,1.7-0.6,2.4-1.1c0.7-0.5,1.2-1.2,1.6-2c0.4-0.9,0.6-2,0.6-3c0-0.9-0.2-1.9-0.6-2.7
		c-0.4-0.8-0.9-1.4-1.6-1.9s-1.5-0.9-2.3-1.1c-0.9-0.3-1.9-0.4-2.8-0.4h-2.7V457.9L458.4,457.9z"/>
	<path class="st3" d="M498.6,441h7.9c0.9,0,1.9,0.1,2.8,0.2s1.7,0.4,2.5,0.8c0.7,0.4,1.3,0.9,1.8,1.6c0.5,0.8,0.7,1.8,0.7,2.8
		c0,1.1-0.3,2.2-1,3s-1.6,1.4-2.7,1.7v0.1c0.7,0.1,1.3,0.3,1.9,0.6c0.6,0.3,1.1,0.7,1.5,1.1c0.4,0.5,0.8,1,1,1.6s0.3,1.3,0.3,1.9
		c0,1-0.2,2-0.7,2.8s-1.1,1.4-1.9,1.9c-0.8,0.5-1.7,0.8-2.6,1s-1.9,0.3-2.8,0.3h-8.7L498.6,441L498.6,441z M503.3,449.5h3.4
		c0.4,0,0.7,0,1.1-0.1s0.7-0.2,1-0.4c0.3-0.2,0.5-0.4,0.7-0.7c0.2-0.3,0.3-0.7,0.2-1.1c0-0.7-0.3-1.4-1-1.8c-0.3-0.2-0.7-0.3-1-0.3
		c-0.4-0.1-0.7-0.1-1.1-0.1h-3.2L503.3,449.5L503.3,449.5z M503.3,458.3h4.2c0.4,0,0.7,0,1.1-0.1s0.7-0.2,1-0.4
		c0.3-0.2,0.6-0.5,0.7-0.8c0.2-0.4,0.3-0.8,0.3-1.2c0-0.4-0.1-0.9-0.4-1.2c-0.3-0.3-0.6-0.6-1-0.7c-0.4-0.2-0.8-0.3-1.2-0.3
		c-0.4-0.1-0.8-0.1-1.2-0.1h-3.5V458.3L503.3,458.3z"/>
	<path class="st3" d="M529.9,453.2l-8-12.2h5.8l4.5,8l4.8-8h5.5l-8,12.2v9.1h-4.7L529.9,453.2L529.9,453.2z"/>
</g>
<g>
	<path d="M355.8,20.6c4.1-0.1,8,1.4,11,4.1l-2.9,5.6c-2.1-2.3-5-3.6-8.1-3.6c-5.1,0-9.2,4.1-9.2,9.1c0,5.1,4.1,9.2,9.1,9.2
		c3.3,0,6.4-1.4,8.6-3.9l3,5.7c-3.1,2.9-7.3,4.4-11.5,4.3c-8.4,0-15.2-6.8-15.2-15.2C340.5,27.5,347.4,20.6,355.8,20.6L355.8,20.6z"
		/>
	<path d="M373.2,19.4c2,0,3.7,1.7,3.7,3.7s-1.6,3.7-3.7,3.7l0,0c-2,0-3.7-1.7-3.7-3.7C369.5,21.1,371.1,19.4,373.2,19.4z M376,29.4
		v21.8h-5.8V29.4H376L376,29.4z"/>
	<path d="M393.8,28.8c5.1,0,7.7,3.3,7.7,8.8v13.5h-5.9V39c0-3.3-1.5-4.7-4-4.7c-3.4,0-4.8,2.5-4.8,6.4v10.4H381V29.3h5.6v3.1
		C388.3,30.2,390.9,28.8,393.8,28.8z"/>
	<path d="M416,28.8c3.1-0.1,6.1,1,8.3,3.2l-3.3,4.6c-1.3-1.4-3.1-2.2-5-2.2c-3.2,0.1-5.7,2.8-5.6,6c0.1,3,2.5,5.4,5.6,5.6
		c1.9,0,3.8-0.8,5.1-2.2l3.2,4.6c-2.3,2.2-5.3,3.3-8.4,3.2c-6.7,0-11.5-4.5-11.5-11.4S409.3,28.8,416,28.8z"/>
	<path d="M430.5,19.4c2,0,3.7,1.7,3.7,3.7s-1.6,3.7-3.7,3.7l0,0c-2,0-3.7-1.7-3.7-3.7S428.5,19.4,430.5,19.4z M433.4,29.4v21.8h-5.8
		V29.4H433.4L433.4,29.4z"/>
	<path d="M451.1,28.8c5.1,0,7.7,3.3,7.7,8.8v13.5h-5.9V39c0-3.3-1.5-4.7-4-4.7c-3.4,0-4.8,2.5-4.8,6.4v10.4h-5.8V29.3h5.6v3.1
		C445.6,30.1,448.3,28.8,451.1,28.8z"/>
	<path d="M475.2,28.8c5.1,0,7.7,3.3,7.7,8.8v13.5H477V39c0-3.3-1.5-4.7-4-4.7c-3.4,0-4.8,2.5-4.8,6.4v10.4h-5.8V29.3h5.6v3.1
		C469.8,30.2,472.4,28.8,475.2,28.8z"/>
	<path d="M496.4,28.9c6.4,0,9.5,2.8,9.5,8.9v13.5h-5.8v-3c-1.5,2.2-4,3.5-6.7,3.4c-4.3,0-7.4-2.8-7.4-6.8s3-6.5,7-6.8l6-0.5
		c0.8-0.1,1.1-0.4,1.1-0.9v-0.3c0-1.3-1.2-2.2-3.8-2.2c-2.3,0-4.6,0.7-5.5,2.8l-4.3-3C488.1,30.5,491.7,28.9,496.4,28.9z
		 M500.2,41.5l-5.4,0.7c-1.8,0.3-2.7,1.2-2.7,2.4c0,1.4,1.1,2.3,3.1,2.3c3,0,5-2.1,5-4.5V41.5L500.2,41.5z"/>
	<path d="M518.1,51.4c-4,0-6.4-1.9-6.4-6.9V34.2h-4v-4.8h4v-5.8h5.8v5.8h5.5v4.8h-5.5v9.5c0,1.4,0.7,2,2.2,2c1.1,0,2.1-0.1,3.2-0.3
		v5.5C521.2,51.2,519.7,51.4,518.1,51.4z"/>
	<path d="M529.8,19.4c2,0,3.7,1.7,3.7,3.7s-1.6,3.7-3.7,3.7l0,0c-2,0-3.7-1.7-3.7-3.7S527.8,19.4,529.8,19.4z M532.7,29.4v21.8h-5.8
		V29.4H532.7L532.7,29.4z"/>
	<rect x="257.5" class="st4" width="71.8" height="71.8"/>
	<path class="st5" d="M288.1,28.2c-0.3,0.1-0.6,0.4-0.7,0.8c-0.1,0.3-3.4,14.2-3.4,14.4c-0.1,0.3,0,0.6,0.2,0.7h0.1
		c0.4,0.2,2.3,0.8,2.4,0.9c0.2,0.1,0.1,0.2,0,0.2h-8.1c-0.1,0-0.2,0-0.1-0.1s2-0.7,2.1-0.8c0.3-0.1,0.6-0.3,0.8-0.7
		c0.1-0.3,3.5-14.3,3.5-14.5c0.1-0.3,0-0.7-0.3-0.8l0,0h-0.1l-2.4-0.8c-0.1,0-0.1-0.1,0-0.1h8.5c0.1,0,0.2,0.1,0.1,0.1L289,28
		C288.7,27.9,288.4,28,288.1,28.2"/>
	<path class="st5" d="M304.4,44c-1.9,0.7-3.8,1.1-5.8,1.2c-7,0.2-9.6-4.7-8.4-9.2c0.7-2.4,2.1-4.6,4.1-6.1c2.6-1.9,5.6-3,8.8-3
		c1.5,0,3,0.2,4.5,0.5c0.3,0,0.6,0.3,0.6,0.6c0,0.1,0,0.2-0.1,0.3c0,0.1-1.7,5.1-1.8,5.2c0,0.1-0.2,0.2-0.2,0s0.2-4.5,0.2-4.7
		c0.1-0.4-0.1-0.8-0.5-0.9l0,0l0,0c-2.3-0.4-4.6-0.2-6.7,0.6c-4.3,2-6.8,6.6-6.3,10.3c0.5,3.3,3.3,5.7,6.7,5.6c0.8,0,1.6,0,2.3-0.2
		c0.2,0,0.5-0.2,0.5-0.5c0.1-0.2,0.7-2.9,0.7-3c0.1-0.2,0.1-0.4-0.1-0.6l0,0l0,0l-4-1.1c-0.2,0-0.1-0.1,0-0.1h6.5
		c0.3,0,1-0.1,0.8,0.6c-0.2,0.6-1.2,3.8-1.3,4C304.8,43.8,304.6,44,304.4,44"/>
	<path class="st5" d="M273.3,36.3c0,0.4-0.1,0.6-0.8,0.6h-4.2c-0.7,0-0.6-0.4-0.4-0.6s4.7-5.1,4.9-5.3c0.3-0.4,0.6-0.3,0.6,0.1
		S273.3,36,273.3,36.3 M278.2,45c-0.2-0.1-1.8-0.8-2.2-0.9c-0.3-0.1-0.5-0.5-0.5-0.8c0-0.2,0.2-16.4,0.2-16.5c0,0-0.1,0-0.2,0l0,0
		c-0.3,0.3-15.9,17.3-16.1,17.4c-0.5,0.4-1.1,0.6-1.7,0.8h-0.1v0.1h8.3c0.1,0,0.1-0.1,0-0.1c-0.6-0.1-3.3-0.7-3.7-0.8
		c-0.5-0.1-0.5-0.4-0.3-0.6c0.2-0.2,4.3-5.4,4.7-5.6c0.3-0.3,0.8-0.4,1.2-0.3h2.7c0.8,0,1.5,0,2.2,0.1c0.3,0,0.6,0.3,0.6,0.6
		c0,0.1,0,0.1,0,0.2c0,0.2-0.2,4-0.2,4.7s-0.1,0.8-0.6,0.9c-0.2,0.1-3,1-3.1,1s0,0.1,0,0.1h8.7C278.1,45.1,278.2,45,278.2,45"/>
	<path class="st5" d="M321.1,36.3c0,0.4-0.2,0.6-0.8,0.6H316c-0.6,0-0.6-0.4-0.4-0.6s4.7-5.1,4.9-5.3c0.3-0.4,0.6-0.3,0.6,0.1
		S321.1,36,321.1,36.3 M326,45l-2.2-0.9c-0.3-0.1-0.5-0.5-0.5-0.8c0-0.2,0.2-16.4,0.2-16.5c0,0-0.1,0-0.2,0l0,0
		c-0.3,0.3-15.9,17.3-16.2,17.4c-0.5,0.4-1.1,0.6-1.7,0.9c-0.1,0-0.1,0.1,0,0.1h8.2c0.1,0,0.1-0.1,0-0.1c-0.6-0.1-3.3-0.7-3.7-0.8
		s-0.5-0.4-0.3-0.6c0.2-0.2,4.4-5.4,4.6-5.6c0.3-0.3,0.8-0.4,1.2-0.3h2.7c0.7,0,1.4,0,2.2,0.1c0.3,0,0.6,0.3,0.6,0.6
		c0,0.1,0,0.1,0,0.2c0,0.2-0.2,4-0.2,4.7s-0.1,0.8-0.6,0.9c-0.2,0.1-3,1-3.1,1s0,0.1,0,0.1h8.7C326,45.1,326,45,326,45"/>
</g>
</svg>
